SplineFontDB: 3.0
FontName: AnticSlab-Regular
FullName: Antic Slab
FamilyName: Antic Slab
Weight: Book
Copyright: Copyright (c) 2011 by Santiago Orozco(hi@typemade.mx) with reserved name Antic Slab
Version: 001.001
ItalicAngle: 0
UnderlinePosition: -50
UnderlineWidth: 50
Ascent: 800
Descent: 200
sfntRevision: 0x00010000
LayerCount: 2
Layer: 0 1 "Back"  1
Layer: 1 1 "Fore"  0
XUID: [1021 304 1205184651 16032472]
FSType: 0
OS2Version: 2
OS2_WeightWidthSlopeOnly: 0
OS2_UseTypoMetrics: 1
CreationTime: 1324138764
ModificationTime: 1331499948
PfmFamily: 81
TTFWeight: 400
TTFWidth: 5
LineGap: 0
VLineGap: 0
Panose: 0 0 0 0 0 0 0 0 0 0
OS2TypoAscent: 140
OS2TypoAOffset: 1
OS2TypoDescent: -50
OS2TypoDOffset: 1
OS2TypoLinegap: 0
OS2WinAscent: 0
OS2WinAOffset: 1
OS2WinDescent: 0
OS2WinDOffset: 1
HheadAscent: 0
HheadAOffset: 1
HheadDescent: 0
HheadDOffset: 1
OS2SubXSize: 700
OS2SubYSize: 650
OS2SubXOff: 0
OS2SubYOff: 140
OS2SupXSize: 700
OS2SupYSize: 650
OS2SupXOff: 0
OS2SupYOff: 477
OS2StrikeYSize: 50
OS2StrikeYPos: 250
OS2Vendor: 'pyrs'
OS2CodePages: 00000001.00000000
OS2UnicodeRanges: 80000027.0000200a.00000000.00000000
Lookup: 258 0 0 "'kern' Horizontal Kerning in Latin lookup 0"  {"'kern' Horizontal Kerning in Latin lookup 0 per glyph data 0"  "'kern' Horizontal Kerning in Latin lookup 0 per glyph data 1"  "'kern' Horizontal Kerning in Latin lookup 0 kerning class 2"  } ['kern' ('latn' <'dflt' > ) ]
DEI: 91125
KernClass2: 32+ 21 "'kern' Horizontal Kerning in Latin lookup 0 kerning class 2" 
 50 A Agrave Aacute Acircumflex Atilde Adieresis Aring
 10 C Ccedilla
 5 D Eth
 37 E Egrave Eacute Ecircumflex Edieresis
 1 G
 52 H I J M N Igrave Iacute Icircumflex Idieresis Ntilde
 1 K
 1 L
 46 O Q Ograve Oacute Ocircumflex Otilde Odieresis
 1 R
 1 S
 1 T
 37 U Ugrave Uacute Ucircumflex Udieresis
 1 W
 18 Y Yacute Ydieresis
 63 a h m n agrave aacute acircumflex atilde adieresis aring ntilde
 9 at oslash
 9 b p thorn
 10 c ccedilla

StartChar: exclam
Encoding: 33 33 4
Width: 282
GlyphClass: 2
Flags: W
LayerCount: 2
Fore
SplineSet
172 129 m 1,0,-1
 112 129 l 1,1,-1
 112 695 l 1,2,-1
 172 700 l 1,3,-1
 172 129 l 1,0,-1
106 35 m 128,-1,5
 106 49 106 49 116.5 59.5 c 128,-1,6
 127 70 127 70 141 70 c 128,-1,7
 155 70 155 70 165.5 59.5 c 128,-1,8
 176 49 176 49 176 35 c 128,-1,9
 176 21 176 21 165.5 10.5 c 128,-1,10
 155 0 155 0 141 0 c 128,-1,11
 127 0 127 0 116.5 10.5 c 128,-1,4
 106 21 106 21 106 35 c 128,-1,5
EndSplineSet
EndChar

StartChar: quotedbl
Encoding: 34 34 5
Width: 358
GlyphClass: 2
Flags: W
LayerCount: 2
Fore
SplineSet
80 600 m 1,0,1
 79 606 79 606 79 611.5 c 128,-1,2
 79 617 79 617 78 625 c 128,-1,3
 77 633 77 633 76.5 643 c 128,-1,4
 76 653 76 653 76 664 c 0,5,6
 74 699 74 699 74 718 c 1,7,-1
 128 719 l 1,8,9
 118 662 118 662 118 603 c 1,10,-1
 80 600 l 1,0,1
200 600 m 1,11,12
 199 606 199 606 199 611.5 c 128,-1,13
 199 617 199 617 198 625 c 128,-1,14
 197 633 197 633 196.5 643 c 128,-1,15
 196 653 196 653 196 664 c 0,16,17
 194 699 194 699 194 718 c 1,18,-1
 248 719 l 1,19,20
 238 662 238 662 238 603 c 1,21,-1
 200 600 l 1,11,12
EndSplineSet
EndChar

StartChar: numbersign
Encoding: 35 35 6
Width: 600
GlyphClass: 2
Flags: W
LayerCount: 2
Fore
SplineSet
63 458 m 1,0,-1
 69 516 l 1,1,-1
 191 516 l 1,2,-1
 220 679 l 1,3,-1
 280 679 l 1,4,-1
 251 516 l 1,5,-1
 393 516 l 1,6,-1
 422 679 l 1,7,-1
 482 679 l 1,8,-1
 453 516 l 1,9,-1
 560 516 l 1,10,-1
 554 458 l 1,11,-1
 443 458 l 1,12,-1
 413 287 l 1,13,-1
 520 287 l 1,14,-1
 514 229 l 1,15,-1
 403 229 l 1,16,-1
 371 44 l 1,17,-1
 311 44 l 1,18,-1
 343 229 l 1,19,-1
 201 229 l 1,20,-1
 169 44 l 1,21,-1
 109 44 l 1,22,-1
 141 229 l 1,23,-1
 23 229 l 1,24,-1
 29 287 l 1,25,-1
 151 287 l 1,26,-1
 181 458 l 1,27,-1
 63 458 l 1,0,-1
241 458 m 1,28,-1
 211 287 l 1,29,-1
 353 287 l 1,30,-1
 383 458 l 1,31,-1
 241 458 l 1,28,-1
EndSplineSet
EndChar

StartChar: dollar
Encoding: 36 36 7
Width: 583
GlyphClass: 2
Flags: W
LayerCount: 2
Fore
SplineSet
306 547 m 2,0,-1
 301 547 l 1,1,-1
 301 334 l 1,2,3
 417 301 417 301 450 267 c 0,4,5
 489 226 489 226 489 157 c 128,-1,6
 489 88 489 88 436 45.5 c 128,-1,7
 383 3 383 3 301 -3 c 1,8,-1
 301 -100 l 1,9,-1
 266 -100 l 1,10,-1
 266 -4 l 1,11,12
 126 2 126 2 65 52 c 1,13,-1
 86 97 l 1,14,15
 112 74 112 74 163.5 61.5 c 128,-1,16
 215 49 215 49 264 49 c 2,17,-1
 266 49 l 1,18,-1
 266 288 l 1,19,20
 152 320 152 320 122 349 c 0,21,22
 84 385 84 385 84 446.5 c 128,-1,23
 84 508 84 508 133 550.5 c 128,-1,24
 182 593 182 593 266 599 c 1,25,-1
 266 700 l 1,26,-1
 301 700 l 1,27,-1
 301 600 l 1,28,29
 362 598 362 598 430 586 c 2,30,-1
 452 582 l 1,31,-1
 440 531 l 1,32,33
 344 547 344 547 306 547 c 2,0,-1
429 161 m 0,34,35
 429 209 429 209 396 234.5 c 128,-1,36
 363 260 363 260 301 278 c 1,37,-1
 301 51 l 1,38,39
 429 65 429 65 429 161 c 0,34,35
179.5 511.5 m 128,-1,41
 149 486 149 486 149 445.5 c 128,-1,42
 149 405 149 405 179 383 c 128,-1,43
 209 361 209 361 266 344 c 1,44,-1
 266 544 l 1,45,40
 210 537 210 537 179.5 511.5 c 128,-1,41
EndSplineSet
EndChar

StartChar: percent
Encoding: 37 37 8
Width: 653
GlyphClass: 2
Flags: W
LayerCount: 2
Fore
SplineSet
498 500 m 1,0,-1
 558 500 l 1,1,-1
 180 0 l 1,2,-1
 120 0 l 1,3,-1
 498 500 l 1,0,-1
80 400 m 0,4,5
 80 449 80 449 115 484.5 c 128,-1,6
 150 520 150 520 200 520 c 0,7,8
 320 520 320 520 320 400 c 0,9,10
 320 350 320 350 284.5 315 c 128,-1,11
 249 280 249 280 200 280 c 0,12,13
 80 280 80 280 80 400 c 0,4,5
143 458 m 128,-1,15
 120 434 120 434 120 397 c 128,-1,16
 120 360 120 360 142 339 c 128,-1,17
 164 318 164 318 198.5 318 c 128,-1,18
 233 318 233 318 256.5 342 c 128,-1,19
 280 366 280 366 280 403 c 128,-1,20
 280 440 280 440 257.5 461 c 128,-1,21
 235 482 235 482 200.5 482 c 128,-1,14
 166 482 166 482 143 458 c 128,-1,15
370 115 m 0,22,23
 370 164 370 164 405 199.5 c 128,-1,24
 440 235 440 235 490 235 c 0,25,26
 610 235 610 235 610 115 c 0,27,28
 610 65 610 65 574.5 30 c 128,-1,29
 539 -5 539 -5 490 -5 c 0,30,31
 370 -5 370 -5 370 115 c 0,22,23
433 173 m 128,-1,33
 410 149 410 149 410 112 c 128,-1,34
 410 75 410 75 432 54 c 128,-1,35
 454 33 454 33 488.5 33 c 128,-1,36
 523 33 523 33 546.5 57 c 128,-1,37
 570 81 570 81 570 118 c 128,-1,38
 570 155 570 155 547.5 176 c 128,-1,39
 525 197 525 197 490.5 197 c 128,-1,32
 456 197 456 197 433 173 c 128,-1,33
EndSplineSet
EndChar

StartChar: ampersand
Encoding: 38 38 9
Width: 861
GlyphClass: 2
Flags: W
LayerCount: 2
Fore
SplineSet
338 -4 m 0,0,1
 71 -4 71 -4 71 229 c 0,2,3
 71 330 71 330 120 387 c 128,-1,4
 169 444 169 444 254 461 c 1,5,6
 199 547 199 547 199 600.5 c 128,-1,7
 199 654 199 654 243.5 701.5 c 128,-1,8
 288 749 288 749 376 749 c 0,9,10
 424 749 424 749 454 737.5 c 128,-1,11
 484 726 484 726 502 716 c 128,-1,12
 520 706 520 706 528 699 c 0,13,14
 559 674 559 674 560 674 c 2,15,-1
 524 634 l 1,16,17
 451 694 451 694 380 694 c 0,18,19
 311 694 311 694 286 654 c 1,20,21
 264 622 264 622 264 593 c 0,22,23
 264 525 264 525 363 407.5 c 128,-1,24
 462 290 462 290 600 163 c 1,25,26
 646 215 646 215 672 288 c 1,27,28
 672 300 672 300 660 302 c 1,29,-1
 598 302 l 1,30,31
 597 308 597 308 597 352 c 1,32,-1
 807 353 l 2,33,34
 807 352 807 352 808 328 c 1,35,-1
 808 303 l 1,36,-1
 738 303 l 1,37,38
 712 202 712 202 644 123 c 1,39,40
 659 110 659 110 726 52 c 1,41,-1
 808 52 l 1,42,-1
 807 0 l 1,43,-1
 698 -1 l 1,44,45
 669 23 669 23 602 83 c 1,46,47
 498 -4 498 -4 338 -4 c 0,0,1
186 99.5 m 128,-1,49
 236 51 236 51 353.5 51 c 128,-1,50
 471 51 471 51 559 122 c 1,51,52
 382 285 382 285 288 411 c 1,53,54
 216 403 216 403 176 357 c 128,-1,55
 136 311 136 311 136 229.5 c 128,-1,48
 136 148 136 148 186 99.5 c 128,-1,49
EndSplineSet
EndChar

StartChar: quotesingle
Encoding: 39 39 10
Width: 200
GlyphClass: 2
Flags: W
LayerCount: 2
Fore
SplineSet
64 587 m 1,0,-1
 65 661 l 2,1,2
 65 702 65 702 64 715 c 1,3,-1
 118 718 l 1,4,5
 118 699 118 699 117 677 c 128,-1,6
 116 655 116 655 115.5 638 c 128,-1,7
 115 621 115 621 114 606.5 c 128,-1,8
 113 592 113 592 112 575 c 1,9,-1
 64 573 l 1,10,-1
 64 587 l 1,0,-1
EndSplineSet
EndChar

StartChar: parenleft
Encoding: 40 40 11
Width: 346
GlyphClass: 2
Flags: W
LayerCount: 2
Fore
SplineSet
137 418.5 m 128,-1,1
 129 350 129 350 129 258 c 128,-1,2
 129 166 129 166 142 83 c 128,-1,3
 155 0 155 0 171.5 -44.5 c 128,-1,4
 188 -89 188 -89 210.5 -121.5 c 128,-1,5
 233 -154 233 -154 244 -162 c 0,6,7
 254 -170 254 -170 267 -178 c 1,8,-1
 235 -200 l 1,9,10
 226 -196 226 -196 222 -194.5 c 128,-1,11
 218 -193 218 -193 197.5 -178 c 128,-1,12
 177 -163 177 -163 163 -144.5 c 128,-1,13
 149 -126 149 -126 128.5 -88.5 c 128,-1,14
 108 -51 108 -51 96 -5 c 0,15,16
 64 111 64 111 64 270 c 0,17,18
 64 445 64 445 98 554 c 0,19,20
 130 656 130 656 168 697 c 0,21,22
 207 740 207 740 226 746 c 1,23,-1
 235 750 l 1,24,-1
 267 721 l 1,25,26
 258 718 258 718 242 702 c 128,-1,27
 226 686 226 686 212.5 667.5 c 128,-1,28
 199 649 199 649 183.5 612.5 c 128,-1,29
 168 576 168 576 156.5 531.5 c 128,-1,0
 145 487 145 487 137 418.5 c 128,-1,1
EndSplineSet
EndChar

StartChar: parenright
Encoding: 41 41 12
Width: 400
GlyphClass: 2
Flags: W
LayerCount: 2
Fore
SplineSet
257.5 432 m 128,-1,1
 267 358 267 358 267 271.5 c 128,-1,2
 267 185 267 185 257.5 113 c 128,-1,3
 248 41 248 41 235.5 -5 c 128,-1,4
 223 -51 223 -51 202.5 -88.5 c 128,-1,5
 182 -126 182 -126 168 -144.5 c 128,-1,6
 154 -163 154 -163 133.5 -178 c 128,-1,7
 113 -193 113 -193 109 -194.5 c 128,-1,8
 105 -196 105 -196 96 -200 c 1,9,-1
 64 -178 l 1,10,11
 0 0 0 0 66 -177 c 1,12,13
 144 -132 144 -132 179 27 c 0,14,15
 202 130 202 130 202 255 c 128,-1,16
 202 380 202 380 188 467 c 128,-1,17
 174 554 174 554 153.5 599.5 c 128,-1,18
 133 645 133 645 112.5 674.5 c 128,-1,19
 92 704 92 704 78 712 c 2,20,-1
 64 721 l 1,21,-1
 96 750 l 1,22,23
 108 747 108 747 127.5 731.5 c 128,-1,24
 147 716 147 716 163.5 697 c 128,-1,25
 180 678 180 678 199.5 640 c 128,-1,26
 219 602 219 602 233.5 554 c 128,-1,0
 248 506 248 506 257.5 432 c 128,-1,1
EndSplineSet
EndChar

StartChar: asterisk
Encoding: 42 42 13
Width: 556
GlyphClass: 2
Flags: W
LayerCount: 2
Fore
SplineSet
274 736 m 1,0,-1
 322 735 l 1,1,2
 322 688 322 688 314 613 c 1,3,-1
 427 656 l 1,4,-1
 443 609 l 1,5,6
 397 593 397 593 325 578 c 1,7,-1
 400 483 l 1,8,-1
 361 454 l 1,9,10
 332 492 332 492 293 559 c 1,11,12
 239 480 239 480 225 457 c 1,13,-1
 186 485 l 1,14,15
 193 494 193 494 264 581 c 1,16,-1
 148 613 l 1,17,-1
 162 660 l 1,18,19
 220 640 220 640 278 613 c 1,20,21
 275 726 275 726 274 736 c 1,0,-1
EndSplineSet
EndChar

StartChar: plus
Encoding: 43 43 14
Width: 799
GlyphClass: 2
Flags: W
LayerCount: 2
Fore
SplineSet
146 290 m 1,0,-1
 366 290 l 1,1,-1
 366 500 l 1,2,-1
 426 500 l 1,3,-1
 426 290 l 1,4,-1
 646 290 l 1,5,-1
 646 232 l 1,6,-1
 426 232 l 1,7,-1
 426 0 l 1,8,-1
 366 0 l 1,9,-1
 366 232 l 1,10,-1
 146 232 l 1,11,-1
 146 290 l 1,0,-1
EndSplineSet
EndChar

StartChar: comma
Encoding: 44 44 15
Width: 110
GlyphClass: 2
Flags: W
LayerCount: 2
Fore
SplineSet
33 65 m 1,0,1
 33 65 33 65 87 64 c 1,2,3
 87 9 87 9 59 -103 c 1,4,-1
 13 -101 l 1,5,-1
 18 -67 l 1,6,7
 33 24 33 24 33 43 c 128,-1,8
 33 62 33 62 33 65 c 1,0,1
EndSplineSet
EndChar

StartChar: hyphen
Encoding: 45 45 16
Width: 600
GlyphClass: 2
Flags: W
LayerCount: 2
Fore
SplineSet
146 290 m 1,0,-1
 448 290 l 1,1,-1
 448 232 l 1,2,-1
 146 232 l 1,3,-1
 146 290 l 1,0,-1
EndSplineSet
EndChar

StartChar: period
Encoding: 46 46 17
Width: 143
GlyphClass: 2
Flags: W
LayerCount: 2
Fore
SplineSet
34 29 m 0,0,1
 34 48 34 48 43.5 59 c 128,-1,2
 53 70 53 70 69 70 c 0,3,4
 104 70 104 70 104 29 c 0,5,6
 104 12 104 12 94 2 c 128,-1,7
 84 -8 84 -8 69 -8 c 0,8,9
 34 -8 34 -8 34 29 c 0,0,1
EndSplineSet
EndChar

StartChar: slash
Encoding: 47 47 18
Width: 600
GlyphClass: 2
Flags: W
LayerCount: 2
Fore
SplineSet
430 749 m 1,0,-1
 490 749 l 1,1,-1
 172 -200 l 1,2,-1
 112 -200 l 1,3,-1
 430 749 l 1,0,-1
EndSplineSet
EndChar

StartChar: zero
Encoding: 48 48 19
Width: 700
GlyphClass: 2
Flags: W
LayerCount: 2
Fore
SplineSet
211 554.5 m 128,-1,1
 153 476 153 476 153 335.5 c 128,-1,2
 153 195 153 195 209 123 c 128,-1,3
 265 51 265 51 348.5 51 c 128,-1,4
 432 51 432 51 489.5 129.5 c 128,-1,5
 547 208 547 208 547 347 c 128,-1,6
 547 486 547 486 490.5 559.5 c 128,-1,7
 434 633 434 633 351.5 633 c 128,-1,0
 269 633 269 633 211 554.5 c 128,-1,1
160 81.5 m 128,-1,9
 85 167 85 167 85 334 c 128,-1,10
 85 501 85 501 162 594.5 c 128,-1,11
 239 688 239 688 351.5 688 c 128,-1,12
 464 688 464 688 539.5 600.5 c 128,-1,13
 615 513 615 513 615 348 c 128,-1,14
 615 183 615 183 538 89.5 c 128,-1,15
 461 -4 461 -4 348 -4 c 128,-1,8
 235 -4 235 -4 160 81.5 c 128,-1,9
EndSplineSet
PairPos2: "'kern' Horizontal Kerning in Latin lookup 0 per glyph data 1" dotlessi dx=0 dy=0 dh=-93 dv=0 dx=0 dy=0 dh=0 dv=0
PairPos2: "'kern' Horizontal Kerning in Latin lookup 0 per glyph data 1" thorn dx=0 dy=0 dh=-93 dv=0 dx=0 dy=0 dh=0 dv=0
PairPos2: "'kern' Horizontal Kerning in Latin lookup 0 per glyph data 1" ntilde dx=0 dy=0 dh=-93 dv=0 dx=0 dy=0 dh=0 dv=0
PairPos2: "'kern' Horizontal Kerning in Latin lookup 0 per glyph data 1" idieresis dx=0 dy=0 dh=-93 dv=0 dx=0 dy=0 dh=0 dv=0
PairPos2: "'kern' Horizontal Kerning in Latin lookup 0 per glyph data 1" icircumflex dx=0 dy=0 dh=-93 dv=0 dx=0 dy=0 dh=0 dv=0
PairPos2: "'kern' Horizontal Kerning in Latin lookup 0 per glyph data 1" iacute dx=0 dy=0 dh=-93 dv=0 dx=0 dy=0 dh=0 dv=0
PairPos2: "'kern' Horizontal Kerning in Latin lookup 0 per glyph data 1" igrave dx=0 dy=0 dh=-93 dv=0 dx=0 dy=0 dh=0 dv=0
PairPos2: "'kern' Horizontal Kerning in Latin lookup 0 per glyph data 1" germandbls dx=0 dy=0 dh=-93 dv=0 dx=0 dy=0 dh=0 dv=0
PairPos2: "'kern' Horizontal Kerning in Latin lookup 0 per glyph data 1" mu dx=0 dy=0 dh=-93 dv=0 dx=0 dy=0 dh=0 dv=0
PairPos2: "'kern' Horizontal Kerning in Latin lookup 0 per glyph data 1" brokenbar dx=0 dy=0 dh=-93 dv=0 dx=0 dy=0 dh=0 dv=0
PairPos2: "'kern' Horizontal Kerning in Latin lookup 0 per glyph data 1" exclamdown dx=0 dy=0 dh=-93 dv=0 dx=0 dy=0 dh=0 dv=0
PairPos2: "'kern' Horizontal Kerning in Latin lookup 0 per glyph data 1" bar dx=0 dy=0 dh=-93 dv=0 dx=0 dy=0 dh=0 dv=0
PairPos2: "'kern' Horizontal Kerning in Latin lookup 0 per glyph data 1" r dx=0 dy=0 dh=-93 dv=0 dx=0 dy=0 dh=0 dv=0
PairPos2: "'kern' Horizontal Kerning in Latin lookup 0 per glyph data 1" p dx=0 dy=0 dh=-93 dv=0 dx=0 dy=0 dh=0 dv=0
PairPos2: "'kern' Horizontal Kerning in Latin lookup 0 per glyph data 1" n dx=0 dy=0 dh=-93 dv=0 dx=0 dy=0 dh=0 dv=0
PairPos2: "'kern' Horizontal Kerning in Latin lookup 0 per glyph data 1" m dx=0 dy=0 dh=-93 dv=0 dx=0 dy=0 dh=0 dv=0
PairPos2: "'kern' Horizontal Kerning in Latin lookup 0 per glyph data 1" l dx=0 dy=0 dh=-93 dv=0 dx=0 dy=0 dh=0 dv=0
PairPos2: "'kern' Horizontal Kerning in Latin lookup 0 per glyph data 1" k dx=0 dy=0 dh=-93 dv=0 dx=0 dy=0 dh=0 dv=0
PairPos2: "'kern' Horizontal Kerning in Latin lookup 0 per glyph data 1" j dx=0 dy=0 dh=-93 dv=0 dx=0 dy=0 dh=0 dv=0
PairPos2: "'kern' Horizontal Kerning in Latin lookup 0 per glyph data 1" i dx=0 dy=0 dh=-93 dv=0 dx=0 dy=0 dh=0 dv=0
PairPos2: "'kern' Horizontal Kerning in Latin lookup 0 per glyph data 1" h dx=0 dy=0 dh=-93 dv=0 dx=0 dy=0 dh=0 dv=0
PairPos2: "'kern' Horizontal Kerning in Latin lookup 0 per glyph data 1" f dx=0 dy=0 dh=-93 dv=0 dx=0 dy=0 dh=0 dv=0
PairPos2: "'kern' Horizontal Kerning in Latin lookup 0 per glyph data 1" b dx=0 dy=0 dh=-93 dv=0 dx=0 dy=0 dh=0 dv=0
PairPos2: "'kern' Horizontal Kerning in Latin lookup 0 per glyph data 1" bracketright dx=0 dy=0 dh=-93 dv=0 dx=0 dy=0 dh=0 dv=0
PairPos2: "'kern' Horizontal Kerning in Latin lookup 0 per glyph data 1" bracketleft dx=0 dy=0 dh=-93 dv=0 dx=0 dy=0 dh=0 dv=0
PairPos2: "'kern' Horizontal Kerning in Latin lookup 0 per glyph data 1" semicolon dx=0 dy=0 dh=-21 dv=0 dx=0 dy=0 dh=0 dv=0
PairPos2: "'kern' Horizontal Kerning in Latin lookup 0 per glyph data 1" colon dx=0 dy=0 dh=-21 dv=0 dx=0 dy=0 dh=0 dv=0
PairPos2: "'kern' Horizontal Kerning in Latin lookup 0 per glyph data 1" nine dx=0 dy=0 dh=-54 dv=0 dx=0 dy=0 dh=0 dv=0
PairPos2: "'kern' Horizontal Kerning in Latin lookup 0 per glyph data 1" eight dx=0 dy=0 dh=-53 dv=0 dx=0 dy=0 dh=0 dv=0
PairPos2: "'kern' Horizontal Kerning in Latin lookup 0 per glyph data 1" seven dx=0 dy=0 dh=-74 dv=0 dx=0 dy=0 dh=0 dv=0
PairPos2: "'kern' Horizontal Kerning in Latin lookup 0 per glyph data 1" six dx=0 dy=0 dh=-52 dv=0 dx=0 dy=0 dh=0 dv=0
PairPos2: "'kern' Horizontal Kerning in Latin lookup 0 per glyph data 1" five dx=0 dy=0 dh=-60 dv=0 dx=0 dy=0 dh=0 dv=0
PairPos2: "'kern' Horizontal Kerning in Latin lookup 0 per glyph data 1" four dx=0 dy=0 dh=-96 dv=0 dx=0 dy=0 dh=0 dv=0
PairPos2: "'kern' Horizontal Kerning in Latin lookup 0 per glyph data 1" three dx=0 dy=0 dh=-84 dv=0 dx=0 dy=0 dh=0 dv=0
PairPos2: "'kern' Horizontal Kerning in Latin lookup 0 per glyph data 1" two dx=0 dy=0 dh=-70 dv=0 dx=0 dy=0 dh=0 dv=0
PairPos2: "'kern' Horizontal Kerning in Latin lookup 0 per glyph data 1" one dx=0 dy=0 dh=-93 dv=0 dx=0 dy=0 dh=0 dv=0
PairPos2: "'kern' Horizontal Kerning in Latin lookup 0 per glyph data 1" zero dx=0 dy=0 dh=-73 dv=0 dx=0 dy=0 dh=0 dv=0
PairPos2: "'kern' Horizontal Kerning in Latin lookup 0 per glyph data 1" parenright dx=0 dy=0 dh=-93 dv=0 dx=0 dy=0 dh=0 dv=0
PairPos2: "'kern' Horizontal Kerning in Latin lookup 0 per glyph data 1" parenleft dx=0 dy=0 dh=-93 dv=0 dx=0 dy=0 dh=0 dv=0
PairPos2: "'kern' Horizontal Kerning in Latin lookup 0 per glyph data 1" exclam dx=0 dy=0 dh=-93 dv=0 dx=0 dy=0 dh=0 dv=0
EndChar

StartChar: one
Encoding: 49 49 20
Width: 488
GlyphClass: 2
Flags: W
LayerCount: 2
Fore
SplineSet
78 577 m 1,0,1
 78 577 78 577 77 626 c 1,2,-1
 237 662 l 1,3,-1
 300 662 l 1,4,-1
 300 0 l 1,5,-1
 237 0 l 1,6,-1
 237 613 l 1,7,-1
 78 577 l 1,0,1
EndSplineSet
EndChar

StartChar: two
Encoding: 50 50 21
Width: 572
GlyphClass: 2
Flags: W
LayerCount: 2
Fore
SplineSet
296 666 m 128,-1,1
 335 666 335 666 366 657 c 128,-1,2
 397 648 397 648 426 629 c 0,3,4
 487 588 487 588 487 487 c 0,5,6
 487 414 487 414 448 350 c 1,7,8
 428 315 428 315 409 288 c 128,-1,9
 390 261 390 261 355 225 c 128,-1,10
 320 189 320 189 299 168.5 c 128,-1,11
 278 148 278 148 236 109.5 c 128,-1,12
 194 71 194 71 177 55 c 1,13,-1
 460 55 l 1,14,-1
 475 180 l 1,15,-1
 524 175 l 1,16,-1
 509 0 l 1,17,-1
 101 0 l 1,18,-1
 90 55 l 1,19,20
 260 220 260 220 295 258 c 0,21,22
 420 393 420 393 420 489 c 0,23,24
 420 528 420 528 398 564 c 0,25,26
 385 585 385 585 357.5 597.5 c 128,-1,27
 330 610 330 610 294.5 610 c 128,-1,28
 259 610 259 610 220 599 c 128,-1,29
 181 588 181 588 158 577 c 2,30,-1
 135 566 l 1,31,-1
 110 613 l 1,32,33
 151 635 151 635 204 650.5 c 128,-1,0
 257 666 257 666 296 666 c 128,-1,1
EndSplineSet
PairPos2: "'kern' Horizontal Kerning in Latin lookup 0 per glyph data 1" dotlessi dx=0 dy=0 dh=-65 dv=0 dx=0 dy=0 dh=0 dv=0
PairPos2: "'kern' Horizontal Kerning in Latin lookup 0 per glyph data 1" thorn dx=0 dy=0 dh=-65 dv=0 dx=0 dy=0 dh=0 dv=0
PairPos2: "'kern' Horizontal Kerning in Latin lookup 0 per glyph data 1" ntilde dx=0 dy=0 dh=-65 dv=0 dx=0 dy=0 dh=0 dv=0
PairPos2: "'kern' Horizontal Kerning in Latin lookup 0 per glyph data 1" idieresis dx=0 dy=0 dh=-65 dv=0 dx=0 dy=0 dh=0 dv=0
PairPos2: "'kern' Horizontal Kerning in Latin lookup 0 per glyph data 1" icircumflex dx=0 dy=0 dh=-65 dv=0 dx=0 dy=0 dh=0 dv=0
PairPos2: "'kern' Horizontal Kerning in Latin lookup 0 per glyph data 1" iacute dx=0 dy=0 dh=-65 dv=0 dx=0 dy=0 dh=0 dv=0
PairPos2: "'kern' Horizontal Kerning in Latin lookup 0 per glyph data 1" igrave dx=0 dy=0 dh=-65 dv=0 dx=0 dy=0 dh=0 dv=0
PairPos2: "'kern' Horizontal Kerning in Latin lookup 0 per glyph data 1" germandbls dx=0 dy=0 dh=-65 dv=0 dx=0 dy=0 dh=0 dv=0
PairPos2: "'kern' Horizontal Kerning in Latin lookup 0 per glyph data 1" mu dx=0 dy=0 dh=-65 dv=0 dx=0 dy=0 dh=0 dv=0
PairPos2: "'kern' Horizontal Kerning in Latin lookup 0 per glyph data 1" brokenbar dx=0 dy=0 dh=-65 dv=0 dx=0 dy=0 dh=0 dv=0
PairPos2: "'kern' Horizontal Kerning in Latin lookup 0 per glyph data 1" exclamdown dx=0 dy=0 dh=-65 dv=0 dx=0 dy=0 dh=0 dv=0
PairPos2: "'kern' Horizontal Kerning in Latin lookup 0 per glyph data 1" bar dx=0 dy=0 dh=-65 dv=0 dx=0 dy=0 dh=0 dv=0
PairPos2: "'kern' Horizontal Kerning in Latin lookup 0 per glyph data 1" r dx=0 dy=0 dh=-65 dv=0 dx=0 dy=0 dh=0 dv=0
PairPos2: "'kern' Horizontal Kerning in Latin lookup 0 per glyph data 1" p dx=0 dy=0 dh=-65 dv=0 dx=0 dy=0 dh=0 dv=0
PairPos2: "'kern' Horizontal Kerning in Latin lookup 0 per glyph data 1" n dx=0 dy=0 dh=-65 dv=0 dx=0 dy=0 dh=0 dv=0
PairPos2: "'kern' Horizontal Kerning in Latin lookup 0 per glyph data 1" m dx=0 dy=0 dh=-65 dv=0 dx=0 dy=0 dh=0 dv=0
PairPos2: "'kern' Horizontal Kerning in Latin lookup 0 per glyph data 1" l dx=0 dy=0 dh=-65 dv=0 dx=0 dy=0 dh=0 dv=0
PairPos2: "'kern' Horizontal Kerning in Latin lookup 0 per glyph data 1" k dx=0 dy=0 dh=-65 dv=0 dx=0 dy=0 dh=0 dv=0
PairPos2: "'kern' Horizontal Kerning in Latin lookup 0 per glyph data 1" j dx=0 dy=0 dh=-65 dv=0 dx=0 dy=0 dh=0 dv=0
PairPos2: "'kern' Horizontal Kerning in Latin lookup 0 per glyph data 1" i dx=0 dy=0 dh=-65 dv=0 dx=0 dy=0 dh=0 dv=0
PairPos2: "'kern' Horizontal Kerning in Latin lookup 0 per glyph data 1" h dx=0 dy=0 dh=-65 dv=0 dx=0 dy=0 dh=0 dv=0
PairPos2: "'kern' Horizontal Kerning in Latin lookup 0 per glyph data 1" f dx=0 dy=0 dh=-65 dv=0 dx=0 dy=0 dh=0 dv=0
PairPos2: "'kern' Horizontal Kerning in Latin lookup 0 per glyph data 1" b dx=0 dy=0 dh=-65 dv=0 dx=0 dy=0 dh=0 dv=0
PairPos2: "'kern' Horizontal Kerning in Latin lookup 0 per glyph data 1" bracketright dx=0 dy=0 dh=-65 dv=0 dx=0 dy=0 dh=0 dv=0
PairPos2: "'kern' Horizontal Kerning in Latin lookup 0 per glyph data 1" bracketleft dx=0 dy=0 dh=-65 dv=0 dx=0 dy=0 dh=0 dv=0
PairPos2: "'kern' Horizontal Kerning in Latin lookup 0 per glyph data 1" nine dx=0 dy=0 dh=-29 dv=0 dx=0 dy=0 dh=0 dv=0
PairPos2: "'kern' Horizontal Kerning in Latin lookup 0 per glyph data 1" eight dx=0 dy=0 dh=-51 dv=0 dx=0 dy=0 dh=0 dv=0
PairPos2: "'kern' Horizontal Kerning in Latin lookup 0 per glyph data 1" seven dx=0 dy=0 dh=-44 dv=0 dx=0 dy=0 dh=0 dv=0
PairPos2: "'kern' Horizontal Kerning in Latin lookup 0 per glyph data 1" six dx=0 dy=0 dh=-44 dv=0 dx=0 dy=0 dh=0 dv=0
PairPos2: "'kern' Horizontal Kerning in Latin lookup 0 per glyph data 1" five dx=0 dy=0 dh=-22 dv=0 dx=0 dy=0 dh=0 dv=0
PairPos2: "'kern' Horizontal Kerning in Latin lookup 0 per glyph data 1" four dx=0 dy=0 dh=-88 dv=0 dx=0 dy=0 dh=0 dv=0
PairPos2: "'kern' Horizontal Kerning in Latin lookup 0 per glyph data 1" three dx=0 dy=0 dh=-43 dv=0 dx=0 dy=0 dh=0 dv=0
PairPos2: "'kern' Horizontal Kerning in Latin lookup 0 per glyph data 1" two dx=0 dy=0 dh=-50 dv=0 dx=0 dy=0 dh=0 dv=0
PairPos2: "'kern' Horizontal Kerning in Latin lookup 0 per glyph data 1" one dx=0 dy=0 dh=-65 dv=0 dx=0 dy=0 dh=0 dv=0
PairPos2: "'kern' Horizontal Kerning in Latin lookup 0 per glyph data 1" zero dx=0 dy=0 dh=-59 dv=0 dx=0 dy=0 dh=0 dv=0
PairPos2: "'kern' Horizontal Kerning in Latin lookup 0 per glyph data 1" parenright dx=0 dy=0 dh=-65 dv=0 dx=0 dy=0 dh=0 dv=0
PairPos2: "'kern' Horizontal Kerning in Latin lookup 0 per glyph data 1" parenleft dx=0 dy=0 dh=-65 dv=0 dx=0 dy=0 dh=0 dv=0
PairPos2: "'kern' Horizontal Kerning in Latin lookup 0 per glyph data 1" exclam dx=0 dy=0 dh=-65 dv=0 dx=0 dy=0 dh=0 dv=0
EndChar

StartChar: three
Encoding: 51 51 22
Width: 560
GlyphClass: 2
Flags: W
LayerCount: 2
Fore
SplineSet
190 324 m 1,0,-1
 190 369 l 1,1,2
 245 369 245 369 273 368 c 1,3,4
 328 378 328 378 368 414 c 0,5,6
 385 428 385 428 397 454.5 c 128,-1,7
 409 481 409 481 409 517 c 128,-1,8
 409 553 409 553 382.5 581.5 c 128,-1,9
 356 610 356 610 297 610 c 0,10,11
 261 610 261 610 220.5 599 c 128,-1,12
 180 588 180 588 158 577 c 2,13,-1
 135 566 l 1,14,-1
 118 616 l 1,15,16
 149 634 149 634 203.5 650 c 128,-1,17
 258 666 258 666 302 666 c 0,18,19
 379 666 379 666 428 629 c 128,-1,20
 477 592 477 592 477 522 c 0,21,22
 477 409 477 409 358 358 c 1,23,24
 481 328 481 328 481 201 c 0,25,26
 481 97 481 97 410 47 c 128,-1,27
 339 -3 339 -3 212 -3 c 0,28,29
 146 -3 146 -3 87 13 c 1,30,-1
 103 65 l 1,31,32
 143 52 143 52 206 52 c 0,33,34
 306 52 306 52 359.5 88.5 c 128,-1,35
 413 125 413 125 413 198 c 0,36,37
 413 262 413 262 376 287 c 0,38,39
 356 300 356 300 338.5 308 c 128,-1,40
 321 316 321 316 290 320 c 0,41,42
 250 324 250 324 190 324 c 1,0,-1
EndSplineSet
PairPos2: "'kern' Horizontal Kerning in Latin lookup 0 per glyph data 1" dotlessi dx=0 dy=0 dh=-64 dv=0 dx=0 dy=0 dh=0 dv=0
PairPos2: "'kern' Horizontal Kerning in Latin lookup 0 per glyph data 1" thorn dx=0 dy=0 dh=-64 dv=0 dx=0 dy=0 dh=0 dv=0
PairPos2: "'kern' Horizontal Kerning in Latin lookup 0 per glyph data 1" ntilde dx=0 dy=0 dh=-64 dv=0 dx=0 dy=0 dh=0 dv=0
PairPos2: "'kern' Horizontal Kerning in Latin lookup 0 per glyph data 1" idieresis dx=0 dy=0 dh=-64 dv=0 dx=0 dy=0 dh=0 dv=0
PairPos2: "'kern' Horizontal Kerning in Latin lookup 0 per glyph data 1" icircumflex dx=0 dy=0 dh=-64 dv=0 dx=0 dy=0 dh=0 dv=0
PairPos2: "'kern' Horizontal Kerning in Latin lookup 0 per glyph data 1" iacute dx=0 dy=0 dh=-64 dv=0 dx=0 dy=0 dh=0 dv=0
PairPos2: "'kern' Horizontal Kerning in Latin lookup 0 per glyph data 1" igrave dx=0 dy=0 dh=-64 dv=0 dx=0 dy=0 dh=0 dv=0
PairPos2: "'kern' Horizontal Kerning in Latin lookup 0 per glyph data 1" germandbls dx=0 dy=0 dh=-64 dv=0 dx=0 dy=0 dh=0 dv=0
PairPos2: "'kern' Horizontal Kerning in Latin lookup 0 per glyph data 1" mu dx=0 dy=0 dh=-64 dv=0 dx=0 dy=0 dh=0 dv=0
PairPos2: "'kern' Horizontal Kerning in Latin lookup 0 per glyph data 1" brokenbar dx=0 dy=0 dh=-64 dv=0 dx=0 dy=0 dh=0 dv=0
PairPos2: "'kern' Horizontal Kerning in Latin lookup 0 per glyph data 1" exclamdown dx=0 dy=0 dh=-64 dv=0 dx=0 dy=0 dh=0 dv=0
PairPos2: "'kern' Horizontal Kerning in Latin lookup 0 per glyph data 1" bar dx=0 dy=0 dh=-64 dv=0 dx=0 dy=0 dh=0 dv=0
PairPos2: "'kern' Horizontal Kerning in Latin lookup 0 per glyph data 1" r dx=0 dy=0 dh=-64 dv=0 dx=0 dy=0 dh=0 dv=0
PairPos2: "'kern' Horizontal Kerning in Latin lookup 0 per glyph data 1" p dx=0 dy=0 dh=-64 dv=0 dx=0 dy=0 dh=0 dv=0
PairPos2: "'kern' Horizontal Kerning in Latin lookup 0 per glyph data 1" n dx=0 dy=0 dh=-64 dv=0 dx=0 dy=0 dh=0 dv=0
PairPos2: "'kern' Horizontal Kerning in Latin lookup 0 per glyph data 1" m dx=0 dy=0 dh=-64 dv=0 dx=0 dy=0 dh=0 dv=0
PairPos2: "'kern' Horizontal Kerning in Latin lookup 0 per glyph data 1" l dx=0 dy=0 dh=-64 dv=0 dx=0 dy=0 dh=0 dv=0
PairPos2: "'kern' Horizontal Kerning in Latin lookup 0 per glyph data 1" k dx=0 dy=0 dh=-64 dv=0 dx=0 dy=0 dh=0 dv=0
PairPos2: "'kern' Horizontal Kerning in Latin lookup 0 per glyph data 1" j dx=0 dy=0 dh=-64 dv=0 dx=0 dy=0 dh=0 dv=0
PairPos2: "'kern' Horizontal Kerning in Latin lookup 0 per glyph data 1" i dx=0 dy=0 dh=-64 dv=0 dx=0 dy=0 dh=0 dv=0
PairPos2: "'kern' Horizontal Kerning in Latin lookup 0 per glyph data 1" h dx=0 dy=0 dh=-64 dv=0 dx=0 dy=0 dh=0 dv=0
PairPos2: "'kern' Horizontal Kerning in Latin lookup 0 per glyph data 1" f dx=0 dy=0 dh=-64 dv=0 dx=0 dy=0 dh=0 dv=0
PairPos2: "'kern' Horizontal Kerning in Latin lookup 0 per glyph data 1" b dx=0 dy=0 dh=-64 dv=0 dx=0 dy=0 dh=0 dv=0
PairPos2: "'kern' Horizontal Kerning in Latin lookup 0 per glyph data 1" bracketright dx=0 dy=0 dh=-64 dv=0 dx=0 dy=0 dh=0 dv=0
PairPos2: "'kern' Horizontal Kerning in Latin lookup 0 per glyph data 1" bracketleft dx=0 dy=0 dh=-64 dv=0 dx=0 dy=0 dh=0 dv=0
PairPos2: "'kern' Horizontal Kerning in Latin lookup 0 per glyph data 1" nine dx=0 dy=0 dh=-59 dv=0 dx=0 dy=0 dh=0 dv=0
PairPos2: "'kern' Horizontal Kerning in Latin lookup 0 per glyph data 1" eight dx=0 dy=0 dh=-51 dv=0 dx=0 dy=0 dh=0 dv=0
PairPos2: "'kern' Horizontal Kerning in Latin lookup 0 per glyph data 1" seven dx=0 dy=0 dh=-67 dv=0 dx=0 dy=0 dh=0 dv=0
PairPos2: "'kern' Horizontal Kerning in Latin lookup 0 per glyph data 1" six dx=0 dy=0 dh=-37 dv=0 dx=0 dy=0 dh=0 dv=0
PairPos2: "'kern' Horizontal Kerning in Latin lookup 0 per glyph data 1" five dx=0 dy=0 dh=-36 dv=0 dx=0 dy=0 dh=0 dv=0
PairPos2: "'kern' Horizontal Kerning in Latin lookup 0 per glyph data 1" four dx=0 dy=0 dh=-59 dv=0 dx=0 dy=0 dh=0 dv=0
PairPos2: "'kern' Horizontal Kerning in Latin lookup 0 per glyph data 1" three dx=0 dy=0 dh=-59 dv=0 dx=0 dy=0 dh=0 dv=0
PairPos2: "'kern' Horizontal Kerning in Latin lookup 0 per glyph data 1" two dx=0 dy=0 dh=-59 dv=0 dx=0 dy=0 dh=0 dv=0
PairPos2: "'kern' Horizontal Kerning in Latin lookup 0 per glyph data 1" one dx=0 dy=0 dh=-64 dv=0 dx=0 dy=0 dh=0 dv=0
PairPos2: "'kern' Horizontal Kerning in Latin lookup 0 per glyph data 1" zero dx=0 dy=0 dh=-66 dv=0 dx=0 dy=0 dh=0 dv=0
PairPos2: "'kern' Horizontal Kerning in Latin lookup 0 per glyph data 1" parenright dx=0 dy=0 dh=-64 dv=0 dx=0 dy=0 dh=0 dv=0
PairPos2: "'kern' Horizontal Kerning in Latin lookup 0 per glyph data 1" parenleft dx=0 dy=0 dh=-64 dv=0 dx=0 dy=0 dh=0 dv=0
PairPos2: "'kern' Horizontal Kerning in Latin lookup 0 per glyph data 1" exclam dx=0 dy=0 dh=-64 dv=0 dx=0 dy=0 dh=0 dv=0
EndChar

StartChar: four
Encoding: 52 52 23
Width: 601
GlyphClass: 2
Flags: W
LayerCount: 2
Fore
SplineSet
402 140 m 1,0,-1
 102 140 l 1,1,-1
 85 195 l 1,2,-1
 402 662 l 1,3,-1
 470 662 l 1,4,-1
 470 195 l 1,5,-1
 516 195 l 1,6,-1
 517 140 l 1,7,-1
 470 140 l 1,8,-1
 470 49 l 1,9,-1
 538 45 l 2,10,11
 538 44 538 44 538 22 c 2,12,-1
 537 0 l 1,13,-1
 337 -1 l 1,14,15
 337 38 337 38 338 43 c 1,16,-1
 390 50 l 2,17,18
 400 51 400 51 402 63 c 1,19,-1
 402 140 l 1,0,-1
402 195 m 1,20,-1
 402 562 l 1,21,-1
 152 195 l 1,22,-1
 402 195 l 1,20,-1
EndSplineSet
EndChar

StartChar: five
Encoding: 53 53 24
Width: 475
GlyphClass: 2
Flags: W
LayerCount: 2
Fore
SplineSet
421 201 m 0,0,1
 421 97 421 97 350 47 c 128,-1,2
 279 -3 279 -3 152 -3 c 0,3,4
 86 -3 86 -3 27 13 c 1,5,-1
 43 65 l 1,6,7
 83 52 83 52 146 52 c 0,8,9
 246 52 246 52 299.5 88.5 c 128,-1,10
 353 125 353 125 353 198 c 0,11,12
 353 262 353 262 314 287 c 0,13,14
 294 300 294 300 275.5 308 c 128,-1,15
 257 316 257 316 224 320 c 0,16,17
 183 324 183 324 120 324 c 2,18,-1
 109 324 l 1,19,-1
 129 662 l 1,20,-1
 415 662 l 1,21,-1
 428 518 l 1,22,-1
 378 510 l 1,23,-1
 366 607 l 1,24,-1
 192 607 l 1,25,-1
 178 369 l 1,26,27
 316 369 316 369 370 326 c 0,28,29
 391 308 391 308 406 276.5 c 128,-1,30
 421 245 421 245 421 201 c 0,0,1
EndSplineSet
PairPos2: "'kern' Horizontal Kerning in Latin lookup 0 per glyph data 1" dotlessi dx=0 dy=0 dh=-43 dv=0 dx=0 dy=0 dh=0 dv=0
PairPos2: "'kern' Horizontal Kerning in Latin lookup 0 per glyph data 1" thorn dx=0 dy=0 dh=-43 dv=0 dx=0 dy=0 dh=0 dv=0
PairPos2: "'kern' Horizontal Kerning in Latin lookup 0 per glyph data 1" ntilde dx=0 dy=0 dh=-43 dv=0 dx=0 dy=0 dh=0 dv=0
PairPos2: "'kern' Horizontal Kerning in Latin lookup 0 per glyph data 1" idieresis dx=0 dy=0 dh=-43 dv=0 dx=0 dy=0 dh=0 dv=0
PairPos2: "'kern' Horizontal Kerning in Latin lookup 0 per glyph data 1" icircumflex dx=0 dy=0 dh=-43 dv=0 dx=0 dy=0 dh=0 dv=0
PairPos2: "'kern' Horizontal Kerning in Latin lookup 0 per glyph data 1" iacute dx=0 dy=0 dh=-43 dv=0 dx=0 dy=0 dh=0 dv=0
PairPos2: "'kern' Horizontal Kerning in Latin lookup 0 per glyph data 1" igrave dx=0 dy=0 dh=-43 dv=0 dx=0 dy=0 dh=0 dv=0
PairPos2: "'kern' Horizontal Kerning in Latin lookup 0 per glyph data 1" germandbls dx=0 dy=0 dh=-43 dv=0 dx=0 dy=0 dh=0 dv=0
PairPos2: "'kern' Horizontal Kerning in Latin lookup 0 per glyph data 1" mu dx=0 dy=0 dh=-43 dv=0 dx=0 dy=0 dh=0 dv=0
PairPos2: "'kern' Horizontal Kerning in Latin lookup 0 per glyph data 1" brokenbar dx=0 dy=0 dh=-43 dv=0 dx=0 dy=0 dh=0 dv=0
PairPos2: "'kern' Horizontal Kerning in Latin lookup 0 per glyph data 1" exclamdown dx=0 dy=0 dh=-43 dv=0 dx=0 dy=0 dh=0 dv=0
PairPos2: "'kern' Horizontal Kerning in Latin lookup 0 per glyph data 1" bar dx=0 dy=0 dh=-43 dv=0 dx=0 dy=0 dh=0 dv=0
PairPos2: "'kern' Horizontal Kerning in Latin lookup 0 per glyph data 1" r dx=0 dy=0 dh=-43 dv=0 dx=0 dy=0 dh=0 dv=0
PairPos2: "'kern' Horizontal Kerning in Latin lookup 0 per glyph data 1" p dx=0 dy=0 dh=-43 dv=0 dx=0 dy=0 dh=0 dv=0
PairPos2: "'kern' Horizontal Kerning in Latin lookup 0 per glyph data 1" n dx=0 dy=0 dh=-43 dv=0 dx=0 dy=0 dh=0 dv=0
PairPos2: "'kern' Horizontal Kerning in Latin lookup 0 per glyph data 1" m dx=0 dy=0 dh=-43 dv=0 dx=0 dy=0 dh=0 dv=0
PairPos2: "'kern' Horizontal Kerning in Latin lookup 0 per glyph data 1" l dx=0 dy=0 dh=-43 dv=0 dx=0 dy=0 dh=0 dv=0
PairPos2: "'kern' Horizontal Kerning in Latin lookup 0 per glyph data 1" k dx=0 dy=0 dh=-43 dv=0 dx=0 dy=0 dh=0 dv=0
PairPos2: "'kern' Horizontal Kerning in Latin lookup 0 per glyph data 1" j dx=0 dy=0 dh=-43 dv=0 dx=0 dy=0 dh=0 dv=0
PairPos2: "'kern' Horizontal Kerning in Latin lookup 0 per glyph data 1" i dx=0 dy=0 dh=-43 dv=0 dx=0 dy=0 dh=0 dv=0
PairPos2: "'kern' Horizontal Kerning in Latin lookup 0 per glyph data 1" h dx=0 dy=0 dh=-43 dv=0 dx=0 dy=0 dh=0 dv=0
PairPos2: "'kern' Horizontal Kerning in Latin lookup 0 per glyph data 1" f dx=0 dy=0 dh=-43 dv=0 dx=0 dy=0 dh=0 dv=0
PairPos2: "'kern' Horizontal Kerning in Latin lookup 0 per glyph data 1" b dx=0 dy=0 dh=-43 dv=0 dx=0 dy=0 dh=0 dv=0
PairPos2: "'kern' Horizontal Kerning in Latin lookup 0 per glyph data 1" bracketright dx=0 dy=0 dh=-43 dv=0 dx=0 dy=0 dh=0 dv=0
PairPos2: "'kern' Horizontal Kerning in Latin lookup 0 per glyph data 1" bracketleft dx=0 dy=0 dh=-43 dv=0 dx=0 dy=0 dh=0 dv=0
PairPos2: "'kern' Horizontal Kerning in Latin lookup 0 per glyph data 1" nine dx=0 dy=0 dh=-29 dv=0 dx=0 dy=0 dh=0 dv=0
PairPos2: "'kern' Horizontal Kerning in Latin lookup 0 per glyph data 1" eight dx=0 dy=0 dh=-44 dv=0 dx=0 dy=0 dh=0 dv=0
PairPos2: "'kern' Horizontal Kerning in Latin lookup 0 per glyph data 1" seven dx=0 dy=0 dh=-37 dv=0 dx=0 dy=0 dh=0 dv=0
PairPos2: "'kern' Horizontal Kerning in Latin lookup 0 per glyph data 1" six dx=0 dy=0 dh=-15 dv=0 dx=0 dy=0 dh=0 dv=0
PairPos2: "'kern' Horizontal Kerning in Latin lookup 0 per glyph data 1" five dx=0 dy=0 dh=-37 dv=0 dx=0 dy=0 dh=0 dv=0
PairPos2: "'kern' Horizontal Kerning in Latin lookup 0 per glyph data 1" four dx=0 dy=0 dh=-45 dv=0 dx=0 dy=0 dh=0 dv=0
PairPos2: "'kern' Horizontal Kerning in Latin lookup 0 per glyph data 1" three dx=0 dy=0 dh=-68 dv=0 dx=0 dy=0 dh=0 dv=0
PairPos2: "'kern' Horizontal Kerning in Latin lookup 0 per glyph data 1" two dx=0 dy=0 dh=-58 dv=0 dx=0 dy=0 dh=0 dv=0
PairPos2: "'kern' Horizontal Kerning in Latin lookup 0 per glyph data 1" one dx=0 dy=0 dh=-43 dv=0 dx=0 dy=0 dh=0 dv=0
PairPos2: "'kern' Horizontal Kerning in Latin lookup 0 per glyph data 1" zero dx=0 dy=0 dh=-37 dv=0 dx=0 dy=0 dh=0 dv=0
PairPos2: "'kern' Horizontal Kerning in Latin lookup 0 per glyph data 1" parenright dx=0 dy=0 dh=-43 dv=0 dx=0 dy=0 dh=0 dv=0
PairPos2: "'kern' Horizontal Kerning in Latin lookup 0 per glyph data 1" parenleft dx=0 dy=0 dh=-43 dv=0 dx=0 dy=0 dh=0 dv=0
PairPos2: "'kern' Horizontal Kerning in Latin lookup 0 per glyph data 1" exclam dx=0 dy=0 dh=-43 dv=0 dx=0 dy=0 dh=0 dv=0
EndChar

StartChar: six
Encoding: 54 54 25
Width: 601
GlyphClass: 2
Flags: W
LayerCount: 2
Fore
SplineSet
437 326.5 m 128,-1,1
 481 282 481 282 481 195 c 128,-1,2
 481 108 481 108 421.5 52 c 128,-1,3
 362 -4 362 -4 270.5 -4 c 128,-1,4
 179 -4 179 -4 124.5 42 c 128,-1,5
 70 88 70 88 70 187 c 0,6,7
 70 245 70 245 89 302 c 128,-1,8
 108 359 108 359 136 402.5 c 128,-1,9
 164 446 164 446 204 488 c 128,-1,10
 244 530 244 530 277 557 c 128,-1,11
 310 584 310 584 350 610 c 0,12,13
 402 644 402 644 437 662 c 1,14,-1
 464 614 l 1,15,16
 463 613 463 613 445 603 c 128,-1,17
 427 593 427 593 408 581.5 c 128,-1,18
 389 570 389 570 360 549 c 128,-1,19
 331 528 331 528 304 506 c 0,20,21
 244 455 244 455 200 389 c 1,22,23
 284 387 284 387 321 382 c 0,24,0
 393 371 393 371 437 326.5 c 128,-1,1
170 334 m 1,25,26
 138 264 138 264 138 189.5 c 128,-1,27
 138 115 138 115 177 83 c 128,-1,28
 216 51 216 51 274 51 c 128,-1,29
 332 51 332 51 372.5 92.5 c 128,-1,30
 413 134 413 134 413 194 c 128,-1,31
 413 254 413 254 384 287 c 128,-1,32
 355 320 355 320 315.5 326 c 128,-1,33
 276 332 276 332 170 334 c 1,25,26
EndSplineSet
PairPos2: "'kern' Horizontal Kerning in Latin lookup 0 per glyph data 1" dotlessi dx=0 dy=0 dh=-93 dv=0 dx=0 dy=0 dh=0 dv=0
PairPos2: "'kern' Horizontal Kerning in Latin lookup 0 per glyph data 1" thorn dx=0 dy=0 dh=-93 dv=0 dx=0 dy=0 dh=0 dv=0
PairPos2: "'kern' Horizontal Kerning in Latin lookup 0 per glyph data 1" ntilde dx=0 dy=0 dh=-93 dv=0 dx=0 dy=0 dh=0 dv=0
PairPos2: "'kern' Horizontal Kerning in Latin lookup 0 per glyph data 1" idieresis dx=0 dy=0 dh=-93 dv=0 dx=0 dy=0 dh=0 dv=0
PairPos2: "'kern' Horizontal Kerning in Latin lookup 0 per glyph data 1" icircumflex dx=0 dy=0 dh=-93 dv=0 dx=0 dy=0 dh=0 dv=0
PairPos2: "'kern' Horizontal Kerning in Latin lookup 0 per glyph data 1" iacute dx=0 dy=0 dh=-93 dv=0 dx=0 dy=0 dh=0 dv=0
PairPos2: "'kern' Horizontal Kerning in Latin lookup 0 per glyph data 1" igrave dx=0 dy=0 dh=-93 dv=0 dx=0 dy=0 dh=0 dv=0
PairPos2: "'kern' Horizontal Kerning in Latin lookup 0 per glyph data 1" germandbls dx=0 dy=0 dh=-93 dv=0 dx=0 dy=0 dh=0 dv=0
PairPos2: "'kern' Horizontal Kerning in Latin lookup 0 per glyph data 1" mu dx=0 dy=0 dh=-93 dv=0 dx=0 dy=0 dh=0 dv=0
PairPos2: "'kern' Horizontal Kerning in Latin lookup 0 per glyph data 1" brokenbar dx=0 dy=0 dh=-93 dv=0 dx=0 dy=0 dh=0 dv=0
PairPos2: "'kern' Horizontal Kerning in Latin lookup 0 per glyph data 1" exclamdown dx=0 dy=0 dh=-93 dv=0 dx=0 dy=0 dh=0 dv=0
PairPos2: "'kern' Horizontal Kerning in Latin lookup 0 per glyph data 1" bar dx=0 dy=0 dh=-93 dv=0 dx=0 dy=0 dh=0 dv=0
PairPos2: "'kern' Horizontal Kerning in Latin lookup 0 per glyph data 1" r dx=0 dy=0 dh=-93 dv=0 dx=0 dy=0 dh=0 dv=0
PairPos2: "'kern' Horizontal Kerning in Latin lookup 0 per glyph data 1" p dx=0 dy=0 dh=-93 dv=0 dx=0 dy=0 dh=0 dv=0
PairPos2: "'kern' Horizontal Kerning in Latin lookup 0 per glyph data 1" n dx=0 dy=0 dh=-93 dv=0 dx=0 dy=0 dh=0 dv=0
PairPos2: "'kern' Horizontal Kerning in Latin lookup 0 per glyph data 1" m dx=0 dy=0 dh=-93 dv=0 dx=0 dy=0 dh=0 dv=0
PairPos2: "'kern' Horizontal Kerning in Latin lookup 0 per glyph data 1" l dx=0 dy=0 dh=-93 dv=0 dx=0 dy=0 dh=0 dv=0
PairPos2: "'kern' Horizontal Kerning in Latin lookup 0 per glyph data 1" k dx=0 dy=0 dh=-93 dv=0 dx=0 dy=0 dh=0 dv=0
PairPos2: "'kern' Horizontal Kerning in Latin lookup 0 per glyph data 1" j dx=0 dy=0 dh=-93 dv=0 dx=0 dy=0 dh=0 dv=0
PairPos2: "'kern' Horizontal Kerning in Latin lookup 0 per glyph data 1" i dx=0 dy=0 dh=-93 dv=0 dx=0 dy=0 dh=0 dv=0
PairPos2: "'kern' Horizontal Kerning in Latin lookup 0 per glyph data 1" h dx=0 dy=0 dh=-93 dv=0 dx=0 dy=0 dh=0 dv=0
PairPos2: "'kern' Horizontal Kerning in Latin lookup 0 per glyph data 1" f dx=0 dy=0 dh=-93 dv=0 dx=0 dy=0 dh=0 dv=0
PairPos2: "'kern' Horizontal Kerning in Latin lookup 0 per glyph data 1" b dx=0 dy=0 dh=-93 dv=0 dx=0 dy=0 dh=0 dv=0
PairPos2: "'kern' Horizontal Kerning in Latin lookup 0 per glyph data 1" bracketright dx=0 dy=0 dh=-93 dv=0 dx=0 dy=0 dh=0 dv=0
PairPos2: "'kern' Horizontal Kerning in Latin lookup 0 per glyph data 1" bracketleft dx=0 dy=0 dh=-93 dv=0 dx=0 dy=0 dh=0 dv=0
PairPos2: "'kern' Horizontal Kerning in Latin lookup 0 per glyph data 1" nine dx=0 dy=0 dh=-89 dv=0 dx=0 dy=0 dh=0 dv=0
PairPos2: "'kern' Horizontal Kerning in Latin lookup 0 per glyph data 1" eight dx=0 dy=0 dh=-89 dv=0 dx=0 dy=0 dh=0 dv=0
PairPos2: "'kern' Horizontal Kerning in Latin lookup 0 per glyph data 1" seven dx=0 dy=0 dh=-96 dv=0 dx=0 dy=0 dh=0 dv=0
PairPos2: "'kern' Horizontal Kerning in Latin lookup 0 per glyph data 1" six dx=0 dy=0 dh=-81 dv=0 dx=0 dy=0 dh=0 dv=0
PairPos2: "'kern' Horizontal Kerning in Latin lookup 0 per glyph data 1" five dx=0 dy=0 dh=-73 dv=0 dx=0 dy=0 dh=0 dv=0
PairPos2: "'kern' Horizontal Kerning in Latin lookup 0 per glyph data 1" four dx=0 dy=0 dh=-103 dv=0 dx=0 dy=0 dh=0 dv=0
PairPos2: "'kern' Horizontal Kerning in Latin lookup 0 per glyph data 1" three dx=0 dy=0 dh=-96 dv=0 dx=0 dy=0 dh=0 dv=0
PairPos2: "'kern' Horizontal Kerning in Latin lookup 0 per glyph data 1" two dx=0 dy=0 dh=-88 dv=0 dx=0 dy=0 dh=0 dv=0
PairPos2: "'kern' Horizontal Kerning in Latin lookup 0 per glyph data 1" one dx=0 dy=0 dh=-93 dv=0 dx=0 dy=0 dh=0 dv=0
PairPos2: "'kern' Horizontal Kerning in Latin lookup 0 per glyph data 1" zero dx=0 dy=0 dh=-96 dv=0 dx=0 dy=0 dh=0 dv=0
PairPos2: "'kern' Horizontal Kerning in Latin lookup 0 per glyph data 1" parenright dx=0 dy=0 dh=-93 dv=0 dx=0 dy=0 dh=0 dv=0
PairPos2: "'kern' Horizontal Kerning in Latin lookup 0 per glyph data 1" parenleft dx=0 dy=0 dh=-93 dv=0 dx=0 dy=0 dh=0 dv=0
PairPos2: "'kern' Horizontal Kerning in Latin lookup 0 per glyph data 1" exclam dx=0 dy=0 dh=-93 dv=0 dx=0 dy=0 dh=0 dv=0
EndChar

StartChar: seven
Encoding: 55 55 26
Width: 564
GlyphClass: 2
Flags: W
LayerCount: 2
Fore
SplineSet
157 0 m 1,0,-1
 409 607 l 1,1,-1
 139 607 l 1,2,-1
 127 510 l 1,3,-1
 78 518 l 1,4,-1
 90 662 l 1,5,-1
 461 662 l 1,6,-1
 475 607 l 1,7,-1
 223 0 l 1,8,-1
 157 0 l 1,0,-1
EndSplineSet
EndChar

StartChar: eight
Encoding: 56 56 27
Width: 613
GlyphClass: 2
Flags: W
LayerCount: 2
Fore
SplineSet
532 173 m 0,0,1
 532 132 532 132 514.5 99 c 128,-1,2
 497 66 497 66 474.5 45.5 c 128,-1,3
 452 25 452 25 408.5 10.5 c 128,-1,4
 365 -4 365 -4 308 -4 c 128,-1,5
 251 -4 251 -4 208 10.5 c 128,-1,6
 165 25 165 25 142.5 45.5 c 128,-1,7
 120 66 120 66 106 92 c 1,8,9
 86 133 86 133 86 173 c 0,10,11
 86 248 86 248 114.5 293.5 c 128,-1,12
 143 339 143 339 199 382 c 1,13,14
 124 423 124 423 124 518 c 0,15,16
 124 597 124 597 176 631.5 c 128,-1,17
 228 666 228 666 308 666 c 0,18,19
 494 666 494 666 494 518 c 0,20,21
 494 428 494 428 417 367 c 1,22,23
 471 344 471 344 501.5 299.5 c 128,-1,24
 532 255 532 255 532 173 c 0,0,1
151 173 m 0,25,26
 151 138 151 138 166 113 c 128,-1,27
 181 88 181 88 199.5 76 c 128,-1,28
 218 64 218 64 244 58 c 0,29,30
 278 49 278 49 318.5 49 c 128,-1,31
 359 49 359 49 394 64 c 128,-1,32
 429 79 429 79 443 102 c 0,33,34
 467 141 467 141 467 176 c 128,-1,35
 467 211 467 211 456 239.5 c 128,-1,36
 445 268 445 268 430.5 284.5 c 128,-1,37
 416 301 416 301 389.5 315 c 128,-1,38
 363 329 363 329 343 335 c 128,-1,39
 323 341 323 341 289.5 350 c 128,-1,40
 256 359 256 359 239 365 c 1,41,42
 151 291 151 291 151 173 c 0,25,26
417 471 m 1,43,44
 426 496 426 496 426 515.5 c 128,-1,45
 426 535 426 535 425 545 c 1,46,47
 407 613 407 613 308 613 c 0,48,49
 270 613 270 613 243.5 602 c 128,-1,50
 217 591 217 591 206 574 c 0,51,52
 189 546 189 546 189 520 c 128,-1,53
 189 494 189 494 197.5 474.5 c 128,-1,54
 206 455 206 455 216 443.5 c 128,-1,55
 226 432 226 432 248.5 421.5 c 128,-1,56
 271 411 271 411 284.5 407 c 128,-1,57
 298 403 298 403 329 395 c 128,-1,58
 360 387 360 387 373 383 c 1,59,60
 408 418 408 418 417 471 c 1,43,44
EndSplineSet
PairPos2: "'kern' Horizontal Kerning in Latin lookup 0 per glyph data 1" dotlessi dx=0 dy=0 dh=-79 dv=0 dx=0 dy=0 dh=0 dv=0
PairPos2: "'kern' Horizontal Kerning in Latin lookup 0 per glyph data 1" thorn dx=0 dy=0 dh=-79 dv=0 dx=0 dy=0 dh=0 dv=0
PairPos2: "'kern' Horizontal Kerning in Latin lookup 0 per glyph data 1" ntilde dx=0 dy=0 dh=-79 dv=0 dx=0 dy=0 dh=0 dv=0
PairPos2: "'kern' Horizontal Kerning in Latin lookup 0 per glyph data 1" idieresis dx=0 dy=0 dh=-79 dv=0 dx=0 dy=0 dh=0 dv=0
PairPos2: "'kern' Horizontal Kerning in Latin lookup 0 per glyph data 1" icircumflex dx=0 dy=0 dh=-79 dv=0 dx=0 dy=0 dh=0 dv=0
PairPos2: "'kern' Horizontal Kerning in Latin lookup 0 per glyph data 1" iacute dx=0 dy=0 dh=-79 dv=0 dx=0 dy=0 dh=0 dv=0
PairPos2: "'kern' Horizontal Kerning in Latin lookup 0 per glyph data 1" igrave dx=0 dy=0 dh=-79 dv=0 dx=0 dy=0 dh=0 dv=0
PairPos2: "'kern' Horizontal Kerning in Latin lookup 0 per glyph data 1" germandbls dx=0 dy=0 dh=-79 dv=0 dx=0 dy=0 dh=0 dv=0
PairPos2: "'kern' Horizontal Kerning in Latin lookup 0 per glyph data 1" mu dx=0 dy=0 dh=-79 dv=0 dx=0 dy=0 dh=0 dv=0
PairPos2: "'kern' Horizontal Kerning in Latin lookup 0 per glyph data 1" brokenbar dx=0 dy=0 dh=-79 dv=0 dx=0 dy=0 dh=0 dv=0
PairPos2: "'kern' Horizontal Kerning in Latin lookup 0 per glyph data 1" exclamdown dx=0 dy=0 dh=-79 dv=0 dx=0 dy=0 dh=0 dv=0
PairPos2: "'kern' Horizontal Kerning in Latin lookup 0 per glyph data 1" bar dx=0 dy=0 dh=-79 dv=0 dx=0 dy=0 dh=0 dv=0
PairPos2: "'kern' Horizontal Kerning in Latin lookup 0 per glyph data 1" r dx=0 dy=0 dh=-79 dv=0 dx=0 dy=0 dh=0 dv=0
PairPos2: "'kern' Horizontal Kerning in Latin lookup 0 per glyph data 1" p dx=0 dy=0 dh=-79 dv=0 dx=0 dy=0 dh=0 dv=0
PairPos2: "'kern' Horizontal Kerning in Latin lookup 0 per glyph data 1" n dx=0 dy=0 dh=-79 dv=0 dx=0 dy=0 dh=0 dv=0
PairPos2: "'kern' Horizontal Kerning in Latin lookup 0 per glyph data 1" m dx=0 dy=0 dh=-79 dv=0 dx=0 dy=0 dh=0 dv=0
PairPos2: "'kern' Horizontal Kerning in Latin lookup 0 per glyph data 1" l dx=0 dy=0 dh=-79 dv=0 dx=0 dy=0 dh=0 dv=0
PairPos2: "'kern' Horizontal Kerning in Latin lookup 0 per glyph data 1" k dx=0 dy=0 dh=-79 dv=0 dx=0 dy=0 dh=0 dv=0
PairPos2: "'kern' Horizontal Kerning in Latin lookup 0 per glyph data 1" j dx=0 dy=0 dh=-79 dv=0 dx=0 dy=0 dh=0 dv=0
PairPos2: "'kern' Horizontal Kerning in Latin lookup 0 per glyph data 1" i dx=0 dy=0 dh=-79 dv=0 dx=0 dy=0 dh=0 dv=0
PairPos2: "'kern' Horizontal Kerning in Latin lookup 0 per glyph data 1" h dx=0 dy=0 dh=-79 dv=0 dx=0 dy=0 dh=0 dv=0
PairPos2: "'kern' Horizontal Kerning in Latin lookup 0 per glyph data 1" f dx=0 dy=0 dh=-79 dv=0 dx=0 dy=0 dh=0 dv=0
PairPos2: "'kern' Horizontal Kerning in Latin lookup 0 per glyph data 1" b dx=0 dy=0 dh=-79 dv=0 dx=0 dy=0 dh=0 dv=0
PairPos2: "'kern' Horizontal Kerning in Latin lookup 0 per glyph data 1" bracketright dx=0 dy=0 dh=-79 dv=0 dx=0 dy=0 dh=0 dv=0
PairPos2: "'kern' Horizontal Kerning in Latin lookup 0 per glyph data 1" bracketleft dx=0 dy=0 dh=-79 dv=0 dx=0 dy=0 dh=0 dv=0
PairPos2: "'kern' Horizontal Kerning in Latin lookup 0 per glyph data 1" nine dx=0 dy=0 dh=-64 dv=0 dx=0 dy=0 dh=0 dv=0
PairPos2: "'kern' Horizontal Kerning in Latin lookup 0 per glyph data 1" eight dx=0 dy=0 dh=-82 dv=0 dx=0 dy=0 dh=0 dv=0
PairPos2: "'kern' Horizontal Kerning in Latin lookup 0 per glyph data 1" seven dx=0 dy=0 dh=-89 dv=0 dx=0 dy=0 dh=0 dv=0
PairPos2: "'kern' Horizontal Kerning in Latin lookup 0 per glyph data 1" six dx=0 dy=0 dh=-66 dv=0 dx=0 dy=0 dh=0 dv=0
PairPos2: "'kern' Horizontal Kerning in Latin lookup 0 per glyph data 1" five dx=0 dy=0 dh=-59 dv=0 dx=0 dy=0 dh=0 dv=0
PairPos2: "'kern' Horizontal Kerning in Latin lookup 0 per glyph data 1" four dx=0 dy=0 dh=-74 dv=0 dx=0 dy=0 dh=0 dv=0
PairPos2: "'kern' Horizontal Kerning in Latin lookup 0 per glyph data 1" three dx=0 dy=0 dh=-66 dv=0 dx=0 dy=0 dh=0 dv=0
PairPos2: "'kern' Horizontal Kerning in Latin lookup 0 per glyph data 1" two dx=0 dy=0 dh=-73 dv=0 dx=0 dy=0 dh=0 dv=0
PairPos2: "'kern' Horizontal Kerning in Latin lookup 0 per glyph data 1" one dx=0 dy=0 dh=-79 dv=0 dx=0 dy=0 dh=0 dv=0
PairPos2: "'kern' Horizontal Kerning in Latin lookup 0 per glyph data 1" zero dx=0 dy=0 dh=-88 dv=0 dx=0 dy=0 dh=0 dv=0
PairPos2: "'kern' Horizontal Kerning in Latin lookup 0 per glyph data 1" parenright dx=0 dy=0 dh=-79 dv=0 dx=0 dy=0 dh=0 dv=0
PairPos2: "'kern' Horizontal Kerning in Latin lookup 0 per glyph data 1" parenleft dx=0 dy=0 dh=-79 dv=0 dx=0 dy=0 dh=0 dv=0
PairPos2: "'kern' Horizontal Kerning in Latin lookup 0 per glyph data 1" exclam dx=0 dy=0 dh=-79 dv=0 dx=0 dy=0 dh=0 dv=0
EndChar

StartChar: nine
Encoding: 57 57 28
Width: 601
GlyphClass: 2
Flags: W
LayerCount: 2
Fore
SplineSet
114 331.5 m 128,-1,1
 70 376 70 376 70 463 c 128,-1,2
 70 550 70 550 129.5 606 c 128,-1,3
 189 662 189 662 280.5 662 c 128,-1,4
 372 662 372 662 426.5 616 c 128,-1,5
 481 570 481 570 481 471 c 0,6,7
 481 413 481 413 462 356 c 128,-1,8
 443 299 443 299 415 255.5 c 128,-1,9
 387 212 387 212 347 170 c 128,-1,10
 307 128 307 128 274 101 c 128,-1,11
 241 74 241 74 202 48 c 0,12,13
 149 14 149 14 114 -4 c 1,14,-1
 86 44 l 1,15,16
 98 44 98 44 153.5 82.5 c 128,-1,17
 209 121 209 121 231.5 139.5 c 128,-1,18
 254 158 254 158 274 177 c 0,19,20
 320 223 320 223 350 269 c 1,21,22
 271 269 271 269 230 276 c 0,23,0
 158 287 158 287 114 331.5 c 128,-1,1
381 324 m 1,24,25
 413 393 413 393 413 467.5 c 128,-1,26
 413 542 413 542 374 574.5 c 128,-1,27
 335 607 335 607 276.5 607 c 128,-1,28
 218 607 218 607 178 565.5 c 128,-1,29
 138 524 138 524 138 464 c 128,-1,30
 138 404 138 404 167 370.5 c 128,-1,31
 196 337 196 337 242 331 c 1,32,33
 278 324 278 324 381 324 c 1,24,25
EndSplineSet
PairPos2: "'kern' Horizontal Kerning in Latin lookup 0 per glyph data 1" dotlessi dx=0 dy=0 dh=-93 dv=0 dx=0 dy=0 dh=0 dv=0
PairPos2: "'kern' Horizontal Kerning in Latin lookup 0 per glyph data 1" thorn dx=0 dy=0 dh=-93 dv=0 dx=0 dy=0 dh=0 dv=0
PairPos2: "'kern' Horizontal Kerning in Latin lookup 0 per glyph data 1" ntilde dx=0 dy=0 dh=-93 dv=0 dx=0 dy=0 dh=0 dv=0
PairPos2: "'kern' Horizontal Kerning in Latin lookup 0 per glyph data 1" idieresis dx=0 dy=0 dh=-93 dv=0 dx=0 dy=0 dh=0 dv=0
PairPos2: "'kern' Horizontal Kerning in Latin lookup 0 per glyph data 1" icircumflex dx=0 dy=0 dh=-93 dv=0 dx=0 dy=0 dh=0 dv=0
PairPos2: "'kern' Horizontal Kerning in Latin lookup 0 per glyph data 1" iacute dx=0 dy=0 dh=-93 dv=0 dx=0 dy=0 dh=0 dv=0
PairPos2: "'kern' Horizontal Kerning in Latin lookup 0 per glyph data 1" igrave dx=0 dy=0 dh=-93 dv=0 dx=0 dy=0 dh=0 dv=0
PairPos2: "'kern' Horizontal Kerning in Latin lookup 0 per glyph data 1" germandbls dx=0 dy=0 dh=-93 dv=0 dx=0 dy=0 dh=0 dv=0
PairPos2: "'kern' Horizontal Kerning in Latin lookup 0 per glyph data 1" mu dx=0 dy=0 dh=-93 dv=0 dx=0 dy=0 dh=0 dv=0
PairPos2: "'kern' Horizontal Kerning in Latin lookup 0 per glyph data 1" brokenbar dx=0 dy=0 dh=-93 dv=0 dx=0 dy=0 dh=0 dv=0
PairPos2: "'kern' Horizontal Kerning in Latin lookup 0 per glyph data 1" exclamdown dx=0 dy=0 dh=-93 dv=0 dx=0 dy=0 dh=0 dv=0
PairPos2: "'kern' Horizontal Kerning in Latin lookup 0 per glyph data 1" bar dx=0 dy=0 dh=-93 dv=0 dx=0 dy=0 dh=0 dv=0
PairPos2: "'kern' Horizontal Kerning in Latin lookup 0 per glyph data 1" r dx=0 dy=0 dh=-93 dv=0 dx=0 dy=0 dh=0 dv=0
PairPos2: "'kern' Horizontal Kerning in Latin lookup 0 per glyph data 1" p dx=0 dy=0 dh=-93 dv=0 dx=0 dy=0 dh=0 dv=0
PairPos2: "'kern' Horizontal Kerning in Latin lookup 0 per glyph data 1" n dx=0 dy=0 dh=-93 dv=0 dx=0 dy=0 dh=0 dv=0
PairPos2: "'kern' Horizontal Kerning in Latin lookup 0 per glyph data 1" m dx=0 dy=0 dh=-93 dv=0 dx=0 dy=0 dh=0 dv=0
PairPos2: "'kern' Horizontal Kerning in Latin lookup 0 per glyph data 1" l dx=0 dy=0 dh=-93 dv=0 dx=0 dy=0 dh=0 dv=0
PairPos2: "'kern' Horizontal Kerning in Latin lookup 0 per glyph data 1" k dx=0 dy=0 dh=-93 dv=0 dx=0 dy=0 dh=0 dv=0
PairPos2: "'kern' Horizontal Kerning in Latin lookup 0 per glyph data 1" j dx=0 dy=0 dh=-93 dv=0 dx=0 dy=0 dh=0 dv=0
PairPos2: "'kern' Horizontal Kerning in Latin lookup 0 per glyph data 1" i dx=0 dy=0 dh=-93 dv=0 dx=0 dy=0 dh=0 dv=0
PairPos2: "'kern' Horizontal Kerning in Latin lookup 0 per glyph data 1" h dx=0 dy=0 dh=-93 dv=0 dx=0 dy=0 dh=0 dv=0
PairPos2: "'kern' Horizontal Kerning in Latin lookup 0 per glyph data 1" f dx=0 dy=0 dh=-93 dv=0 dx=0 dy=0 dh=0 dv=0
PairPos2: "'kern' Horizontal Kerning in Latin lookup 0 per glyph data 1" b dx=0 dy=0 dh=-93 dv=0 dx=0 dy=0 dh=0 dv=0
PairPos2: "'kern' Horizontal Kerning in Latin lookup 0 per glyph data 1" bracketright dx=0 dy=0 dh=-93 dv=0 dx=0 dy=0 dh=0 dv=0
PairPos2: "'kern' Horizontal Kerning in Latin lookup 0 per glyph data 1" bracketleft dx=0 dy=0 dh=-93 dv=0 dx=0 dy=0 dh=0 dv=0
PairPos2: "'kern' Horizontal Kerning in Latin lookup 0 per glyph data 1" nine dx=0 dy=0 dh=-103 dv=0 dx=0 dy=0 dh=0 dv=0
PairPos2: "'kern' Horizontal Kerning in Latin lookup 0 per glyph data 1" eight dx=0 dy=0 dh=-133 dv=0 dx=0 dy=0 dh=0 dv=0
PairPos2: "'kern' Horizontal Kerning in Latin lookup 0 per glyph data 1" seven dx=0 dy=0 dh=-126 dv=0 dx=0 dy=0 dh=0 dv=0
PairPos2: "'kern' Horizontal Kerning in Latin lookup 0 per glyph data 1" six dx=0 dy=0 dh=-125 dv=0 dx=0 dy=0 dh=0 dv=0
PairPos2: "'kern' Horizontal Kerning in Latin lookup 0 per glyph data 1" five dx=0 dy=0 dh=-104 dv=0 dx=0 dy=0 dh=0 dv=0
PairPos2: "'kern' Horizontal Kerning in Latin lookup 0 per glyph data 1" four dx=0 dy=0 dh=-126 dv=0 dx=0 dy=0 dh=0 dv=0
PairPos2: "'kern' Horizontal Kerning in Latin lookup 0 per glyph data 1" three dx=0 dy=0 dh=-133 dv=0 dx=0 dy=0 dh=0 dv=0
PairPos2: "'kern' Horizontal Kerning in Latin lookup 0 per glyph data 1" two dx=0 dy=0 dh=-125 dv=0 dx=0 dy=0 dh=0 dv=0
PairPos2: "'kern' Horizontal Kerning in Latin lookup 0 per glyph data 1" one dx=0 dy=0 dh=-93 dv=0 dx=0 dy=0 dh=0 dv=0
PairPos2: "'kern' Horizontal Kerning in Latin lookup 0 per glyph data 1" zero dx=0 dy=0 dh=-103 dv=0 dx=0 dy=0 dh=0 dv=0
PairPos2: "'kern' Horizontal Kerning in Latin lookup 0 per glyph data 1" parenright dx=0 dy=0 dh=-93 dv=0 dx=0 dy=0 dh=0 dv=0
PairPos2: "'kern' Horizontal Kerning in Latin lookup 0 per glyph data 1" parenleft dx=0 dy=0 dh=-93 dv=0 dx=0 dy=0 dh=0 dv=0
PairPos2: "'kern' Horizontal Kerning in Latin lookup 0 per glyph data 1" exclam dx=0 dy=0 dh=-93 dv=0 dx=0 dy=0 dh=0 dv=0
EndChar

StartChar: colon
Encoding: 58 58 29
Width: 250
GlyphClass: 2
Flags: W
LayerCount: 2
Fore
SplineSet
79 29 m 0,0,1
 79 48 79 48 88.5 59 c 128,-1,2
 98 70 98 70 114 70 c 0,3,4
 149 70 149 70 149 29 c 0,5,6
 149 12 149 12 139 2 c 128,-1,7
 129 -8 129 -8 114 -8 c 0,8,9
 79 -8 79 -8 79 29 c 0,0,1
79 432 m 0,10,11
 79 451 79 451 88.5 462 c 128,-1,12
 98 473 98 473 114 473 c 0,13,14
 149 473 149 473 149 432 c 0,15,16
 149 415 149 415 139 405 c 128,-1,17
 129 395 129 395 114 395 c 0,18,19
 79 395 79 395 79 432 c 0,10,11
EndSplineSet
EndChar

StartChar: semicolon
Encoding: 59 59 30
Width: 232
GlyphClass: 2
Flags: W
LayerCount: 2
Fore
SplineSet
79 432 m 0,0,1
 79 451 79 451 88.5 462 c 128,-1,2
 98 473 98 473 114 473 c 0,3,4
 149 473 149 473 149 432 c 0,5,6
 149 415 149 415 139 405 c 128,-1,7
 129 395 129 395 114 395 c 0,8,9
 79 395 79 395 79 432 c 0,0,1
127 64 m 1,10,11
 127 26 127 26 119 -18 c 0,12,13
 115 -39 115 -39 111.5 -58 c 128,-1,14
 108 -77 108 -77 106 -90 c 1,15,-1
 103 -102 l 1,16,-1
 68 -102 l 1,17,-1
 70 -90 l 2,18,19
 73 -77 73 -77 76.5 -58 c 128,-1,20
 80 -39 80 -39 86 -6.5 c 128,-1,21
 92 26 92 26 92 64 c 1,22,-1
 127 64 l 1,10,11
EndSplineSet
EndChar

StartChar: less
Encoding: 60 60 31
Width: 569
GlyphClass: 2
Flags: W
LayerCount: 2
Fore
SplineSet
100 300 m 1,0,-1
 452 500 l 1,1,-1
 455 448 l 1,2,-1
 181 299 l 1,3,4
 273 251 273 251 455 153 c 1,5,-1
 452 100 l 1,6,-1
 100 300 l 1,0,-1
EndSplineSet
EndChar

StartChar: equal
Encoding: 61 61 32
Width: 739
GlyphClass: 2
Flags: W
LayerCount: 2
Fore
SplineSet
146 383 m 1,0,-1
 600 383 l 1,1,-1
 600 325 l 1,2,-1
 146 325 l 1,3,-1
 146 383 l 1,0,-1
146 161 m 1,4,-1
 600 161 l 1,5,-1
 600 103 l 1,6,-1
 146 103 l 1,7,-1
 146 161 l 1,4,-1
EndSplineSet
EndChar

StartChar: greater
Encoding: 62 62 33
Width: 569
GlyphClass: 2
Flags: W
LayerCount: 2
Fore
SplineSet
103 100 m 1,0,-1
 100 153 l 1,1,2
 282 251 282 251 373 299 c 1,3,-1
 100 448 l 1,4,-1
 103 500 l 1,5,-1
 455 300 l 1,6,-1
 103 100 l 1,0,-1
EndSplineSet
EndChar

StartChar: question
Encoding: 63 63 34
Width: 500
GlyphClass: 2
Flags: W
LayerCount: 2
Fore
SplineSet
237 700 m 0,0,1
 316 700 316 700 364.5 658 c 128,-1,2
 413 616 413 616 414 552 c 0,3,4
 414 509 414 509 385 469 c 128,-1,5
 356 429 356 429 282 355 c 1,6,7
 185 260 185 260 185 128 c 1,8,-1
 140 128 l 1,9,10
 140 278 140 278 222.5 364.5 c 128,-1,11
 305 451 305 451 327 483.5 c 128,-1,12
 349 516 349 516 348.5 554.5 c 128,-1,13
 348 593 348 593 318 620 c 0,14,15
 286 648 286 648 231 648 c 0,16,17
 198 648 198 648 160.5 636.5 c 128,-1,18
 123 625 123 625 102 612 c 2,19,-1
 81 599 l 1,20,-1
 58 638 l 1,21,22
 66 645 66 645 81 655.5 c 128,-1,23
 96 666 96 666 143 683 c 128,-1,24
 190 700 190 700 237 700 c 0,0,1
127 6 m 0,25,26
 127 26 127 26 137.5 37.5 c 128,-1,27
 148 49 148 49 165 49 c 0,28,29
 203 49 203 49 203 6 c 0,30,31
 203 -12 203 -12 192.5 -23 c 128,-1,32
 182 -34 182 -34 165 -34 c 0,33,34
 127 -34 127 -34 127 6 c 0,25,26
EndSplineSet
EndChar

StartChar: at
Encoding: 64 64 35
Width: 1070
GlyphClass: 2
Flags: W
LayerCount: 2
Fore
SplineSet
758 16 m 0,0,1
 809 16 809 16 858.5 79.5 c 128,-1,2
 908 143 908 143 908 252 c 128,-1,3
 908 361 908 361 878 440 c 128,-1,4
 848 519 848 519 796 566 c 1,5,6
 692 657 692 657 531 657 c 128,-1,7
 370 657 370 657 260 535 c 128,-1,8
 150 413 150 413 150 233 c 0,9,10
 150 131 150 131 179.5 54 c 128,-1,11
 209 -23 209 -23 262 -68 c 0,12,13
 365 -157 365 -157 530 -157 c 0,14,15
 604 -157 604 -157 675 -125 c 1,16,-1
 704 -175 l 1,17,18
 633 -215 633 -215 523 -215 c 0,19,20
 288 -215 288 -215 170 -61 c 0,21,22
 85 50 85 50 85 247.5 c 128,-1,23
 85 445 85 445 214.5 580 c 128,-1,24
 344 715 344 715 536 715 c 0,25,26
 721 715 721 715 844 606 c 0,27,28
 904 553 904 553 938.5 465.5 c 128,-1,29
 973 378 973 378 973 284 c 128,-1,30
 973 190 973 190 951.5 129.5 c 128,-1,31
 930 69 930 69 896 34 c 1,32,33
 828 -39 828 -39 750 -39 c 0,34,35
 711 -39 711 -39 685 -18.5 c 128,-1,36
 659 2 659 2 655 38 c 1,37,38
 567 -4 567 -4 480 -4 c 0,39,40
 347 -4 347 -4 339 101 c 0,41,42
 338 108 338 108 338 115 c 0,43,44
 338 199 338 199 439 227 c 1,45,46
 495 241 495 241 655 259 c 1,47,-1
 655 336 l 2,48,49
 655 445 655 445 541 445 c 1,50,51
 481 444 481 444 405 420 c 1,52,-1
 401 334 l 1,53,-1
 352 329 l 1,54,-1
 352 445 l 1,55,-1
 350 450 l 1,56,-1
 360 454 l 1,57,58
 438 488 438 488 479 495 c 128,-1,59
 520 502 520 502 539 502.5 c 128,-1,60
 558 503 558 503 575.5 502 c 128,-1,61
 593 501 593 501 621 493 c 128,-1,62
 649 485 649 485 669.5 470.5 c 128,-1,63
 690 456 690 456 705 427 c 128,-1,64
 720 398 720 398 720 358 c 2,65,-1
 720 47 l 1,66,67
 723 16 723 16 758 16 c 0,0,1
498 42 m 0,68,69
 574 42 574 42 655 76 c 1,70,-1
 655 219 l 1,71,72
 505 214 505 214 461 199 c 1,73,74
 427 190 427 190 413 166.5 c 128,-1,75
 399 143 399 143 399 129 c 128,-1,76
 399 115 399 115 399 110 c 0,77,78
 402 74 402 74 430 58 c 128,-1,79
 458 42 458 42 498 42 c 0,68,69
EndSplineSet
EndChar

StartChar: A
Encoding: 65 65 36
Width: 711
GlyphClass: 2
Flags: W
LayerCount: 2
Fore
SplineSet
488 0 m 1,0,-1
 488 55 l 1,1,-1
 549 55 l 1,2,-1
 503 185 l 1,3,-1
 195 185 l 1,4,-1
 150 55 l 1,5,-1
 222 55 l 1,6,-1
 222 0 l 1,7,-1
 20 0 l 1,8,-1
 20 55 l 1,9,-1
 86 55 l 1,10,-1
 319 700 l 1,11,-1
 380 700 l 1,12,-1
 621 55 l 1,13,-1
 690 55 l 1,14,-1
 690 0 l 1,15,-1
 488 0 l 1,0,-1
346 624 m 1,16,-1
 212 235 l 1,17,-1
 485 235 l 1,18,-1
 346 624 l 1,16,-1
EndSplineSet
EndChar

StartChar: B
Encoding: 66 66 37
Width: 547
GlyphClass: 2
Flags: W
LayerCount: 2
Fore
SplineSet
50 645 m 1,0,-1
 50 700 l 1,1,-1
 265 700 l 2,2,3
 481 700 481 700 481 531 c 0,4,5
 481 460 481 460 427 378 c 1,6,7
 522 339 522 339 522 207 c 0,8,9
 522 89 522 89 462.5 44.5 c 128,-1,10
 403 0 403 0 280 0 c 2,11,-1
 50 0 l 1,12,-1
 50 55 l 1,13,-1
 115 55 l 1,14,-1
 115 645 l 1,15,-1
 50 645 l 1,0,-1
300 343 m 2,16,-1
 183 343 l 1,17,-1
 183 55 l 1,18,-1
 275 55 l 2,19,20
 321 55 321 55 350 60 c 128,-1,21
 379 65 379 65 405 80 c 0,22,23
 454 107 454 107 454 203 c 0,24,25
 454 279 454 279 415.5 311 c 128,-1,26
 377 343 377 343 300 343 c 2,16,-1
305 398 m 2,27,28
 342 398 342 398 369 394 c 1,29,30
 413 463 413 463 413 525 c 0,31,32
 413 645 413 645 260 645 c 2,33,-1
 183 645 l 1,34,-1
 183 398 l 1,35,-1
 305 398 l 2,27,28
EndSplineSet
PairPos2: "'kern' Horizontal Kerning in Latin lookup 0 per glyph data 1" Ydieresis dx=0 dy=0 dh=-29 dv=0 dx=0 dy=0 dh=0 dv=0
PairPos2: "'kern' Horizontal Kerning in Latin lookup 0 per glyph data 1" oe dx=0 dy=0 dh=-15 dv=0 dx=0 dy=0 dh=0 dv=0
PairPos2: "'kern' Horizontal Kerning in Latin lookup 0 per glyph data 1" OE dx=0 dy=0 dh=-14 dv=0 dx=0 dy=0 dh=0 dv=0
PairPos2: "'kern' Horizontal Kerning in Latin lookup 0 per glyph data 1" dotlessi dx=0 dy=0 dh=-22 dv=0 dx=0 dy=0 dh=0 dv=0
PairPos2: "'kern' Horizontal Kerning in Latin lookup 0 per glyph data 1" ydieresis dx=0 dy=0 dh=-15 dv=0 dx=0 dy=0 dh=0 dv=0
PairPos2: "'kern' Horizontal Kerning in Latin lookup 0 per glyph data 1" thorn dx=0 dy=0 dh=-22 dv=0 dx=0 dy=0 dh=0 dv=0
PairPos2: "'kern' Horizontal Kerning in Latin lookup 0 per glyph data 1" yacute dx=0 dy=0 dh=-15 dv=0 dx=0 dy=0 dh=0 dv=0
PairPos2: "'kern' Horizontal Kerning in Latin lookup 0 per glyph data 1" udieresis dx=0 dy=0 dh=-15 dv=0 dx=0 dy=0 dh=0 dv=0
PairPos2: "'kern' Horizontal Kerning in Latin lookup 0 per glyph data 1" ucircumflex dx=0 dy=0 dh=-15 dv=0 dx=0 dy=0 dh=0 dv=0
PairPos2: "'kern' Horizontal Kerning in Latin lookup 0 per glyph data 1" uacute dx=0 dy=0 dh=-15 dv=0 dx=0 dy=0 dh=0 dv=0
PairPos2: "'kern' Horizontal Kerning in Latin lookup 0 per glyph data 1" ugrave dx=0 dy=0 dh=-15 dv=0 dx=0 dy=0 dh=0 dv=0
PairPos2: "'kern' Horizontal Kerning in Latin lookup 0 per glyph data 1" odieresis dx=0 dy=0 dh=-15 dv=0 dx=0 dy=0 dh=0 dv=0
PairPos2: "'kern' Horizontal Kerning in Latin lookup 0 per glyph data 1" otilde dx=0 dy=0 dh=-15 dv=0 dx=0 dy=0 dh=0 dv=0
PairPos2: "'kern' Horizontal Kerning in Latin lookup 0 per glyph data 1" ocircumflex dx=0 dy=0 dh=-15 dv=0 dx=0 dy=0 dh=0 dv=0
PairPos2: "'kern' Horizontal Kerning in Latin lookup 0 per glyph data 1" oacute dx=0 dy=0 dh=-15 dv=0 dx=0 dy=0 dh=0 dv=0
PairPos2: "'kern' Horizontal Kerning in Latin lookup 0 per glyph data 1" ograve dx=0 dy=0 dh=-15 dv=0 dx=0 dy=0 dh=0 dv=0
PairPos2: "'kern' Horizontal Kerning in Latin lookup 0 per glyph data 1" ntilde dx=0 dy=0 dh=-22 dv=0 dx=0 dy=0 dh=0 dv=0
PairPos2: "'kern' Horizontal Kerning in Latin lookup 0 per glyph data 1" eth dx=0 dy=0 dh=-15 dv=0 dx=0 dy=0 dh=0 dv=0
PairPos2: "'kern' Horizontal Kerning in Latin lookup 0 per glyph data 1" idieresis dx=0 dy=0 dh=-22 dv=0 dx=0 dy=0 dh=0 dv=0
PairPos2: "'kern' Horizontal Kerning in Latin lookup 0 per glyph data 1" icircumflex dx=0 dy=0 dh=-22 dv=0 dx=0 dy=0 dh=0 dv=0
PairPos2: "'kern' Horizontal Kerning in Latin lookup 0 per glyph data 1" iacute dx=0 dy=0 dh=-22 dv=0 dx=0 dy=0 dh=0 dv=0
PairPos2: "'kern' Horizontal Kerning in Latin lookup 0 per glyph data 1" igrave dx=0 dy=0 dh=-22 dv=0 dx=0 dy=0 dh=0 dv=0
PairPos2: "'kern' Horizontal Kerning in Latin lookup 0 per glyph data 1" edieresis dx=0 dy=0 dh=-25 dv=0 dx=0 dy=0 dh=0 dv=0
PairPos2: "'kern' Horizontal Kerning in Latin lookup 0 per glyph data 1" ecircumflex dx=0 dy=0 dh=-25 dv=0 dx=0 dy=0 dh=0 dv=0
PairPos2: "'kern' Horizontal Kerning in Latin lookup 0 per glyph data 1" eacute dx=0 dy=0 dh=-25 dv=0 dx=0 dy=0 dh=0 dv=0
PairPos2: "'kern' Horizontal Kerning in Latin lookup 0 per glyph data 1" egrave dx=0 dy=0 dh=-25 dv=0 dx=0 dy=0 dh=0 dv=0
PairPos2: "'kern' Horizontal Kerning in Latin lookup 0 per glyph data 1" ccedilla dx=0 dy=0 dh=-25 dv=0 dx=0 dy=0 dh=0 dv=0
PairPos2: "'kern' Horizontal Kerning in Latin lookup 0 per glyph data 1" germandbls dx=0 dy=0 dh=-22 dv=0 dx=0 dy=0 dh=0 dv=0
PairPos2: "'kern' Horizontal Kerning in Latin lookup 0 per glyph data 1" Thorn dx=0 dy=0 dh=-7 dv=0 dx=0 dy=0 dh=0 dv=0
PairPos2: "'kern' Horizontal Kerning in Latin lookup 0 per glyph data 1" Yacute dx=0 dy=0 dh=-29 dv=0 dx=0 dy=0 dh=0 dv=0
PairPos2: "'kern' Horizontal Kerning in Latin lookup 0 per glyph data 1" Udieresis dx=0 dy=0 dh=-5 dv=0 dx=0 dy=0 dh=0 dv=0
PairPos2: "'kern' Horizontal Kerning in Latin lookup 0 per glyph data 1" Ucircumflex dx=0 dy=0 dh=-5 dv=0 dx=0 dy=0 dh=0 dv=0
PairPos2: "'kern' Horizontal Kerning in Latin lookup 0 per glyph data 1" Uacute dx=0 dy=0 dh=-5 dv=0 dx=0 dy=0 dh=0 dv=0
PairPos2: "'kern' Horizontal Kerning in Latin lookup 0 per glyph data 1" Ugrave dx=0 dy=0 dh=-5 dv=0 dx=0 dy=0 dh=0 dv=0
PairPos2: "'kern' Horizontal Kerning in Latin lookup 0 per glyph data 1" Odieresis dx=0 dy=0 dh=-14 dv=0 dx=0 dy=0 dh=0 dv=0
PairPos2: "'kern' Horizontal Kerning in Latin lookup 0 per glyph data 1" Otilde dx=0 dy=0 dh=-14 dv=0 dx=0 dy=0 dh=0 dv=0
PairPos2: "'kern' Horizontal Kerning in Latin lookup 0 per glyph data 1" Ocircumflex dx=0 dy=0 dh=-14 dv=0 dx=0 dy=0 dh=0 dv=0
PairPos2: "'kern' Horizontal Kerning in Latin lookup 0 per glyph data 1" Oacute dx=0 dy=0 dh=-14 dv=0 dx=0 dy=0 dh=0 dv=0
PairPos2: "'kern' Horizontal Kerning in Latin lookup 0 per glyph data 1" Ograve dx=0 dy=0 dh=-14 dv=0 dx=0 dy=0 dh=0 dv=0
PairPos2: "'kern' Horizontal Kerning in Latin lookup 0 per glyph data 1" Ntilde dx=0 dy=0 dh=-7 dv=0 dx=0 dy=0 dh=0 dv=0
PairPos2: "'kern' Horizontal Kerning in Latin lookup 0 per glyph data 1" Idieresis dx=0 dy=0 dh=-7 dv=0 dx=0 dy=0 dh=0 dv=0
PairPos2: "'kern' Horizontal Kerning in Latin lookup 0 per glyph data 1" Icircumflex dx=0 dy=0 dh=-7 dv=0 dx=0 dy=0 dh=0 dv=0
PairPos2: "'kern' Horizontal Kerning in Latin lookup 0 per glyph data 1" Iacute dx=0 dy=0 dh=-7 dv=0 dx=0 dy=0 dh=0 dv=0
PairPos2: "'kern' Horizontal Kerning in Latin lookup 0 per glyph data 1" Igrave dx=0 dy=0 dh=-7 dv=0 dx=0 dy=0 dh=0 dv=0
PairPos2: "'kern' Horizontal Kerning in Latin lookup 0 per glyph data 1" Edieresis dx=0 dy=0 dh=-7 dv=0 dx=0 dy=0 dh=0 dv=0
PairPos2: "'kern' Horizontal Kerning in Latin lookup 0 per glyph data 1" Ecircumflex dx=0 dy=0 dh=-7 dv=0 dx=0 dy=0 dh=0 dv=0
PairPos2: "'kern' Horizontal Kerning in Latin lookup 0 per glyph data 1" Eacute dx=0 dy=0 dh=-7 dv=0 dx=0 dy=0 dh=0 dv=0
PairPos2: "'kern' Horizontal Kerning in Latin lookup 0 per glyph data 1" Egrave dx=0 dy=0 dh=-7 dv=0 dx=0 dy=0 dh=0 dv=0
PairPos2: "'kern' Horizontal Kerning in Latin lookup 0 per glyph data 1" Ccedilla dx=0 dy=0 dh=-14 dv=0 dx=0 dy=0 dh=0 dv=0
PairPos2: "'kern' Horizontal Kerning in Latin lookup 0 per glyph data 1" AE dx=0 dy=0 dh=-15 dv=0 dx=0 dy=0 dh=0 dv=0
PairPos2: "'kern' Horizontal Kerning in Latin lookup 0 per glyph data 1" Aring dx=0 dy=0 dh=-15 dv=0 dx=0 dy=0 dh=0 dv=0
PairPos2: "'kern' Horizontal Kerning in Latin lookup 0 per glyph data 1" Adieresis dx=0 dy=0 dh=-15 dv=0 dx=0 dy=0 dh=0 dv=0
PairPos2: "'kern' Horizontal Kerning in Latin lookup 0 per glyph data 1" Atilde dx=0 dy=0 dh=-15 dv=0 dx=0 dy=0 dh=0 dv=0
PairPos2: "'kern' Horizontal Kerning in Latin lookup 0 per glyph data 1" Acircumflex dx=0 dy=0 dh=-15 dv=0 dx=0 dy=0 dh=0 dv=0
PairPos2: "'kern' Horizontal Kerning in Latin lookup 0 per glyph data 1" Aacute dx=0 dy=0 dh=-15 dv=0 dx=0 dy=0 dh=0 dv=0
PairPos2: "'kern' Horizontal Kerning in Latin lookup 0 per glyph data 1" Agrave dx=0 dy=0 dh=-15 dv=0 dx=0 dy=0 dh=0 dv=0
PairPos2: "'kern' Horizontal Kerning in Latin lookup 0 per glyph data 1" mu dx=0 dy=0 dh=-22 dv=0 dx=0 dy=0 dh=0 dv=0
PairPos2: "'kern' Horizontal Kerning in Latin lookup 0 per glyph data 1" brokenbar dx=0 dy=0 dh=-22 dv=0 dx=0 dy=0 dh=0 dv=0
PairPos2: "'kern' Horizontal Kerning in Latin lookup 0 per glyph data 1" cent dx=0 dy=0 dh=-25 dv=0 dx=0 dy=0 dh=0 dv=0
PairPos2: "'kern' Horizontal Kerning in Latin lookup 0 per glyph data 1" exclamdown dx=0 dy=0 dh=-22 dv=0 dx=0 dy=0 dh=0 dv=0
PairPos2: "'kern' Horizontal Kerning in Latin lookup 0 per glyph data 1" bar dx=0 dy=0 dh=-22 dv=0 dx=0 dy=0 dh=0 dv=0
PairPos2: "'kern' Horizontal Kerning in Latin lookup 0 per glyph data 1" z dx=0 dy=0 dh=-10 dv=0 dx=0 dy=0 dh=0 dv=0
PairPos2: "'kern' Horizontal Kerning in Latin lookup 0 per glyph data 1" y dx=0 dy=0 dh=-15 dv=0 dx=0 dy=0 dh=0 dv=0
PairPos2: "'kern' Horizontal Kerning in Latin lookup 0 per glyph data 1" v dx=0 dy=0 dh=-20 dv=0 dx=0 dy=0 dh=0 dv=0
PairPos2: "'kern' Horizontal Kerning in Latin lookup 0 per glyph data 1" u dx=0 dy=0 dh=-15 dv=0 dx=0 dy=0 dh=0 dv=0
PairPos2: "'kern' Horizontal Kerning in Latin lookup 0 per glyph data 1" t dx=0 dy=0 dh=-15 dv=0 dx=0 dy=0 dh=0 dv=0
PairPos2: "'kern' Horizontal Kerning in Latin lookup 0 per glyph data 1" r dx=0 dy=0 dh=-22 dv=0 dx=0 dy=0 dh=0 dv=0
PairPos2: "'kern' Horizontal Kerning in Latin lookup 0 per glyph data 1" q dx=0 dy=0 dh=-25 dv=0 dx=0 dy=0 dh=0 dv=0
PairPos2: "'kern' Horizontal Kerning in Latin lookup 0 per glyph data 1" p dx=0 dy=0 dh=-22 dv=0 dx=0 dy=0 dh=0 dv=0
PairPos2: "'kern' Horizontal Kerning in Latin lookup 0 per glyph data 1" o dx=0 dy=0 dh=-15 dv=0 dx=0 dy=0 dh=0 dv=0
PairPos2: "'kern' Horizontal Kerning in Latin lookup 0 per glyph data 1" n dx=0 dy=0 dh=-22 dv=0 dx=0 dy=0 dh=0 dv=0
PairPos2: "'kern' Horizontal Kerning in Latin lookup 0 per glyph data 1" m dx=0 dy=0 dh=-22 dv=0 dx=0 dy=0 dh=0 dv=0
PairPos2: "'kern' Horizontal Kerning in Latin lookup 0 per glyph data 1" l dx=0 dy=0 dh=-22 dv=0 dx=0 dy=0 dh=0 dv=0
PairPos2: "'kern' Horizontal Kerning in Latin lookup 0 per glyph data 1" k dx=0 dy=0 dh=-22 dv=0 dx=0 dy=0 dh=0 dv=0
PairPos2: "'kern' Horizontal Kerning in Latin lookup 0 per glyph data 1" j dx=0 dy=0 dh=-22 dv=0 dx=0 dy=0 dh=0 dv=0
PairPos2: "'kern' Horizontal Kerning in Latin lookup 0 per glyph data 1" i dx=0 dy=0 dh=-22 dv=0 dx=0 dy=0 dh=0 dv=0
PairPos2: "'kern' Horizontal Kerning in Latin lookup 0 per glyph data 1" h dx=0 dy=0 dh=-22 dv=0 dx=0 dy=0 dh=0 dv=0
PairPos2: "'kern' Horizontal Kerning in Latin lookup 0 per glyph data 1" f dx=0 dy=0 dh=-22 dv=0 dx=0 dy=0 dh=0 dv=0
PairPos2: "'kern' Horizontal Kerning in Latin lookup 0 per glyph data 1" e dx=0 dy=0 dh=-25 dv=0 dx=0 dy=0 dh=0 dv=0
PairPos2: "'kern' Horizontal Kerning in Latin lookup 0 per glyph data 1" d dx=0 dy=0 dh=-25 dv=0 dx=0 dy=0 dh=0 dv=0
PairPos2: "'kern' Horizontal Kerning in Latin lookup 0 per glyph data 1" c dx=0 dy=0 dh=-25 dv=0 dx=0 dy=0 dh=0 dv=0
PairPos2: "'kern' Horizontal Kerning in Latin lookup 0 per glyph data 1" b dx=0 dy=0 dh=-22 dv=0 dx=0 dy=0 dh=0 dv=0
PairPos2: "'kern' Horizontal Kerning in Latin lookup 0 per glyph data 1" bracketright dx=0 dy=0 dh=-22 dv=0 dx=0 dy=0 dh=0 dv=0
PairPos2: "'kern' Horizontal Kerning in Latin lookup 0 per glyph data 1" bracketleft dx=0 dy=0 dh=-22 dv=0 dx=0 dy=0 dh=0 dv=0
PairPos2: "'kern' Horizontal Kerning in Latin lookup 0 per glyph data 1" Z dx=0 dy=0 dh=-5 dv=0 dx=0 dy=0 dh=0 dv=0
PairPos2: "'kern' Horizontal Kerning in Latin lookup 0 per glyph data 1" Y dx=0 dy=0 dh=-29 dv=0 dx=0 dy=0 dh=0 dv=0
PairPos2: "'kern' Horizontal Kerning in Latin lookup 0 per glyph data 1" W dx=0 dy=0 dh=-22 dv=0 dx=0 dy=0 dh=0 dv=0
PairPos2: "'kern' Horizontal Kerning in Latin lookup 0 per glyph data 1" V dx=0 dy=0 dh=-22 dv=0 dx=0 dy=0 dh=0 dv=0
PairPos2: "'kern' Horizontal Kerning in Latin lookup 0 per glyph data 1" U dx=0 dy=0 dh=-5 dv=0 dx=0 dy=0 dh=0 dv=0
PairPos2: "'kern' Horizontal Kerning in Latin lookup 0 per glyph data 1" T dx=0 dy=0 dh=-22 dv=0 dx=0 dy=0 dh=0 dv=0
PairPos2: "'kern' Horizontal Kerning in Latin lookup 0 per glyph data 1" S dx=0 dy=0 dh=-10 dv=0 dx=0 dy=0 dh=0 dv=0
PairPos2: "'kern' Horizontal Kerning in Latin lookup 0 per glyph data 1" R dx=0 dy=0 dh=-7 dv=0 dx=0 dy=0 dh=0 dv=0
PairPos2: "'kern' Horizontal Kerning in Latin lookup 0 per glyph data 1" Q dx=0 dy=0 dh=-14 dv=0 dx=0 dy=0 dh=0 dv=0
PairPos2: "'kern' Horizontal Kerning in Latin lookup 0 per glyph data 1" P dx=0 dy=0 dh=-7 dv=0 dx=0 dy=0 dh=0 dv=0
PairPos2: "'kern' Horizontal Kerning in Latin lookup 0 per glyph data 1" O dx=0 dy=0 dh=-14 dv=0 dx=0 dy=0 dh=0 dv=0
PairPos2: "'kern' Horizontal Kerning in Latin lookup 0 per glyph data 1" N dx=0 dy=0 dh=-7 dv=0 dx=0 dy=0 dh=0 dv=0
PairPos2: "'kern' Horizontal Kerning in Latin lookup 0 per glyph data 1" M dx=0 dy=0 dh=-7 dv=0 dx=0 dy=0 dh=0 dv=0
PairPos2: "'kern' Horizontal Kerning in Latin lookup 0 per glyph data 1" L dx=0 dy=0 dh=-7 dv=0 dx=0 dy=0 dh=0 dv=0
PairPos2: "'kern' Horizontal Kerning in Latin lookup 0 per glyph data 1" K dx=0 dy=0 dh=-7 dv=0 dx=0 dy=0 dh=0 dv=0
PairPos2: "'kern' Horizontal Kerning in Latin lookup 0 per glyph data 1" J dx=0 dy=0 dh=-7 dv=0 dx=0 dy=0 dh=0 dv=0
PairPos2: "'kern' Horizontal Kerning in Latin lookup 0 per glyph data 1" I dx=0 dy=0 dh=-7 dv=0 dx=0 dy=0 dh=0 dv=0
PairPos2: "'kern' Horizontal Kerning in Latin lookup 0 per glyph data 1" H dx=0 dy=0 dh=-7 dv=0 dx=0 dy=0 dh=0 dv=0
PairPos2: "'kern' Horizontal Kerning in Latin lookup 0 per glyph data 1" G dx=0 dy=0 dh=-14 dv=0 dx=0 dy=0 dh=0 dv=0
PairPos2: "'kern' Horizontal Kerning in Latin lookup 0 per glyph data 1" F dx=0 dy=0 dh=-7 dv=0 dx=0 dy=0 dh=0 dv=0
PairPos2: "'kern' Horizontal Kerning in Latin lookup 0 per glyph data 1" E dx=0 dy=0 dh=-7 dv=0 dx=0 dy=0 dh=0 dv=0
PairPos2: "'kern' Horizontal Kerning in Latin lookup 0 per glyph data 1" D dx=0 dy=0 dh=-7 dv=0 dx=0 dy=0 dh=0 dv=0
PairPos2: "'kern' Horizontal Kerning in Latin lookup 0 per glyph data 1" C dx=0 dy=0 dh=-14 dv=0 dx=0 dy=0 dh=0 dv=0
PairPos2: "'kern' Horizontal Kerning in Latin lookup 0 per glyph data 1" B dx=0 dy=0 dh=-7 dv=0 dx=0 dy=0 dh=0 dv=0
PairPos2: "'kern' Horizontal Kerning in Latin lookup 0 per glyph data 1" A dx=0 dy=0 dh=-15 dv=0 dx=0 dy=0 dh=0 dv=0
PairPos2: "'kern' Horizontal Kerning in Latin lookup 0 per glyph data 1" one dx=0 dy=0 dh=-22 dv=0 dx=0 dy=0 dh=0 dv=0
PairPos2: "'kern' Horizontal Kerning in Latin lookup 0 per glyph data 1" parenright dx=0 dy=0 dh=-22 dv=0 dx=0 dy=0 dh=0 dv=0
PairPos2: "'kern' Horizontal Kerning in Latin lookup 0 per glyph data 1" parenleft dx=0 dy=0 dh=-22 dv=0 dx=0 dy=0 dh=0 dv=0
PairPos2: "'kern' Horizontal Kerning in Latin lookup 0 per glyph data 1" exclam dx=0 dy=0 dh=-22 dv=0 dx=0 dy=0 dh=0 dv=0
EndChar

StartChar: C
Encoding: 67 67 38
Width: 562
GlyphClass: 2
Flags: W
LayerCount: 2
Fore
SplineSet
353 646 m 0,0,1
 240 646 240 646 174 562 c 128,-1,2
 108 478 108 478 108 320 c 0,3,4
 108 252 108 252 122 201 c 128,-1,5
 136 150 136 150 156.5 122 c 128,-1,6
 177 94 177 94 207 78 c 0,7,8
 255 51 255 51 319 51 c 0,9,10
 418 51 418 51 517 73 c 1,11,-1
 529 21 l 1,12,13
 512 15 512 15 438.5 5.5 c 128,-1,14
 365 -4 365 -4 319 -4 c 128,-1,15
 273 -4 273 -4 239 2.5 c 128,-1,16
 205 9 205 9 167 30 c 128,-1,17
 129 51 129 51 102.5 85.5 c 128,-1,18
 76 120 76 120 58 180 c 128,-1,19
 40 240 40 240 40 320 c 0,20,21
 40 497 40 497 121 596 c 0,22,23
 206 700 206 700 353 700 c 0,24,25
 398 700 398 700 450.5 691.5 c 128,-1,26
 503 683 503 683 525 675 c 1,27,-1
 537 531 l 1,28,-1
 488 524 l 1,29,-1
 474 632 l 1,30,31
 410 646 410 646 353 646 c 0,0,1
EndSplineSet
EndChar

StartChar: D
Encoding: 68 68 39
Width: 629
GlyphClass: 2
Flags: W
LayerCount: 2
Fore
SplineSet
50 645 m 1,0,-1
 50 700 l 1,1,-1
 291 700 l 2,2,3
 426 700 426 700 507.5 621.5 c 128,-1,4
 589 543 589 543 589 366 c 0,5,6
 589 191 589 191 532 104 c 0,7,8
 482 28 482 28 376 8 c 0,9,10
 329 0 329 0 266 0 c 2,11,-1
 50 0 l 1,12,-1
 50 55 l 1,13,-1
 111 55 l 1,14,-1
 111 645 l 1,15,-1
 50 645 l 1,0,-1
286 645 m 2,16,-1
 179 645 l 1,17,-1
 179 55 l 1,18,-1
 261 55 l 2,19,20
 394 55 394 55 444 104 c 0,21,22
 497 155 497 155 512 242 c 0,23,24
 521 293 521 293 521 361 c 0,25,26
 521 511 521 511 455.5 578 c 128,-1,27
 390 645 390 645 286 645 c 2,16,-1
EndSplineSet
EndChar

StartChar: E
Encoding: 69 69 40
Width: 541
GlyphClass: 2
Flags: W
LayerCount: 2
Fore
SplineSet
50 645 m 1,0,-1
 50 700 l 1,1,-1
 475 700 l 1,2,-1
 474 694 l 1,3,-1
 487 556 l 1,4,-1
 437 548 l 1,5,-1
 425 645 l 1,6,-1
 179 645 l 1,7,-1
 179 377 l 1,8,-1
 397 377 l 1,9,-1
 397 440 l 1,10,-1
 452 440 l 1,11,-1
 452 268 l 1,12,-1
 397 268 l 1,13,-1
 397 322 l 1,14,-1
 179 322 l 1,15,-1
 179 55 l 1,16,-1
 452 55 l 1,17,-1
 467 180 l 1,18,-1
 516 175 l 1,19,-1
 501 0 l 1,20,-1
 50 0 l 1,21,-1
 50 55 l 1,22,-1
 111 55 l 1,23,-1
 111 645 l 1,24,-1
 50 645 l 1,0,-1
EndSplineSet
EndChar

StartChar: F
Encoding: 70 70 41
Width: 512
GlyphClass: 2
Flags: W
LayerCount: 2
Fore
SplineSet
179 645 m 1,0,-1
 179 377 l 1,1,-1
 397 377 l 1,2,-1
 397 440 l 1,3,-1
 452 440 l 1,4,-1
 452 268 l 1,5,-1
 397 268 l 1,6,-1
 397 322 l 1,7,-1
 179 322 l 1,8,-1
 179 55 l 1,9,-1
 252 55 l 1,10,-1
 252 0 l 1,11,-1
 50 0 l 1,12,-1
 50 55 l 1,13,-1
 111 55 l 1,14,-1
 111 645 l 1,15,-1
 50 645 l 1,16,-1
 50 700 l 1,17,-1
 475 700 l 1,18,-1
 474 694 l 1,19,-1
 487 556 l 1,20,-1
 437 548 l 1,21,-1
 425 645 l 1,22,-1
 179 645 l 1,0,-1
EndSplineSet
PairPos2: "'kern' Horizontal Kerning in Latin lookup 0 per glyph data 1" Ydieresis dx=0 dy=0 dh=-10 dv=0 dx=0 dy=0 dh=0 dv=0
PairPos2: "'kern' Horizontal Kerning in Latin lookup 0 per glyph data 1" oe dx=0 dy=0 dh=-52 dv=0 dx=0 dy=0 dh=0 dv=0
PairPos2: "'kern' Horizontal Kerning in Latin lookup 0 per glyph data 1" OE dx=0 dy=0 dh=-22 dv=0 dx=0 dy=0 dh=0 dv=0
PairPos2: "'kern' Horizontal Kerning in Latin lookup 0 per glyph data 1" dotlessi dx=0 dy=0 dh=-50 dv=0 dx=0 dy=0 dh=0 dv=0
PairPos2: "'kern' Horizontal Kerning in Latin lookup 0 per glyph data 1" ydieresis dx=0 dy=0 dh=-37 dv=0 dx=0 dy=0 dh=0 dv=0
PairPos2: "'kern' Horizontal Kerning in Latin lookup 0 per glyph data 1" thorn dx=0 dy=0 dh=-50 dv=0 dx=0 dy=0 dh=0 dv=0
PairPos2: "'kern' Horizontal Kerning in Latin lookup 0 per glyph data 1" yacute dx=0 dy=0 dh=-37 dv=0 dx=0 dy=0 dh=0 dv=0
PairPos2: "'kern' Horizontal Kerning in Latin lookup 0 per glyph data 1" udieresis dx=0 dy=0 dh=-32 dv=0 dx=0 dy=0 dh=0 dv=0
PairPos2: "'kern' Horizontal Kerning in Latin lookup 0 per glyph data 1" ucircumflex dx=0 dy=0 dh=-32 dv=0 dx=0 dy=0 dh=0 dv=0
PairPos2: "'kern' Horizontal Kerning in Latin lookup 0 per glyph data 1" uacute dx=0 dy=0 dh=-32 dv=0 dx=0 dy=0 dh=0 dv=0
PairPos2: "'kern' Horizontal Kerning in Latin lookup 0 per glyph data 1" ugrave dx=0 dy=0 dh=-32 dv=0 dx=0 dy=0 dh=0 dv=0
PairPos2: "'kern' Horizontal Kerning in Latin lookup 0 per glyph data 1" oslash dx=0 dy=0 dh=-67 dv=0 dx=0 dy=0 dh=0 dv=0
PairPos2: "'kern' Horizontal Kerning in Latin lookup 0 per glyph data 1" odieresis dx=0 dy=0 dh=-52 dv=0 dx=0 dy=0 dh=0 dv=0
PairPos2: "'kern' Horizontal Kerning in Latin lookup 0 per glyph data 1" otilde dx=0 dy=0 dh=-52 dv=0 dx=0 dy=0 dh=0 dv=0
PairPos2: "'kern' Horizontal Kerning in Latin lookup 0 per glyph data 1" ocircumflex dx=0 dy=0 dh=-52 dv=0 dx=0 dy=0 dh=0 dv=0
PairPos2: "'kern' Horizontal Kerning in Latin lookup 0 per glyph data 1" oacute dx=0 dy=0 dh=-52 dv=0 dx=0 dy=0 dh=0 dv=0
PairPos2: "'kern' Horizontal Kerning in Latin lookup 0 per glyph data 1" ograve dx=0 dy=0 dh=-52 dv=0 dx=0 dy=0 dh=0 dv=0
PairPos2: "'kern' Horizontal Kerning in Latin lookup 0 per glyph data 1" ntilde dx=0 dy=0 dh=-50 dv=0 dx=0 dy=0 dh=0 dv=0
PairPos2: "'kern' Horizontal Kerning in Latin lookup 0 per glyph data 1" eth dx=0 dy=0 dh=-52 dv=0 dx=0 dy=0 dh=0 dv=0
PairPos2: "'kern' Horizontal Kerning in Latin lookup 0 per glyph data 1" idieresis dx=0 dy=0 dh=-50 dv=0 dx=0 dy=0 dh=0 dv=0
PairPos2: "'kern' Horizontal Kerning in Latin lookup 0 per glyph data 1" icircumflex dx=0 dy=0 dh=-50 dv=0 dx=0 dy=0 dh=0 dv=0
PairPos2: "'kern' Horizontal Kerning in Latin lookup 0 per glyph data 1" iacute dx=0 dy=0 dh=-50 dv=0 dx=0 dy=0 dh=0 dv=0
PairPos2: "'kern' Horizontal Kerning in Latin lookup 0 per glyph data 1" igrave dx=0 dy=0 dh=-50 dv=0 dx=0 dy=0 dh=0 dv=0
PairPos2: "'kern' Horizontal Kerning in Latin lookup 0 per glyph data 1" edieresis dx=0 dy=0 dh=-25 dv=0 dx=0 dy=0 dh=0 dv=0
PairPos2: "'kern' Horizontal Kerning in Latin lookup 0 per glyph data 1" ecircumflex dx=0 dy=0 dh=-25 dv=0 dx=0 dy=0 dh=0 dv=0
PairPos2: "'kern' Horizontal Kerning in Latin lookup 0 per glyph data 1" eacute dx=0 dy=0 dh=-25 dv=0 dx=0 dy=0 dh=0 dv=0
PairPos2: "'kern' Horizontal Kerning in Latin lookup 0 per glyph data 1" egrave dx=0 dy=0 dh=-25 dv=0 dx=0 dy=0 dh=0 dv=0
PairPos2: "'kern' Horizontal Kerning in Latin lookup 0 per glyph data 1" ccedilla dx=0 dy=0 dh=-25 dv=0 dx=0 dy=0 dh=0 dv=0
PairPos2: "'kern' Horizontal Kerning in Latin lookup 0 per glyph data 1" ae dx=0 dy=0 dh=-30 dv=0 dx=0 dy=0 dh=0 dv=0
PairPos2: "'kern' Horizontal Kerning in Latin lookup 0 per glyph data 1" aring dx=0 dy=0 dh=-32 dv=0 dx=0 dy=0 dh=0 dv=0
PairPos2: "'kern' Horizontal Kerning in Latin lookup 0 per glyph data 1" adieresis dx=0 dy=0 dh=-32 dv=0 dx=0 dy=0 dh=0 dv=0
PairPos2: "'kern' Horizontal Kerning in Latin lookup 0 per glyph data 1" atilde dx=0 dy=0 dh=-32 dv=0 dx=0 dy=0 dh=0 dv=0
PairPos2: "'kern' Horizontal Kerning in Latin lookup 0 per glyph data 1" acircumflex dx=0 dy=0 dh=-32 dv=0 dx=0 dy=0 dh=0 dv=0
PairPos2: "'kern' Horizontal Kerning in Latin lookup 0 per glyph data 1" aacute dx=0 dy=0 dh=-32 dv=0 dx=0 dy=0 dh=0 dv=0
PairPos2: "'kern' Horizontal Kerning in Latin lookup 0 per glyph data 1" agrave dx=0 dy=0 dh=-32 dv=0 dx=0 dy=0 dh=0 dv=0
PairPos2: "'kern' Horizontal Kerning in Latin lookup 0 per glyph data 1" germandbls dx=0 dy=0 dh=-50 dv=0 dx=0 dy=0 dh=0 dv=0
PairPos2: "'kern' Horizontal Kerning in Latin lookup 0 per glyph data 1" Thorn dx=0 dy=0 dh=-5 dv=0 dx=0 dy=0 dh=0 dv=0
PairPos2: "'kern' Horizontal Kerning in Latin lookup 0 per glyph data 1" Yacute dx=0 dy=0 dh=-10 dv=0 dx=0 dy=0 dh=0 dv=0
PairPos2: "'kern' Horizontal Kerning in Latin lookup 0 per glyph data 1" Udieresis dx=0 dy=0 dh=-10 dv=0 dx=0 dy=0 dh=0 dv=0
PairPos2: "'kern' Horizontal Kerning in Latin lookup 0 per glyph data 1" Ucircumflex dx=0 dy=0 dh=-10 dv=0 dx=0 dy=0 dh=0 dv=0
PairPos2: "'kern' Horizontal Kerning in Latin lookup 0 per glyph data 1" Uacute dx=0 dy=0 dh=-10 dv=0 dx=0 dy=0 dh=0 dv=0
PairPos2: "'kern' Horizontal Kerning in Latin lookup 0 per glyph data 1" Ugrave dx=0 dy=0 dh=-10 dv=0 dx=0 dy=0 dh=0 dv=0
PairPos2: "'kern' Horizontal Kerning in Latin lookup 0 per glyph data 1" Oslash dx=0 dy=0 dh=-21 dv=0 dx=0 dy=0 dh=0 dv=0
PairPos2: "'kern' Horizontal Kerning in Latin lookup 0 per glyph data 1" Odieresis dx=0 dy=0 dh=-22 dv=0 dx=0 dy=0 dh=0 dv=0
PairPos2: "'kern' Horizontal Kerning in Latin lookup 0 per glyph data 1" Otilde dx=0 dy=0 dh=-22 dv=0 dx=0 dy=0 dh=0 dv=0
PairPos2: "'kern' Horizontal Kerning in Latin lookup 0 per glyph data 1" Ocircumflex dx=0 dy=0 dh=-22 dv=0 dx=0 dy=0 dh=0 dv=0
PairPos2: "'kern' Horizontal Kerning in Latin lookup 0 per glyph data 1" Oacute dx=0 dy=0 dh=-22 dv=0 dx=0 dy=0 dh=0 dv=0
PairPos2: "'kern' Horizontal Kerning in Latin lookup 0 per glyph data 1" Ograve dx=0 dy=0 dh=-22 dv=0 dx=0 dy=0 dh=0 dv=0
PairPos2: "'kern' Horizontal Kerning in Latin lookup 0 per glyph data 1" Ntilde dx=0 dy=0 dh=-5 dv=0 dx=0 dy=0 dh=0 dv=0
PairPos2: "'kern' Horizontal Kerning in Latin lookup 0 per glyph data 1" Idieresis dx=0 dy=0 dh=-5 dv=0 dx=0 dy=0 dh=0 dv=0
PairPos2: "'kern' Horizontal Kerning in Latin lookup 0 per glyph data 1" Icircumflex dx=0 dy=0 dh=-5 dv=0 dx=0 dy=0 dh=0 dv=0
PairPos2: "'kern' Horizontal Kerning in Latin lookup 0 per glyph data 1" Iacute dx=0 dy=0 dh=-5 dv=0 dx=0 dy=0 dh=0 dv=0
PairPos2: "'kern' Horizontal Kerning in Latin lookup 0 per glyph data 1" Igrave dx=0 dy=0 dh=-5 dv=0 dx=0 dy=0 dh=0 dv=0
PairPos2: "'kern' Horizontal Kerning in Latin lookup 0 per glyph data 1" Edieresis dx=0 dy=0 dh=-5 dv=0 dx=0 dy=0 dh=0 dv=0
PairPos2: "'kern' Horizontal Kerning in Latin lookup 0 per glyph data 1" Ecircumflex dx=0 dy=0 dh=-5 dv=0 dx=0 dy=0 dh=0 dv=0
PairPos2: "'kern' Horizontal Kerning in Latin lookup 0 per glyph data 1" Eacute dx=0 dy=0 dh=-5 dv=0 dx=0 dy=0 dh=0 dv=0
PairPos2: "'kern' Horizontal Kerning in Latin lookup 0 per glyph data 1" Egrave dx=0 dy=0 dh=-5 dv=0 dx=0 dy=0 dh=0 dv=0
PairPos2: "'kern' Horizontal Kerning in Latin lookup 0 per glyph data 1" Ccedilla dx=0 dy=0 dh=-22 dv=0 dx=0 dy=0 dh=0 dv=0
PairPos2: "'kern' Horizontal Kerning in Latin lookup 0 per glyph data 1" AE dx=0 dy=0 dh=-36 dv=0 dx=0 dy=0 dh=0 dv=0
PairPos2: "'kern' Horizontal Kerning in Latin lookup 0 per glyph data 1" Aring dx=0 dy=0 dh=-36 dv=0 dx=0 dy=0 dh=0 dv=0
PairPos2: "'kern' Horizontal Kerning in Latin lookup 0 per glyph data 1" Adieresis dx=0 dy=0 dh=-36 dv=0 dx=0 dy=0 dh=0 dv=0
PairPos2: "'kern' Horizontal Kerning in Latin lookup 0 per glyph data 1" Atilde dx=0 dy=0 dh=-36 dv=0 dx=0 dy=0 dh=0 dv=0
PairPos2: "'kern' Horizontal Kerning in Latin lookup 0 per glyph data 1" Acircumflex dx=0 dy=0 dh=-36 dv=0 dx=0 dy=0 dh=0 dv=0
PairPos2: "'kern' Horizontal Kerning in Latin lookup 0 per glyph data 1" Aacute dx=0 dy=0 dh=-36 dv=0 dx=0 dy=0 dh=0 dv=0
PairPos2: "'kern' Horizontal Kerning in Latin lookup 0 per glyph data 1" Agrave dx=0 dy=0 dh=-36 dv=0 dx=0 dy=0 dh=0 dv=0
PairPos2: "'kern' Horizontal Kerning in Latin lookup 0 per glyph data 1" mu dx=0 dy=0 dh=-50 dv=0 dx=0 dy=0 dh=0 dv=0
PairPos2: "'kern' Horizontal Kerning in Latin lookup 0 per glyph data 1" brokenbar dx=0 dy=0 dh=-50 dv=0 dx=0 dy=0 dh=0 dv=0
PairPos2: "'kern' Horizontal Kerning in Latin lookup 0 per glyph data 1" cent dx=0 dy=0 dh=-25 dv=0 dx=0 dy=0 dh=0 dv=0
PairPos2: "'kern' Horizontal Kerning in Latin lookup 0 per glyph data 1" exclamdown dx=0 dy=0 dh=-50 dv=0 dx=0 dy=0 dh=0 dv=0
PairPos2: "'kern' Horizontal Kerning in Latin lookup 0 per glyph data 1" bar dx=0 dy=0 dh=-50 dv=0 dx=0 dy=0 dh=0 dv=0
PairPos2: "'kern' Horizontal Kerning in Latin lookup 0 per glyph data 1" y dx=0 dy=0 dh=-37 dv=0 dx=0 dy=0 dh=0 dv=0
PairPos2: "'kern' Horizontal Kerning in Latin lookup 0 per glyph data 1" u dx=0 dy=0 dh=-32 dv=0 dx=0 dy=0 dh=0 dv=0
PairPos2: "'kern' Horizontal Kerning in Latin lookup 0 per glyph data 1" t dx=0 dy=0 dh=-32 dv=0 dx=0 dy=0 dh=0 dv=0
PairPos2: "'kern' Horizontal Kerning in Latin lookup 0 per glyph data 1" s dx=0 dy=0 dh=-20 dv=0 dx=0 dy=0 dh=0 dv=0
PairPos2: "'kern' Horizontal Kerning in Latin lookup 0 per glyph data 1" r dx=0 dy=0 dh=-50 dv=0 dx=0 dy=0 dh=0 dv=0
PairPos2: "'kern' Horizontal Kerning in Latin lookup 0 per glyph data 1" q dx=0 dy=0 dh=-25 dv=0 dx=0 dy=0 dh=0 dv=0
PairPos2: "'kern' Horizontal Kerning in Latin lookup 0 per glyph data 1" p dx=0 dy=0 dh=-50 dv=0 dx=0 dy=0 dh=0 dv=0
PairPos2: "'kern' Horizontal Kerning in Latin lookup 0 per glyph data 1" o dx=0 dy=0 dh=-52 dv=0 dx=0 dy=0 dh=0 dv=0
PairPos2: "'kern' Horizontal Kerning in Latin lookup 0 per glyph data 1" n dx=0 dy=0 dh=-50 dv=0 dx=0 dy=0 dh=0 dv=0
PairPos2: "'kern' Horizontal Kerning in Latin lookup 0 per glyph data 1" m dx=0 dy=0 dh=-50 dv=0 dx=0 dy=0 dh=0 dv=0
PairPos2: "'kern' Horizontal Kerning in Latin lookup 0 per glyph data 1" l dx=0 dy=0 dh=-50 dv=0 dx=0 dy=0 dh=0 dv=0
PairPos2: "'kern' Horizontal Kerning in Latin lookup 0 per glyph data 1" k dx=0 dy=0 dh=-50 dv=0 dx=0 dy=0 dh=0 dv=0
PairPos2: "'kern' Horizontal Kerning in Latin lookup 0 per glyph data 1" j dx=0 dy=0 dh=-50 dv=0 dx=0 dy=0 dh=0 dv=0
PairPos2: "'kern' Horizontal Kerning in Latin lookup 0 per glyph data 1" i dx=0 dy=0 dh=-50 dv=0 dx=0 dy=0 dh=0 dv=0
PairPos2: "'kern' Horizontal Kerning in Latin lookup 0 per glyph data 1" h dx=0 dy=0 dh=-50 dv=0 dx=0 dy=0 dh=0 dv=0
PairPos2: "'kern' Horizontal Kerning in Latin lookup 0 per glyph data 1" f dx=0 dy=0 dh=-50 dv=0 dx=0 dy=0 dh=0 dv=0
PairPos2: "'kern' Horizontal Kerning in Latin lookup 0 per glyph data 1" e dx=0 dy=0 dh=-25 dv=0 dx=0 dy=0 dh=0 dv=0
PairPos2: "'kern' Horizontal Kerning in Latin lookup 0 per glyph data 1" d dx=0 dy=0 dh=-25 dv=0 dx=0 dy=0 dh=0 dv=0
PairPos2: "'kern' Horizontal Kerning in Latin lookup 0 per glyph data 1" c dx=0 dy=0 dh=-25 dv=0 dx=0 dy=0 dh=0 dv=0
PairPos2: "'kern' Horizontal Kerning in Latin lookup 0 per glyph data 1" b dx=0 dy=0 dh=-50 dv=0 dx=0 dy=0 dh=0 dv=0
PairPos2: "'kern' Horizontal Kerning in Latin lookup 0 per glyph data 1" a dx=0 dy=0 dh=-32 dv=0 dx=0 dy=0 dh=0 dv=0
PairPos2: "'kern' Horizontal Kerning in Latin lookup 0 per glyph data 1" bracketright dx=0 dy=0 dh=-50 dv=0 dx=0 dy=0 dh=0 dv=0
PairPos2: "'kern' Horizontal Kerning in Latin lookup 0 per glyph data 1" bracketleft dx=0 dy=0 dh=-50 dv=0 dx=0 dy=0 dh=0 dv=0
PairPos2: "'kern' Horizontal Kerning in Latin lookup 0 per glyph data 1" Y dx=0 dy=0 dh=-10 dv=0 dx=0 dy=0 dh=0 dv=0
PairPos2: "'kern' Horizontal Kerning in Latin lookup 0 per glyph data 1" U dx=0 dy=0 dh=-10 dv=0 dx=0 dy=0 dh=0 dv=0
PairPos2: "'kern' Horizontal Kerning in Latin lookup 0 per glyph data 1" S dx=0 dy=0 dh=-15 dv=0 dx=0 dy=0 dh=0 dv=0
PairPos2: "'kern' Horizontal Kerning in Latin lookup 0 per glyph data 1" R dx=0 dy=0 dh=-5 dv=0 dx=0 dy=0 dh=0 dv=0
PairPos2: "'kern' Horizontal Kerning in Latin lookup 0 per glyph data 1" Q dx=0 dy=0 dh=-22 dv=0 dx=0 dy=0 dh=0 dv=0
PairPos2: "'kern' Horizontal Kerning in Latin lookup 0 per glyph data 1" P dx=0 dy=0 dh=-5 dv=0 dx=0 dy=0 dh=0 dv=0
PairPos2: "'kern' Horizontal Kerning in Latin lookup 0 per glyph data 1" O dx=0 dy=0 dh=-22 dv=0 dx=0 dy=0 dh=0 dv=0
PairPos2: "'kern' Horizontal Kerning in Latin lookup 0 per glyph data 1" N dx=0 dy=0 dh=-5 dv=0 dx=0 dy=0 dh=0 dv=0
PairPos2: "'kern' Horizontal Kerning in Latin lookup 0 per glyph data 1" M dx=0 dy=0 dh=-5 dv=0 dx=0 dy=0 dh=0 dv=0
PairPos2: "'kern' Horizontal Kerning in Latin lookup 0 per glyph data 1" L dx=0 dy=0 dh=-5 dv=0 dx=0 dy=0 dh=0 dv=0
PairPos2: "'kern' Horizontal Kerning in Latin lookup 0 per glyph data 1" K dx=0 dy=0 dh=-5 dv=0 dx=0 dy=0 dh=0 dv=0
PairPos2: "'kern' Horizontal Kerning in Latin lookup 0 per glyph data 1" J dx=0 dy=0 dh=-5 dv=0 dx=0 dy=0 dh=0 dv=0
PairPos2: "'kern' Horizontal Kerning in Latin lookup 0 per glyph data 1" I dx=0 dy=0 dh=-5 dv=0 dx=0 dy=0 dh=0 dv=0
PairPos2: "'kern' Horizontal Kerning in Latin lookup 0 per glyph data 1" H dx=0 dy=0 dh=-5 dv=0 dx=0 dy=0 dh=0 dv=0
PairPos2: "'kern' Horizontal Kerning in Latin lookup 0 per glyph data 1" G dx=0 dy=0 dh=-22 dv=0 dx=0 dy=0 dh=0 dv=0
PairPos2: "'kern' Horizontal Kerning in Latin lookup 0 per glyph data 1" F dx=0 dy=0 dh=-5 dv=0 dx=0 dy=0 dh=0 dv=0
PairPos2: "'kern' Horizontal Kerning in Latin lookup 0 per glyph data 1" E dx=0 dy=0 dh=-5 dv=0 dx=0 dy=0 dh=0 dv=0
PairPos2: "'kern' Horizontal Kerning in Latin lookup 0 per glyph data 1" D dx=0 dy=0 dh=-5 dv=0 dx=0 dy=0 dh=0 dv=0
PairPos2: "'kern' Horizontal Kerning in Latin lookup 0 per glyph data 1" C dx=0 dy=0 dh=-22 dv=0 dx=0 dy=0 dh=0 dv=0
PairPos2: "'kern' Horizontal Kerning in Latin lookup 0 per glyph data 1" B dx=0 dy=0 dh=-5 dv=0 dx=0 dy=0 dh=0 dv=0
PairPos2: "'kern' Horizontal Kerning in Latin lookup 0 per glyph data 1" A dx=0 dy=0 dh=-36 dv=0 dx=0 dy=0 dh=0 dv=0
PairPos2: "'kern' Horizontal Kerning in Latin lookup 0 per glyph data 1" one dx=0 dy=0 dh=-50 dv=0 dx=0 dy=0 dh=0 dv=0
PairPos2: "'kern' Horizontal Kerning in Latin lookup 0 per glyph data 1" parenright dx=0 dy=0 dh=-50 dv=0 dx=0 dy=0 dh=0 dv=0
PairPos2: "'kern' Horizontal Kerning in Latin lookup 0 per glyph data 1" parenleft dx=0 dy=0 dh=-50 dv=0 dx=0 dy=0 dh=0 dv=0
PairPos2: "'kern' Horizontal Kerning in Latin lookup 0 per glyph data 1" exclam dx=0 dy=0 dh=-50 dv=0 dx=0 dy=0 dh=0 dv=0
EndChar

StartChar: G
Encoding: 71 71 42
Width: 614
GlyphClass: 2
Flags: W
LayerCount: 2
Fore
SplineSet
387 264 m 1,0,-1
 387 319 l 1,1,-1
 568 319 l 1,2,-1
 568 264 l 1,3,-1
 529 264 l 1,4,-1
 529 21 l 1,5,6
 512 15 512 15 438.5 5.5 c 128,-1,7
 365 -4 365 -4 319 -4 c 128,-1,8
 273 -4 273 -4 239 2.5 c 128,-1,9
 205 9 205 9 167 30 c 128,-1,10
 129 51 129 51 102.5 85.5 c 128,-1,11
 76 120 76 120 58 180 c 128,-1,12
 40 240 40 240 40 320 c 0,13,14
 40 497 40 497 121 596 c 0,15,16
 206 700 206 700 353 700 c 0,17,18
 398 700 398 700 450.5 691.5 c 128,-1,19
 503 683 503 683 525 675 c 1,20,-1
 537 531 l 1,21,-1
 488 524 l 1,22,-1
 474 632 l 1,23,24
 410 646 410 646 353 646 c 0,25,26
 240 646 240 646 174 562 c 128,-1,27
 108 478 108 478 108 320 c 0,28,29
 108 252 108 252 122 201 c 128,-1,30
 136 150 136 150 156.5 122 c 128,-1,31
 177 94 177 94 207 78 c 0,32,33
 255 51 255 51 320 51 c 128,-1,34
 385 51 385 51 470 64 c 1,35,-1
 473 264 l 1,36,-1
 387 264 l 1,0,-1
EndSplineSet
EndChar

StartChar: H
Encoding: 72 72 43
Width: 685
GlyphClass: 2
Flags: W
LayerCount: 2
Fore
SplineSet
441 0 m 1,0,-1
 441 55 l 1,1,-1
 509 55 l 1,2,-1
 509 317 l 1,3,-1
 168 317 l 1,4,-1
 168 55 l 1,5,-1
 242 55 l 1,6,-1
 242 0 l 1,7,-1
 40 0 l 1,8,-1
 40 55 l 1,9,-1
 105 55 l 1,10,-1
 105 645 l 1,11,-1
 40 645 l 1,12,-1
 40 700 l 1,13,-1
 242 700 l 1,14,-1
 242 645 l 1,15,-1
 168 645 l 1,16,-1
 168 377 l 1,17,-1
 509 377 l 1,18,-1
 509 645 l 1,19,-1
 441 645 l 1,20,-1
 441 700 l 1,21,-1
 633 700 l 1,22,-1
 633 645 l 1,23,-1
 572 645 l 1,24,-1
 572 55 l 1,25,-1
 643 55 l 1,26,-1
 643 0 l 1,27,-1
 441 0 l 1,0,-1
EndSplineSet
EndChar

StartChar: I
Encoding: 73 73 44
Width: 302
GlyphClass: 2
Flags: W
LayerCount: 2
Fore
SplineSet
50 645 m 1,0,-1
 50 700 l 1,1,-1
 252 700 l 1,2,-1
 252 645 l 1,3,-1
 184 645 l 1,4,-1
 184 55 l 1,5,-1
 252 55 l 1,6,-1
 252 0 l 1,7,-1
 50 0 l 1,8,-1
 50 55 l 1,9,-1
 116 55 l 1,10,-1
 116 645 l 1,11,-1
 50 645 l 1,0,-1
EndSplineSet
EndChar

StartChar: J
Encoding: 74 74 45
Width: 235
GlyphClass: 2
Flags: W
LayerCount: 2
Fore
SplineSet
78 645 m 1,0,-1
 3 645 l 1,1,-1
 3 700 l 1,2,-1
 205 700 l 1,3,-1
 205 645 l 1,4,-1
 146 645 l 1,5,-1
 146 0 l 1,6,7
 149 -120 149 -120 2 -248 c 1,8,-1
 -30 -209 l 1,9,10
 12 -169 12 -169 45.5 -113 c 128,-1,11
 79 -57 79 -57 78 0 c 1,12,-1
 78 645 l 1,0,-1
EndSplineSet
EndChar

StartChar: K
Encoding: 75 75 46
Width: 602
GlyphClass: 2
Flags: W
LayerCount: 2
Fore
SplineSet
330 645 m 1,0,-1
 330 700 l 1,1,-1
 524 700 l 1,2,-1
 524 645 l 1,3,-1
 460 645 l 1,4,-1
 257 371 l 1,5,-1
 506 55 l 1,6,-1
 582 55 l 1,7,-1
 582 0 l 1,8,-1
 550 0 l 1,9,-1
 473 -1 l 1,10,-1
 183 366 l 1,11,-1
 384 645 l 1,12,-1
 330 645 l 1,0,-1
183 645 m 1,13,-1
 183 55 l 1,14,-1
 252 55 l 1,15,-1
 252 0 l 1,16,-1
 50 0 l 1,17,-1
 50 55 l 1,18,-1
 115 55 l 1,19,-1
 115 645 l 1,20,-1
 50 645 l 1,21,-1
 50 700 l 1,22,-1
 252 700 l 1,23,-1
 252 645 l 1,24,-1
 183 645 l 1,13,-1
EndSplineSet
EndChar

StartChar: L
Encoding: 76 76 47
Width: 517
GlyphClass: 2
Flags: W
LayerCount: 2
Fore
SplineSet
50 645 m 1,0,-1
 50 700 l 1,1,-1
 252 700 l 1,2,-1
 252 645 l 1,3,-1
 180 645 l 1,4,-1
 180 55 l 1,5,-1
 434 55 l 1,6,-1
 449 180 l 1,7,-1
 498 175 l 1,8,-1
 487 55 l 1,9,-1
 488 55 l 1,10,-1
 487 53 l 1,11,-1
 483 0 l 1,12,-1
 473 1 l 1,13,-1
 473 0 l 1,14,-1
 50 0 l 1,15,-1
 50 55 l 1,16,-1
 112 55 l 1,17,-1
 112 645 l 1,18,-1
 50 645 l 1,0,-1
EndSplineSet
EndChar

StartChar: M
Encoding: 77 77 48
Width: 877
GlyphClass: 2
Flags: W
LayerCount: 2
Fore
SplineSet
626 0 m 1,0,-1
 626 55 l 1,1,-1
 690 55 l 1,2,-1
 690 584 l 1,3,-1
 462 131 l 1,4,-1
 394 131 l 1,5,-1
 166 584 l 1,6,-1
 166 55 l 1,7,-1
 248 55 l 1,8,-1
 248 0 l 1,9,-1
 46 0 l 1,10,-1
 46 55 l 1,11,-1
 103 55 l 1,12,-1
 103 645 l 1,13,-1
 46 645 l 1,14,-1
 46 700 l 1,15,-1
 171 700 l 1,16,-1
 428 188 l 1,17,-1
 685 700 l 1,18,-1
 817 700 l 1,19,-1
 817 645 l 1,20,-1
 753 645 l 1,21,-1
 753 55 l 1,22,-1
 828 55 l 1,23,-1
 828 0 l 1,24,-1
 626 0 l 1,0,-1
EndSplineSet
EndChar

StartChar: N
Encoding: 78 78 49
Width: 749
GlyphClass: 2
Flags: W
LayerCount: 2
Fore
SplineSet
46 645 m 1,0,-1
 46 700 l 1,1,-1
 183 700 l 1,2,-1
 581 90 l 1,3,-1
 577 645 l 1,4,-1
 512 645 l 1,5,-1
 512 700 l 1,6,-1
 703 700 l 1,7,-1
 703 645 l 1,8,-1
 640 645 l 1,9,-1
 640 0 l 1,10,-1
 567 0 l 1,11,-1
 168 610 l 1,12,-1
 172 55 l 1,13,-1
 248 55 l 1,14,-1
 248 0 l 1,15,-1
 46 0 l 1,16,-1
 46 55 l 1,17,-1
 110 55 l 1,18,-1
 110 645 l 1,19,-1
 46 645 l 1,0,-1
EndSplineSet
EndChar

StartChar: O
Encoding: 79 79 50
Width: 670
GlyphClass: 2
Flags: W
LayerCount: 2
Fore
SplineSet
40 348 m 0,0,1
 40 511 40 511 124.5 607.5 c 128,-1,2
 209 704 209 704 335 704 c 0,3,4
 630 704 630 704 630 348 c 0,5,6
 630 186 630 186 546 91 c 128,-1,7
 462 -4 462 -4 335 -4 c 0,8,9
 40 -4 40 -4 40 348 c 0,0,1
108 350 m 0,10,11
 108 56 108 56 335 56 c 0,12,13
 433 56 433 56 497.5 134 c 128,-1,14
 562 212 562 212 562 350 c 0,15,16
 562 644 562 644 335 644 c 0,17,18
 237 644 237 644 172.5 565.5 c 128,-1,19
 108 487 108 487 108 350 c 0,10,11
EndSplineSet
EndChar

StartChar: P
Encoding: 80 80 51
Width: 542
GlyphClass: 2
Flags: W
LayerCount: 2
Fore
SplineSet
52 645 m 1,0,-1
 52 700 l 1,1,-1
 260 700 l 2,2,3
 383 700 383 700 442.5 658 c 128,-1,4
 502 616 502 616 502 499.5 c 128,-1,5
 502 383 502 383 440.5 327.5 c 128,-1,6
 379 272 379 272 260 272 c 2,7,-1
 183 272 l 1,8,-1
 183 55 l 1,9,-1
 254 55 l 1,10,-1
 254 0 l 1,11,-1
 52 0 l 1,12,-1
 52 55 l 1,13,-1
 115 55 l 1,14,-1
 115 645 l 1,15,-1
 52 645 l 1,0,-1
255 645 m 2,16,-1
 183 645 l 1,17,-1
 183 327 l 1,18,-1
 255 327 l 2,19,20
 345 327 345 327 389.5 366.5 c 128,-1,21
 434 406 434 406 434 495.5 c 128,-1,22
 434 585 434 585 390 615 c 128,-1,23
 346 645 346 645 255 645 c 2,16,-1
EndSplineSet
PairPos2: "'kern' Horizontal Kerning in Latin lookup 0 per glyph data 1" Ydieresis dx=0 dy=0 dh=-29 dv=0 dx=0 dy=0 dh=0 dv=0
PairPos2: "'kern' Horizontal Kerning in Latin lookup 0 per glyph data 1" oe dx=0 dy=0 dh=-70 dv=0 dx=0 dy=0 dh=0 dv=0
PairPos2: "'kern' Horizontal Kerning in Latin lookup 0 per glyph data 1" OE dx=0 dy=0 dh=-25 dv=0 dx=0 dy=0 dh=0 dv=0
PairPos2: "'kern' Horizontal Kerning in Latin lookup 0 per glyph data 1" dotlessi dx=0 dy=0 dh=-40 dv=0 dx=0 dy=0 dh=0 dv=0
PairPos2: "'kern' Horizontal Kerning in Latin lookup 0 per glyph data 1" ydieresis dx=0 dy=0 dh=-10 dv=0 dx=0 dy=0 dh=0 dv=0
PairPos2: "'kern' Horizontal Kerning in Latin lookup 0 per glyph data 1" thorn dx=0 dy=0 dh=-40 dv=0 dx=0 dy=0 dh=0 dv=0
PairPos2: "'kern' Horizontal Kerning in Latin lookup 0 per glyph data 1" yacute dx=0 dy=0 dh=-10 dv=0 dx=0 dy=0 dh=0 dv=0
PairPos2: "'kern' Horizontal Kerning in Latin lookup 0 per glyph data 1" udieresis dx=0 dy=0 dh=-10 dv=0 dx=0 dy=0 dh=0 dv=0
PairPos2: "'kern' Horizontal Kerning in Latin lookup 0 per glyph data 1" ucircumflex dx=0 dy=0 dh=-10 dv=0 dx=0 dy=0 dh=0 dv=0
PairPos2: "'kern' Horizontal Kerning in Latin lookup 0 per glyph data 1" uacute dx=0 dy=0 dh=-10 dv=0 dx=0 dy=0 dh=0 dv=0
PairPos2: "'kern' Horizontal Kerning in Latin lookup 0 per glyph data 1" ugrave dx=0 dy=0 dh=-10 dv=0 dx=0 dy=0 dh=0 dv=0
PairPos2: "'kern' Horizontal Kerning in Latin lookup 0 per glyph data 1" odieresis dx=0 dy=0 dh=-70 dv=0 dx=0 dy=0 dh=0 dv=0
PairPos2: "'kern' Horizontal Kerning in Latin lookup 0 per glyph data 1" otilde dx=0 dy=0 dh=-70 dv=0 dx=0 dy=0 dh=0 dv=0
PairPos2: "'kern' Horizontal Kerning in Latin lookup 0 per glyph data 1" ocircumflex dx=0 dy=0 dh=-70 dv=0 dx=0 dy=0 dh=0 dv=0
PairPos2: "'kern' Horizontal Kerning in Latin lookup 0 per glyph data 1" oacute dx=0 dy=0 dh=-70 dv=0 dx=0 dy=0 dh=0 dv=0
PairPos2: "'kern' Horizontal Kerning in Latin lookup 0 per glyph data 1" ograve dx=0 dy=0 dh=-70 dv=0 dx=0 dy=0 dh=0 dv=0
PairPos2: "'kern' Horizontal Kerning in Latin lookup 0 per glyph data 1" ntilde dx=0 dy=0 dh=-40 dv=0 dx=0 dy=0 dh=0 dv=0
PairPos2: "'kern' Horizontal Kerning in Latin lookup 0 per glyph data 1" eth dx=0 dy=0 dh=-70 dv=0 dx=0 dy=0 dh=0 dv=0
PairPos2: "'kern' Horizontal Kerning in Latin lookup 0 per glyph data 1" idieresis dx=0 dy=0 dh=-40 dv=0 dx=0 dy=0 dh=0 dv=0
PairPos2: "'kern' Horizontal Kerning in Latin lookup 0 per glyph data 1" icircumflex dx=0 dy=0 dh=-40 dv=0 dx=0 dy=0 dh=0 dv=0
PairPos2: "'kern' Horizontal Kerning in Latin lookup 0 per glyph data 1" iacute dx=0 dy=0 dh=-40 dv=0 dx=0 dy=0 dh=0 dv=0
PairPos2: "'kern' Horizontal Kerning in Latin lookup 0 per glyph data 1" igrave dx=0 dy=0 dh=-40 dv=0 dx=0 dy=0 dh=0 dv=0
PairPos2: "'kern' Horizontal Kerning in Latin lookup 0 per glyph data 1" edieresis dx=0 dy=0 dh=-20 dv=0 dx=0 dy=0 dh=0 dv=0
PairPos2: "'kern' Horizontal Kerning in Latin lookup 0 per glyph data 1" ecircumflex dx=0 dy=0 dh=-20 dv=0 dx=0 dy=0 dh=0 dv=0
PairPos2: "'kern' Horizontal Kerning in Latin lookup 0 per glyph data 1" eacute dx=0 dy=0 dh=-20 dv=0 dx=0 dy=0 dh=0 dv=0
PairPos2: "'kern' Horizontal Kerning in Latin lookup 0 per glyph data 1" egrave dx=0 dy=0 dh=-20 dv=0 dx=0 dy=0 dh=0 dv=0
PairPos2: "'kern' Horizontal Kerning in Latin lookup 0 per glyph data 1" ccedilla dx=0 dy=0 dh=-20 dv=0 dx=0 dy=0 dh=0 dv=0
PairPos2: "'kern' Horizontal Kerning in Latin lookup 0 per glyph data 1" aring dx=0 dy=0 dh=-10 dv=0 dx=0 dy=0 dh=0 dv=0
PairPos2: "'kern' Horizontal Kerning in Latin lookup 0 per glyph data 1" adieresis dx=0 dy=0 dh=-10 dv=0 dx=0 dy=0 dh=0 dv=0
PairPos2: "'kern' Horizontal Kerning in Latin lookup 0 per glyph data 1" atilde dx=0 dy=0 dh=-10 dv=0 dx=0 dy=0 dh=0 dv=0
PairPos2: "'kern' Horizontal Kerning in Latin lookup 0 per glyph data 1" acircumflex dx=0 dy=0 dh=-10 dv=0 dx=0 dy=0 dh=0 dv=0
PairPos2: "'kern' Horizontal Kerning in Latin lookup 0 per glyph data 1" aacute dx=0 dy=0 dh=-10 dv=0 dx=0 dy=0 dh=0 dv=0
PairPos2: "'kern' Horizontal Kerning in Latin lookup 0 per glyph data 1" agrave dx=0 dy=0 dh=-10 dv=0 dx=0 dy=0 dh=0 dv=0
PairPos2: "'kern' Horizontal Kerning in Latin lookup 0 per glyph data 1" germandbls dx=0 dy=0 dh=-40 dv=0 dx=0 dy=0 dh=0 dv=0
PairPos2: "'kern' Horizontal Kerning in Latin lookup 0 per glyph data 1" Thorn dx=0 dy=0 dh=-27 dv=0 dx=0 dy=0 dh=0 dv=0
PairPos2: "'kern' Horizontal Kerning in Latin lookup 0 per glyph data 1" Yacute dx=0 dy=0 dh=-29 dv=0 dx=0 dy=0 dh=0 dv=0
PairPos2: "'kern' Horizontal Kerning in Latin lookup 0 per glyph data 1" Udieresis dx=0 dy=0 dh=-25 dv=0 dx=0 dy=0 dh=0 dv=0
PairPos2: "'kern' Horizontal Kerning in Latin lookup 0 per glyph data 1" Ucircumflex dx=0 dy=0 dh=-25 dv=0 dx=0 dy=0 dh=0 dv=0
PairPos2: "'kern' Horizontal Kerning in Latin lookup 0 per glyph data 1" Uacute dx=0 dy=0 dh=-25 dv=0 dx=0 dy=0 dh=0 dv=0
PairPos2: "'kern' Horizontal Kerning in Latin lookup 0 per glyph data 1" Ugrave dx=0 dy=0 dh=-25 dv=0 dx=0 dy=0 dh=0 dv=0
PairPos2: "'kern' Horizontal Kerning in Latin lookup 0 per glyph data 1" Odieresis dx=0 dy=0 dh=-25 dv=0 dx=0 dy=0 dh=0 dv=0
PairPos2: "'kern' Horizontal Kerning in Latin lookup 0 per glyph data 1" Otilde dx=0 dy=0 dh=-25 dv=0 dx=0 dy=0 dh=0 dv=0
PairPos2: "'kern' Horizontal Kerning in Latin lookup 0 per glyph data 1" Ocircumflex dx=0 dy=0 dh=-25 dv=0 dx=0 dy=0 dh=0 dv=0
PairPos2: "'kern' Horizontal Kerning in Latin lookup 0 per glyph data 1" Oacute dx=0 dy=0 dh=-25 dv=0 dx=0 dy=0 dh=0 dv=0
PairPos2: "'kern' Horizontal Kerning in Latin lookup 0 per glyph data 1" Ograve dx=0 dy=0 dh=-25 dv=0 dx=0 dy=0 dh=0 dv=0
PairPos2: "'kern' Horizontal Kerning in Latin lookup 0 per glyph data 1" Ntilde dx=0 dy=0 dh=-27 dv=0 dx=0 dy=0 dh=0 dv=0
PairPos2: "'kern' Horizontal Kerning in Latin lookup 0 per glyph data 1" Idieresis dx=0 dy=0 dh=-27 dv=0 dx=0 dy=0 dh=0 dv=0
PairPos2: "'kern' Horizontal Kerning in Latin lookup 0 per glyph data 1" Icircumflex dx=0 dy=0 dh=-27 dv=0 dx=0 dy=0 dh=0 dv=0
PairPos2: "'kern' Horizontal Kerning in Latin lookup 0 per glyph data 1" Iacute dx=0 dy=0 dh=-27 dv=0 dx=0 dy=0 dh=0 dv=0
PairPos2: "'kern' Horizontal Kerning in Latin lookup 0 per glyph data 1" Igrave dx=0 dy=0 dh=-27 dv=0 dx=0 dy=0 dh=0 dv=0
PairPos2: "'kern' Horizontal Kerning in Latin lookup 0 per glyph data 1" Edieresis dx=0 dy=0 dh=-27 dv=0 dx=0 dy=0 dh=0 dv=0
PairPos2: "'kern' Horizontal Kerning in Latin lookup 0 per glyph data 1" Ecircumflex dx=0 dy=0 dh=-27 dv=0 dx=0 dy=0 dh=0 dv=0
PairPos2: "'kern' Horizontal Kerning in Latin lookup 0 per glyph data 1" Eacute dx=0 dy=0 dh=-27 dv=0 dx=0 dy=0 dh=0 dv=0
PairPos2: "'kern' Horizontal Kerning in Latin lookup 0 per glyph data 1" Egrave dx=0 dy=0 dh=-27 dv=0 dx=0 dy=0 dh=0 dv=0
PairPos2: "'kern' Horizontal Kerning in Latin lookup 0 per glyph data 1" Ccedilla dx=0 dy=0 dh=-25 dv=0 dx=0 dy=0 dh=0 dv=0
PairPos2: "'kern' Horizontal Kerning in Latin lookup 0 per glyph data 1" AE dx=0 dy=0 dh=-43 dv=0 dx=0 dy=0 dh=0 dv=0
PairPos2: "'kern' Horizontal Kerning in Latin lookup 0 per glyph data 1" Aring dx=0 dy=0 dh=-43 dv=0 dx=0 dy=0 dh=0 dv=0
PairPos2: "'kern' Horizontal Kerning in Latin lookup 0 per glyph data 1" Adieresis dx=0 dy=0 dh=-43 dv=0 dx=0 dy=0 dh=0 dv=0
PairPos2: "'kern' Horizontal Kerning in Latin lookup 0 per glyph data 1" Atilde dx=0 dy=0 dh=-43 dv=0 dx=0 dy=0 dh=0 dv=0
PairPos2: "'kern' Horizontal Kerning in Latin lookup 0 per glyph data 1" Acircumflex dx=0 dy=0 dh=-43 dv=0 dx=0 dy=0 dh=0 dv=0
PairPos2: "'kern' Horizontal Kerning in Latin lookup 0 per glyph data 1" Aacute dx=0 dy=0 dh=-43 dv=0 dx=0 dy=0 dh=0 dv=0
PairPos2: "'kern' Horizontal Kerning in Latin lookup 0 per glyph data 1" Agrave dx=0 dy=0 dh=-43 dv=0 dx=0 dy=0 dh=0 dv=0
PairPos2: "'kern' Horizontal Kerning in Latin lookup 0 per glyph data 1" mu dx=0 dy=0 dh=-40 dv=0 dx=0 dy=0 dh=0 dv=0
PairPos2: "'kern' Horizontal Kerning in Latin lookup 0 per glyph data 1" brokenbar dx=0 dy=0 dh=-40 dv=0 dx=0 dy=0 dh=0 dv=0
PairPos2: "'kern' Horizontal Kerning in Latin lookup 0 per glyph data 1" cent dx=0 dy=0 dh=-20 dv=0 dx=0 dy=0 dh=0 dv=0
PairPos2: "'kern' Horizontal Kerning in Latin lookup 0 per glyph data 1" exclamdown dx=0 dy=0 dh=-40 dv=0 dx=0 dy=0 dh=0 dv=0
PairPos2: "'kern' Horizontal Kerning in Latin lookup 0 per glyph data 1" bar dx=0 dy=0 dh=-40 dv=0 dx=0 dy=0 dh=0 dv=0
PairPos2: "'kern' Horizontal Kerning in Latin lookup 0 per glyph data 1" y dx=0 dy=0 dh=-10 dv=0 dx=0 dy=0 dh=0 dv=0
PairPos2: "'kern' Horizontal Kerning in Latin lookup 0 per glyph data 1" w dx=0 dy=0 dh=-10 dv=0 dx=0 dy=0 dh=0 dv=0
PairPos2: "'kern' Horizontal Kerning in Latin lookup 0 per glyph data 1" v dx=0 dy=0 dh=-13 dv=0 dx=0 dy=0 dh=0 dv=0
PairPos2: "'kern' Horizontal Kerning in Latin lookup 0 per glyph data 1" u dx=0 dy=0 dh=-10 dv=0 dx=0 dy=0 dh=0 dv=0
PairPos2: "'kern' Horizontal Kerning in Latin lookup 0 per glyph data 1" t dx=0 dy=0 dh=-10 dv=0 dx=0 dy=0 dh=0 dv=0
PairPos2: "'kern' Horizontal Kerning in Latin lookup 0 per glyph data 1" s dx=0 dy=0 dh=-30 dv=0 dx=0 dy=0 dh=0 dv=0
PairPos2: "'kern' Horizontal Kerning in Latin lookup 0 per glyph data 1" r dx=0 dy=0 dh=-40 dv=0 dx=0 dy=0 dh=0 dv=0
PairPos2: "'kern' Horizontal Kerning in Latin lookup 0 per glyph data 1" q dx=0 dy=0 dh=-20 dv=0 dx=0 dy=0 dh=0 dv=0
PairPos2: "'kern' Horizontal Kerning in Latin lookup 0 per glyph data 1" p dx=0 dy=0 dh=-40 dv=0 dx=0 dy=0 dh=0 dv=0
PairPos2: "'kern' Horizontal Kerning in Latin lookup 0 per glyph data 1" o dx=0 dy=0 dh=-70 dv=0 dx=0 dy=0 dh=0 dv=0
PairPos2: "'kern' Horizontal Kerning in Latin lookup 0 per glyph data 1" n dx=0 dy=0 dh=-40 dv=0 dx=0 dy=0 dh=0 dv=0
PairPos2: "'kern' Horizontal Kerning in Latin lookup 0 per glyph data 1" m dx=0 dy=0 dh=-40 dv=0 dx=0 dy=0 dh=0 dv=0
PairPos2: "'kern' Horizontal Kerning in Latin lookup 0 per glyph data 1" l dx=0 dy=0 dh=-40 dv=0 dx=0 dy=0 dh=0 dv=0
PairPos2: "'kern' Horizontal Kerning in Latin lookup 0 per glyph data 1" k dx=0 dy=0 dh=-40 dv=0 dx=0 dy=0 dh=0 dv=0
PairPos2: "'kern' Horizontal Kerning in Latin lookup 0 per glyph data 1" j dx=0 dy=0 dh=-40 dv=0 dx=0 dy=0 dh=0 dv=0
PairPos2: "'kern' Horizontal Kerning in Latin lookup 0 per glyph data 1" i dx=0 dy=0 dh=-40 dv=0 dx=0 dy=0 dh=0 dv=0
PairPos2: "'kern' Horizontal Kerning in Latin lookup 0 per glyph data 1" h dx=0 dy=0 dh=-40 dv=0 dx=0 dy=0 dh=0 dv=0
PairPos2: "'kern' Horizontal Kerning in Latin lookup 0 per glyph data 1" g dx=0 dy=0 dh=-48 dv=0 dx=0 dy=0 dh=0 dv=0
PairPos2: "'kern' Horizontal Kerning in Latin lookup 0 per glyph data 1" f dx=0 dy=0 dh=-40 dv=0 dx=0 dy=0 dh=0 dv=0
PairPos2: "'kern' Horizontal Kerning in Latin lookup 0 per glyph data 1" e dx=0 dy=0 dh=-20 dv=0 dx=0 dy=0 dh=0 dv=0
PairPos2: "'kern' Horizontal Kerning in Latin lookup 0 per glyph data 1" d dx=0 dy=0 dh=-20 dv=0 dx=0 dy=0 dh=0 dv=0
PairPos2: "'kern' Horizontal Kerning in Latin lookup 0 per glyph data 1" c dx=0 dy=0 dh=-20 dv=0 dx=0 dy=0 dh=0 dv=0
PairPos2: "'kern' Horizontal Kerning in Latin lookup 0 per glyph data 1" b dx=0 dy=0 dh=-40 dv=0 dx=0 dy=0 dh=0 dv=0
PairPos2: "'kern' Horizontal Kerning in Latin lookup 0 per glyph data 1" a dx=0 dy=0 dh=-10 dv=0 dx=0 dy=0 dh=0 dv=0
PairPos2: "'kern' Horizontal Kerning in Latin lookup 0 per glyph data 1" bracketright dx=0 dy=0 dh=-40 dv=0 dx=0 dy=0 dh=0 dv=0
PairPos2: "'kern' Horizontal Kerning in Latin lookup 0 per glyph data 1" bracketleft dx=0 dy=0 dh=-40 dv=0 dx=0 dy=0 dh=0 dv=0
PairPos2: "'kern' Horizontal Kerning in Latin lookup 0 per glyph data 1" Z dx=0 dy=0 dh=-29 dv=0 dx=0 dy=0 dh=0 dv=0
PairPos2: "'kern' Horizontal Kerning in Latin lookup 0 per glyph data 1" Y dx=0 dy=0 dh=-29 dv=0 dx=0 dy=0 dh=0 dv=0
PairPos2: "'kern' Horizontal Kerning in Latin lookup 0 per glyph data 1" U dx=0 dy=0 dh=-25 dv=0 dx=0 dy=0 dh=0 dv=0
PairPos2: "'kern' Horizontal Kerning in Latin lookup 0 per glyph data 1" T dx=0 dy=0 dh=-15 dv=0 dx=0 dy=0 dh=0 dv=0
PairPos2: "'kern' Horizontal Kerning in Latin lookup 0 per glyph data 1" S dx=0 dy=0 dh=-15 dv=0 dx=0 dy=0 dh=0 dv=0
PairPos2: "'kern' Horizontal Kerning in Latin lookup 0 per glyph data 1" R dx=0 dy=0 dh=-27 dv=0 dx=0 dy=0 dh=0 dv=0
PairPos2: "'kern' Horizontal Kerning in Latin lookup 0 per glyph data 1" Q dx=0 dy=0 dh=-25 dv=0 dx=0 dy=0 dh=0 dv=0
PairPos2: "'kern' Horizontal Kerning in Latin lookup 0 per glyph data 1" P dx=0 dy=0 dh=-27 dv=0 dx=0 dy=0 dh=0 dv=0
PairPos2: "'kern' Horizontal Kerning in Latin lookup 0 per glyph data 1" O dx=0 dy=0 dh=-25 dv=0 dx=0 dy=0 dh=0 dv=0
PairPos2: "'kern' Horizontal Kerning in Latin lookup 0 per glyph data 1" N dx=0 dy=0 dh=-27 dv=0 dx=0 dy=0 dh=0 dv=0
PairPos2: "'kern' Horizontal Kerning in Latin lookup 0 per glyph data 1" M dx=0 dy=0 dh=-27 dv=0 dx=0 dy=0 dh=0 dv=0
PairPos2: "'kern' Horizontal Kerning in Latin lookup 0 per glyph data 1" L dx=0 dy=0 dh=-27 dv=0 dx=0 dy=0 dh=0 dv=0
PairPos2: "'kern' Horizontal Kerning in Latin lookup 0 per glyph data 1" K dx=0 dy=0 dh=-27 dv=0 dx=0 dy=0 dh=0 dv=0
PairPos2: "'kern' Horizontal Kerning in Latin lookup 0 per glyph data 1" J dx=0 dy=0 dh=-27 dv=0 dx=0 dy=0 dh=0 dv=0
PairPos2: "'kern' Horizontal Kerning in Latin lookup 0 per glyph data 1" I dx=0 dy=0 dh=-27 dv=0 dx=0 dy=0 dh=0 dv=0
PairPos2: "'kern' Horizontal Kerning in Latin lookup 0 per glyph data 1" H dx=0 dy=0 dh=-27 dv=0 dx=0 dy=0 dh=0 dv=0
PairPos2: "'kern' Horizontal Kerning in Latin lookup 0 per glyph data 1" G dx=0 dy=0 dh=-25 dv=0 dx=0 dy=0 dh=0 dv=0
PairPos2: "'kern' Horizontal Kerning in Latin lookup 0 per glyph data 1" F dx=0 dy=0 dh=-27 dv=0 dx=0 dy=0 dh=0 dv=0
PairPos2: "'kern' Horizontal Kerning in Latin lookup 0 per glyph data 1" E dx=0 dy=0 dh=-27 dv=0 dx=0 dy=0 dh=0 dv=0
PairPos2: "'kern' Horizontal Kerning in Latin lookup 0 per glyph data 1" D dx=0 dy=0 dh=-27 dv=0 dx=0 dy=0 dh=0 dv=0
PairPos2: "'kern' Horizontal Kerning in Latin lookup 0 per glyph data 1" C dx=0 dy=0 dh=-25 dv=0 dx=0 dy=0 dh=0 dv=0
PairPos2: "'kern' Horizontal Kerning in Latin lookup 0 per glyph data 1" B dx=0 dy=0 dh=-27 dv=0 dx=0 dy=0 dh=0 dv=0
PairPos2: "'kern' Horizontal Kerning in Latin lookup 0 per glyph data 1" A dx=0 dy=0 dh=-43 dv=0 dx=0 dy=0 dh=0 dv=0
PairPos2: "'kern' Horizontal Kerning in Latin lookup 0 per glyph data 1" one dx=0 dy=0 dh=-40 dv=0 dx=0 dy=0 dh=0 dv=0
PairPos2: "'kern' Horizontal Kerning in Latin lookup 0 per glyph data 1" parenright dx=0 dy=0 dh=-40 dv=0 dx=0 dy=0 dh=0 dv=0
PairPos2: "'kern' Horizontal Kerning in Latin lookup 0 per glyph data 1" parenleft dx=0 dy=0 dh=-40 dv=0 dx=0 dy=0 dh=0 dv=0
PairPos2: "'kern' Horizontal Kerning in Latin lookup 0 per glyph data 1" exclam dx=0 dy=0 dh=-40 dv=0 dx=0 dy=0 dh=0 dv=0
EndChar

StartChar: Q
Encoding: 81 81 52
Width: 670
GlyphClass: 2
Flags: W
LayerCount: 2
Fore
SplineSet
40 348 m 0,0,1
 40 511 40 511 124.5 607.5 c 128,-1,2
 209 704 209 704 335 704 c 0,3,4
 630 704 630 704 630 348 c 0,5,6
 630 195 630 195 554.5 101 c 128,-1,7
 479 7 479 7 362 -3 c 1,8,9
 390 -102 390 -102 520 -194 c 1,10,-1
 461 -200 l 1,11,12
 411 -166 411 -166 363 -113 c 128,-1,13
 315 -60 315 -60 298 -2 c 1,14,15
 40 18 40 18 40 348 c 0,0,1
108 350 m 0,16,17
 108 56 108 56 335 56 c 0,18,19
 433 56 433 56 497.5 134 c 128,-1,20
 562 212 562 212 562 350 c 0,21,22
 562 644 562 644 335 644 c 0,23,24
 237 644 237 644 172.5 565.5 c 128,-1,25
 108 487 108 487 108 350 c 0,16,17
EndSplineSet
EndChar

StartChar: R
Encoding: 82 82 53
Width: 632
GlyphClass: 2
Flags: W
LayerCount: 2
Fore
SplineSet
50 645 m 1,0,-1
 50 700 l 1,1,-1
 291 700 l 2,2,3
 394 700 394 700 450 655 c 128,-1,4
 506 610 506 610 506 521 c 0,5,6
 506 462 506 462 464.5 398.5 c 128,-1,7
 423 335 423 335 383 312 c 1,8,-1
 541 55 l 1,9,-1
 612 55 l 1,10,-1
 612 0 l 1,11,-1
 502 0 l 1,12,-1
 324 287 l 1,13,-1
 179 287 l 1,14,-1
 179 55 l 1,15,-1
 252 55 l 1,16,-1
 252 0 l 1,17,-1
 50 0 l 1,18,-1
 50 55 l 1,19,-1
 111 55 l 1,20,-1
 111 645 l 1,21,-1
 50 645 l 1,0,-1
286 645 m 2,22,-1
 179 645 l 1,23,-1
 179 342 l 1,24,-1
 344 342 l 1,25,26
 438 428 438 428 438 515 c 0,27,28
 438 579 438 579 399 612 c 128,-1,29
 360 645 360 645 286 645 c 2,22,-1
EndSplineSet
EndChar

StartChar: S
Encoding: 83 83 54
Width: 527
GlyphClass: 2
Flags: W
LayerCount: 2
Fore
SplineSet
238 59 m 0,0,1
 349 59 349 59 403 115 c 0,2,3
 434 147 434 147 434 191 c 128,-1,4
 434 235 434 235 412.5 263.5 c 128,-1,5
 391 292 391 292 357 307.5 c 128,-1,6
 323 323 323 323 281.5 334.5 c 128,-1,7
 240 346 240 346 198.5 359 c 128,-1,8
 157 372 157 372 123 390 c 128,-1,9
 89 408 89 408 67.5 441 c 128,-1,10
 46 474 46 474 46 520 c 0,11,12
 46 600 46 600 106 651 c 128,-1,13
 166 702 166 702 265 702 c 128,-1,14
 364 702 364 702 451 682 c 1,15,-1
 451 681 l 1,16,-1
 454 681 l 1,17,-1
 465 556 l 1,18,-1
 416 548 l 1,19,-1
 405 632 l 1,20,21
 349 642 349 642 281.5 642 c 128,-1,22
 214 642 214 642 164 612.5 c 128,-1,23
 114 583 114 583 114 529 c 128,-1,24
 114 475 114 475 154 447 c 128,-1,25
 194 419 194 419 251 404.5 c 128,-1,26
 308 390 308 390 365 372 c 128,-1,27
 422 354 422 354 462 310 c 128,-1,28
 502 266 502 266 502 194 c 0,29,30
 502 97 502 97 430 48 c 128,-1,31
 358 -1 358 -1 251 -1 c 0,32,33
 116 -1 116 -1 25 60 c 1,34,-1
 26 166 l 1,35,-1
 75 171 l 1,36,-1
 77 95 l 1,37,38
 153 59 153 59 238 59 c 0,0,1
EndSplineSet
EndChar

StartChar: T
Encoding: 84 84 55
Width: 521
GlyphClass: 2
Flags: W
LayerCount: 2
Fore
SplineSet
162 0 m 1,0,-1
 162 55 l 1,1,-1
 227 55 l 1,2,-1
 227 640 l 1,3,-1
 80 640 l 1,4,-1
 69 548 l 1,5,-1
 20 556 l 1,6,-1
 32 700 l 1,7,-1
 488 700 l 1,8,-1
 501 556 l 1,9,-1
 451 548 l 1,10,-1
 439 640 l 1,11,-1
 290 640 l 1,12,-1
 290 55 l 1,13,-1
 363 55 l 1,14,-1
 363 0 l 1,15,-1
 162 0 l 1,0,-1
EndSplineSet
EndChar

StartChar: U
Encoding: 85 85 56
Width: 728
GlyphClass: 2
Flags: W
LayerCount: 2
Fore
SplineSet
50 645 m 1,0,-1
 50 700 l 1,1,-1
 252 700 l 1,2,-1
 252 645 l 1,3,-1
 183 645 l 1,4,-1
 183 301 l 2,5,6
 183 146 183 146 244 95 c 0,7,8
 273 70 273 70 303 60.5 c 128,-1,9
 333 51 333 51 373 51 c 0,10,11
 454 51 454 51 505.5 111 c 128,-1,12
 557 171 557 171 557 301 c 2,13,-1
 557 645 l 1,14,-1
 491 645 l 1,15,-1
 491 700 l 1,16,-1
 683 700 l 1,17,-1
 683 645 l 1,18,-1
 620 645 l 1,19,-1
 620 300 l 2,20,21
 620 143 620 143 551 69.5 c 128,-1,22
 482 -4 482 -4 373 -4 c 0,23,24
 318 -4 318 -4 276.5 7.5 c 128,-1,25
 235 19 235 19 196 50 c 0,26,27
 115 113 115 113 115 300 c 2,28,-1
 115 645 l 1,29,-1
 50 645 l 1,0,-1
EndSplineSet
EndChar

StartChar: V
Encoding: 86 86 57
Width: 709
GlyphClass: 2
Flags: W
LayerCount: 2
Fore
SplineSet
493 645 m 1,0,-1
 493 700 l 1,1,-1
 689 700 l 1,2,-1
 689 645 l 1,3,-1
 617 645 l 1,4,-1
 389 0 l 1,5,-1
 323 0 l 1,6,-1
 86 645 l 1,7,-1
 20 645 l 1,8,-1
 20 700 l 1,9,-1
 222 700 l 1,10,-1
 222 645 l 1,11,-1
 153 645 l 1,12,-1
 361 76 l 1,13,-1
 553 645 l 1,14,-1
 493 645 l 1,0,-1
EndSplineSet
PairPos2: "'kern' Horizontal Kerning in Latin lookup 0 per glyph data 1" oe dx=0 dy=0 dh=-97 dv=0 dx=0 dy=0 dh=0 dv=0
PairPos2: "'kern' Horizontal Kerning in Latin lookup 0 per glyph data 1" OE dx=0 dy=0 dh=-29 dv=0 dx=0 dy=0 dh=0 dv=0
PairPos2: "'kern' Horizontal Kerning in Latin lookup 0 per glyph data 1" dotlessi dx=0 dy=0 dh=-60 dv=0 dx=0 dy=0 dh=0 dv=0
PairPos2: "'kern' Horizontal Kerning in Latin lookup 0 per glyph data 1" thorn dx=0 dy=0 dh=-60 dv=0 dx=0 dy=0 dh=0 dv=0
PairPos2: "'kern' Horizontal Kerning in Latin lookup 0 per glyph data 1" oslash dx=0 dy=0 dh=-98 dv=0 dx=0 dy=0 dh=0 dv=0
PairPos2: "'kern' Horizontal Kerning in Latin lookup 0 per glyph data 1" odieresis dx=0 dy=0 dh=-97 dv=0 dx=0 dy=0 dh=0 dv=0
PairPos2: "'kern' Horizontal Kerning in Latin lookup 0 per glyph data 1" otilde dx=0 dy=0 dh=-97 dv=0 dx=0 dy=0 dh=0 dv=0
PairPos2: "'kern' Horizontal Kerning in Latin lookup 0 per glyph data 1" ocircumflex dx=0 dy=0 dh=-97 dv=0 dx=0 dy=0 dh=0 dv=0
PairPos2: "'kern' Horizontal Kerning in Latin lookup 0 per glyph data 1" oacute dx=0 dy=0 dh=-97 dv=0 dx=0 dy=0 dh=0 dv=0
PairPos2: "'kern' Horizontal Kerning in Latin lookup 0 per glyph data 1" ograve dx=0 dy=0 dh=-97 dv=0 dx=0 dy=0 dh=0 dv=0
PairPos2: "'kern' Horizontal Kerning in Latin lookup 0 per glyph data 1" ntilde dx=0 dy=0 dh=-60 dv=0 dx=0 dy=0 dh=0 dv=0
PairPos2: "'kern' Horizontal Kerning in Latin lookup 0 per glyph data 1" eth dx=0 dy=0 dh=-97 dv=0 dx=0 dy=0 dh=0 dv=0
PairPos2: "'kern' Horizontal Kerning in Latin lookup 0 per glyph data 1" idieresis dx=0 dy=0 dh=-60 dv=0 dx=0 dy=0 dh=0 dv=0
PairPos2: "'kern' Horizontal Kerning in Latin lookup 0 per glyph data 1" icircumflex dx=0 dy=0 dh=-60 dv=0 dx=0 dy=0 dh=0 dv=0
PairPos2: "'kern' Horizontal Kerning in Latin lookup 0 per glyph data 1" iacute dx=0 dy=0 dh=-60 dv=0 dx=0 dy=0 dh=0 dv=0
PairPos2: "'kern' Horizontal Kerning in Latin lookup 0 per glyph data 1" igrave dx=0 dy=0 dh=-60 dv=0 dx=0 dy=0 dh=0 dv=0
PairPos2: "'kern' Horizontal Kerning in Latin lookup 0 per glyph data 1" edieresis dx=0 dy=0 dh=-117 dv=0 dx=0 dy=0 dh=0 dv=0
PairPos2: "'kern' Horizontal Kerning in Latin lookup 0 per glyph data 1" ecircumflex dx=0 dy=0 dh=-117 dv=0 dx=0 dy=0 dh=0 dv=0
PairPos2: "'kern' Horizontal Kerning in Latin lookup 0 per glyph data 1" eacute dx=0 dy=0 dh=-117 dv=0 dx=0 dy=0 dh=0 dv=0
PairPos2: "'kern' Horizontal Kerning in Latin lookup 0 per glyph data 1" egrave dx=0 dy=0 dh=-117 dv=0 dx=0 dy=0 dh=0 dv=0
PairPos2: "'kern' Horizontal Kerning in Latin lookup 0 per glyph data 1" ccedilla dx=0 dy=0 dh=-117 dv=0 dx=0 dy=0 dh=0 dv=0
PairPos2: "'kern' Horizontal Kerning in Latin lookup 0 per glyph data 1" ae dx=0 dy=0 dh=-82 dv=0 dx=0 dy=0 dh=0 dv=0
PairPos2: "'kern' Horizontal Kerning in Latin lookup 0 per glyph data 1" aring dx=0 dy=0 dh=-83 dv=0 dx=0 dy=0 dh=0 dv=0
PairPos2: "'kern' Horizontal Kerning in Latin lookup 0 per glyph data 1" adieresis dx=0 dy=0 dh=-83 dv=0 dx=0 dy=0 dh=0 dv=0
PairPos2: "'kern' Horizontal Kerning in Latin lookup 0 per glyph data 1" atilde dx=0 dy=0 dh=-83 dv=0 dx=0 dy=0 dh=0 dv=0
PairPos2: "'kern' Horizontal Kerning in Latin lookup 0 per glyph data 1" acircumflex dx=0 dy=0 dh=-83 dv=0 dx=0 dy=0 dh=0 dv=0
PairPos2: "'kern' Horizontal Kerning in Latin lookup 0 per glyph data 1" aacute dx=0 dy=0 dh=-83 dv=0 dx=0 dy=0 dh=0 dv=0
PairPos2: "'kern' Horizontal Kerning in Latin lookup 0 per glyph data 1" agrave dx=0 dy=0 dh=-83 dv=0 dx=0 dy=0 dh=0 dv=0
PairPos2: "'kern' Horizontal Kerning in Latin lookup 0 per glyph data 1" germandbls dx=0 dy=0 dh=-60 dv=0 dx=0 dy=0 dh=0 dv=0
PairPos2: "'kern' Horizontal Kerning in Latin lookup 0 per glyph data 1" Thorn dx=0 dy=0 dh=-10 dv=0 dx=0 dy=0 dh=0 dv=0
PairPos2: "'kern' Horizontal Kerning in Latin lookup 0 per glyph data 1" Udieresis dx=0 dy=0 dh=-8 dv=0 dx=0 dy=0 dh=0 dv=0
PairPos2: "'kern' Horizontal Kerning in Latin lookup 0 per glyph data 1" Ucircumflex dx=0 dy=0 dh=-8 dv=0 dx=0 dy=0 dh=0 dv=0
PairPos2: "'kern' Horizontal Kerning in Latin lookup 0 per glyph data 1" Uacute dx=0 dy=0 dh=-8 dv=0 dx=0 dy=0 dh=0 dv=0
PairPos2: "'kern' Horizontal Kerning in Latin lookup 0 per glyph data 1" Ugrave dx=0 dy=0 dh=-8 dv=0 dx=0 dy=0 dh=0 dv=0
PairPos2: "'kern' Horizontal Kerning in Latin lookup 0 per glyph data 1" Odieresis dx=0 dy=0 dh=-29 dv=0 dx=0 dy=0 dh=0 dv=0
PairPos2: "'kern' Horizontal Kerning in Latin lookup 0 per glyph data 1" Otilde dx=0 dy=0 dh=-29 dv=0 dx=0 dy=0 dh=0 dv=0
PairPos2: "'kern' Horizontal Kerning in Latin lookup 0 per glyph data 1" Ocircumflex dx=0 dy=0 dh=-29 dv=0 dx=0 dy=0 dh=0 dv=0
PairPos2: "'kern' Horizontal Kerning in Latin lookup 0 per glyph data 1" Oacute dx=0 dy=0 dh=-29 dv=0 dx=0 dy=0 dh=0 dv=0
PairPos2: "'kern' Horizontal Kerning in Latin lookup 0 per glyph data 1" Ograve dx=0 dy=0 dh=-29 dv=0 dx=0 dy=0 dh=0 dv=0
PairPos2: "'kern' Horizontal Kerning in Latin lookup 0 per glyph data 1" Ntilde dx=0 dy=0 dh=-10 dv=0 dx=0 dy=0 dh=0 dv=0
PairPos2: "'kern' Horizontal Kerning in Latin lookup 0 per glyph data 1" Idieresis dx=0 dy=0 dh=-10 dv=0 dx=0 dy=0 dh=0 dv=0
PairPos2: "'kern' Horizontal Kerning in Latin lookup 0 per glyph data 1" Icircumflex dx=0 dy=0 dh=-10 dv=0 dx=0 dy=0 dh=0 dv=0
PairPos2: "'kern' Horizontal Kerning in Latin lookup 0 per glyph data 1" Iacute dx=0 dy=0 dh=-10 dv=0 dx=0 dy=0 dh=0 dv=0
PairPos2: "'kern' Horizontal Kerning in Latin lookup 0 per glyph data 1" Igrave dx=0 dy=0 dh=-10 dv=0 dx=0 dy=0 dh=0 dv=0
PairPos2: "'kern' Horizontal Kerning in Latin lookup 0 per glyph data 1" Edieresis dx=0 dy=0 dh=-10 dv=0 dx=0 dy=0 dh=0 dv=0
PairPos2: "'kern' Horizontal Kerning in Latin lookup 0 per glyph data 1" Ecircumflex dx=0 dy=0 dh=-10 dv=0 dx=0 dy=0 dh=0 dv=0
PairPos2: "'kern' Horizontal Kerning in Latin lookup 0 per glyph data 1" Eacute dx=0 dy=0 dh=-10 dv=0 dx=0 dy=0 dh=0 dv=0
PairPos2: "'kern' Horizontal Kerning in Latin lookup 0 per glyph data 1" Egrave dx=0 dy=0 dh=-10 dv=0 dx=0 dy=0 dh=0 dv=0
PairPos2: "'kern' Horizontal Kerning in Latin lookup 0 per glyph data 1" Ccedilla dx=0 dy=0 dh=-29 dv=0 dx=0 dy=0 dh=0 dv=0
PairPos2: "'kern' Horizontal Kerning in Latin lookup 0 per glyph data 1" AE dx=0 dy=0 dh=-85 dv=0 dx=0 dy=0 dh=0 dv=0
PairPos2: "'kern' Horizontal Kerning in Latin lookup 0 per glyph data 1" Aring dx=0 dy=0 dh=-85 dv=0 dx=0 dy=0 dh=0 dv=0
PairPos2: "'kern' Horizontal Kerning in Latin lookup 0 per glyph data 1" Adieresis dx=0 dy=0 dh=-85 dv=0 dx=0 dy=0 dh=0 dv=0
PairPos2: "'kern' Horizontal Kerning in Latin lookup 0 per glyph data 1" Atilde dx=0 dy=0 dh=-85 dv=0 dx=0 dy=0 dh=0 dv=0
PairPos2: "'kern' Horizontal Kerning in Latin lookup 0 per glyph data 1" Acircumflex dx=0 dy=0 dh=-85 dv=0 dx=0 dy=0 dh=0 dv=0
PairPos2: "'kern' Horizontal Kerning in Latin lookup 0 per glyph data 1" Aacute dx=0 dy=0 dh=-85 dv=0 dx=0 dy=0 dh=0 dv=0
PairPos2: "'kern' Horizontal Kerning in Latin lookup 0 per glyph data 1" Agrave dx=0 dy=0 dh=-85 dv=0 dx=0 dy=0 dh=0 dv=0
PairPos2: "'kern' Horizontal Kerning in Latin lookup 0 per glyph data 1" mu dx=0 dy=0 dh=-60 dv=0 dx=0 dy=0 dh=0 dv=0
PairPos2: "'kern' Horizontal Kerning in Latin lookup 0 per glyph data 1" brokenbar dx=0 dy=0 dh=-60 dv=0 dx=0 dy=0 dh=0 dv=0
PairPos2: "'kern' Horizontal Kerning in Latin lookup 0 per glyph data 1" cent dx=0 dy=0 dh=-117 dv=0 dx=0 dy=0 dh=0 dv=0
PairPos2: "'kern' Horizontal Kerning in Latin lookup 0 per glyph data 1" exclamdown dx=0 dy=0 dh=-60 dv=0 dx=0 dy=0 dh=0 dv=0
PairPos2: "'kern' Horizontal Kerning in Latin lookup 0 per glyph data 1" bar dx=0 dy=0 dh=-60 dv=0 dx=0 dy=0 dh=0 dv=0
PairPos2: "'kern' Horizontal Kerning in Latin lookup 0 per glyph data 1" s dx=0 dy=0 dh=-83 dv=0 dx=0 dy=0 dh=0 dv=0
PairPos2: "'kern' Horizontal Kerning in Latin lookup 0 per glyph data 1" r dx=0 dy=0 dh=-60 dv=0 dx=0 dy=0 dh=0 dv=0
PairPos2: "'kern' Horizontal Kerning in Latin lookup 0 per glyph data 1" q dx=0 dy=0 dh=-117 dv=0 dx=0 dy=0 dh=0 dv=0
PairPos2: "'kern' Horizontal Kerning in Latin lookup 0 per glyph data 1" p dx=0 dy=0 dh=-60 dv=0 dx=0 dy=0 dh=0 dv=0
PairPos2: "'kern' Horizontal Kerning in Latin lookup 0 per glyph data 1" o dx=0 dy=0 dh=-97 dv=0 dx=0 dy=0 dh=0 dv=0
PairPos2: "'kern' Horizontal Kerning in Latin lookup 0 per glyph data 1" n dx=0 dy=0 dh=-60 dv=0 dx=0 dy=0 dh=0 dv=0
PairPos2: "'kern' Horizontal Kerning in Latin lookup 0 per glyph data 1" m dx=0 dy=0 dh=-60 dv=0 dx=0 dy=0 dh=0 dv=0
PairPos2: "'kern' Horizontal Kerning in Latin lookup 0 per glyph data 1" l dx=0 dy=0 dh=-60 dv=0 dx=0 dy=0 dh=0 dv=0
PairPos2: "'kern' Horizontal Kerning in Latin lookup 0 per glyph data 1" k dx=0 dy=0 dh=-60 dv=0 dx=0 dy=0 dh=0 dv=0
PairPos2: "'kern' Horizontal Kerning in Latin lookup 0 per glyph data 1" j dx=0 dy=0 dh=-60 dv=0 dx=0 dy=0 dh=0 dv=0
PairPos2: "'kern' Horizontal Kerning in Latin lookup 0 per glyph data 1" i dx=0 dy=0 dh=-60 dv=0 dx=0 dy=0 dh=0 dv=0
PairPos2: "'kern' Horizontal Kerning in Latin lookup 0 per glyph data 1" h dx=0 dy=0 dh=-60 dv=0 dx=0 dy=0 dh=0 dv=0
PairPos2: "'kern' Horizontal Kerning in Latin lookup 0 per glyph data 1" f dx=0 dy=0 dh=-60 dv=0 dx=0 dy=0 dh=0 dv=0
PairPos2: "'kern' Horizontal Kerning in Latin lookup 0 per glyph data 1" e dx=0 dy=0 dh=-117 dv=0 dx=0 dy=0 dh=0 dv=0
PairPos2: "'kern' Horizontal Kerning in Latin lookup 0 per glyph data 1" d dx=0 dy=0 dh=-117 dv=0 dx=0 dy=0 dh=0 dv=0
PairPos2: "'kern' Horizontal Kerning in Latin lookup 0 per glyph data 1" c dx=0 dy=0 dh=-117 dv=0 dx=0 dy=0 dh=0 dv=0
PairPos2: "'kern' Horizontal Kerning in Latin lookup 0 per glyph data 1" b dx=0 dy=0 dh=-60 dv=0 dx=0 dy=0 dh=0 dv=0
PairPos2: "'kern' Horizontal Kerning in Latin lookup 0 per glyph data 1" a dx=0 dy=0 dh=-83 dv=0 dx=0 dy=0 dh=0 dv=0
PairPos2: "'kern' Horizontal Kerning in Latin lookup 0 per glyph data 1" bracketright dx=0 dy=0 dh=-60 dv=0 dx=0 dy=0 dh=0 dv=0
PairPos2: "'kern' Horizontal Kerning in Latin lookup 0 per glyph data 1" bracketleft dx=0 dy=0 dh=-60 dv=0 dx=0 dy=0 dh=0 dv=0
PairPos2: "'kern' Horizontal Kerning in Latin lookup 0 per glyph data 1" U dx=0 dy=0 dh=-8 dv=0 dx=0 dy=0 dh=0 dv=0
PairPos2: "'kern' Horizontal Kerning in Latin lookup 0 per glyph data 1" S dx=0 dy=0 dh=-15 dv=0 dx=0 dy=0 dh=0 dv=0
PairPos2: "'kern' Horizontal Kerning in Latin lookup 0 per glyph data 1" R dx=0 dy=0 dh=-10 dv=0 dx=0 dy=0 dh=0 dv=0
PairPos2: "'kern' Horizontal Kerning in Latin lookup 0 per glyph data 1" Q dx=0 dy=0 dh=-29 dv=0 dx=0 dy=0 dh=0 dv=0
PairPos2: "'kern' Horizontal Kerning in Latin lookup 0 per glyph data 1" P dx=0 dy=0 dh=-10 dv=0 dx=0 dy=0 dh=0 dv=0
PairPos2: "'kern' Horizontal Kerning in Latin lookup 0 per glyph data 1" O dx=0 dy=0 dh=-29 dv=0 dx=0 dy=0 dh=0 dv=0
PairPos2: "'kern' Horizontal Kerning in Latin lookup 0 per glyph data 1" N dx=0 dy=0 dh=-10 dv=0 dx=0 dy=0 dh=0 dv=0
PairPos2: "'kern' Horizontal Kerning in Latin lookup 0 per glyph data 1" M dx=0 dy=0 dh=-10 dv=0 dx=0 dy=0 dh=0 dv=0
PairPos2: "'kern' Horizontal Kerning in Latin lookup 0 per glyph data 1" L dx=0 dy=0 dh=-10 dv=0 dx=0 dy=0 dh=0 dv=0
PairPos2: "'kern' Horizontal Kerning in Latin lookup 0 per glyph data 1" K dx=0 dy=0 dh=-10 dv=0 dx=0 dy=0 dh=0 dv=0
PairPos2: "'kern' Horizontal Kerning in Latin lookup 0 per glyph data 1" J dx=0 dy=0 dh=-10 dv=0 dx=0 dy=0 dh=0 dv=0
PairPos2: "'kern' Horizontal Kerning in Latin lookup 0 per glyph data 1" I dx=0 dy=0 dh=-10 dv=0 dx=0 dy=0 dh=0 dv=0
PairPos2: "'kern' Horizontal Kerning in Latin lookup 0 per glyph data 1" H dx=0 dy=0 dh=-10 dv=0 dx=0 dy=0 dh=0 dv=0
PairPos2: "'kern' Horizontal Kerning in Latin lookup 0 per glyph data 1" G dx=0 dy=0 dh=-29 dv=0 dx=0 dy=0 dh=0 dv=0
PairPos2: "'kern' Horizontal Kerning in Latin lookup 0 per glyph data 1" F dx=0 dy=0 dh=-10 dv=0 dx=0 dy=0 dh=0 dv=0
PairPos2: "'kern' Horizontal Kerning in Latin lookup 0 per glyph data 1" E dx=0 dy=0 dh=-10 dv=0 dx=0 dy=0 dh=0 dv=0
PairPos2: "'kern' Horizontal Kerning in Latin lookup 0 per glyph data 1" D dx=0 dy=0 dh=-10 dv=0 dx=0 dy=0 dh=0 dv=0
PairPos2: "'kern' Horizontal Kerning in Latin lookup 0 per glyph data 1" C dx=0 dy=0 dh=-29 dv=0 dx=0 dy=0 dh=0 dv=0
PairPos2: "'kern' Horizontal Kerning in Latin lookup 0 per glyph data 1" B dx=0 dy=0 dh=-10 dv=0 dx=0 dy=0 dh=0 dv=0
PairPos2: "'kern' Horizontal Kerning in Latin lookup 0 per glyph data 1" A dx=0 dy=0 dh=-85 dv=0 dx=0 dy=0 dh=0 dv=0
PairPos2: "'kern' Horizontal Kerning in Latin lookup 0 per glyph data 1" one dx=0 dy=0 dh=-60 dv=0 dx=0 dy=0 dh=0 dv=0
PairPos2: "'kern' Horizontal Kerning in Latin lookup 0 per glyph data 1" parenright dx=0 dy=0 dh=-60 dv=0 dx=0 dy=0 dh=0 dv=0
PairPos2: "'kern' Horizontal Kerning in Latin lookup 0 per glyph data 1" parenleft dx=0 dy=0 dh=-60 dv=0 dx=0 dy=0 dh=0 dv=0
PairPos2: "'kern' Horizontal Kerning in Latin lookup 0 per glyph data 1" exclam dx=0 dy=0 dh=-60 dv=0 dx=0 dy=0 dh=0 dv=0
EndChar

StartChar: W
Encoding: 87 87 58
Width: 969
GlyphClass: 2
Flags: W
LayerCount: 2
Fore
SplineSet
20 645 m 1,0,-1
 20 700 l 1,1,-1
 222 700 l 1,2,-1
 222 645 l 1,3,-1
 147 645 l 1,4,-1
 286 101 l 1,5,-1
 451 700 l 1,6,-1
 507 700 l 1,7,-1
 663 99 l 1,8,-1
 813 645 l 1,9,-1
 753 645 l 1,10,-1
 753 700 l 1,11,-1
 949 700 l 1,12,-1
 949 645 l 1,13,-1
 877 645 l 1,14,-1
 689 0 l 1,15,-1
 628 0 l 1,16,-1
 477 596 l 1,17,-1
 312 0 l 1,18,-1
 250 0 l 1,19,-1
 84 645 l 1,20,-1
 20 645 l 1,0,-1
EndSplineSet
EndChar

StartChar: X
Encoding: 88 88 59
Width: 637
GlyphClass: 2
Flags: W
LayerCount: 2
Fore
SplineSet
401 0 m 1,0,-1
 401 55 l 1,1,-1
 470 55 l 1,2,-1
 308 322 l 1,3,-1
 155 55 l 1,4,-1
 226 55 l 1,5,-1
 226 0 l 1,6,-1
 20 0 l 1,7,-1
 20 55 l 1,8,-1
 87 55 l 1,9,-1
 277 373 l 1,10,-1
 105 645 l 1,11,-1
 40 645 l 1,12,-1
 40 700 l 1,13,-1
 242 700 l 1,14,-1
 242 645 l 1,15,-1
 182 645 l 1,16,-1
 321 414 l 1,17,-1
 453 645 l 1,18,-1
 393 645 l 1,19,-1
 393 700 l 1,20,-1
 589 700 l 1,21,-1
 589 645 l 1,22,-1
 522 645 l 1,23,-1
 352 363 l 1,24,-1
 546 55 l 1,25,-1
 617 55 l 1,26,-1
 617 0 l 1,27,-1
 401 0 l 1,0,-1
EndSplineSet
EndChar

StartChar: Y
Encoding: 89 89 60
Width: 682
GlyphClass: 2
Flags: W
LayerCount: 2
Fore
SplineSet
20 645 m 1,0,-1
 20 700 l 1,1,-1
 222 700 l 1,2,-1
 222 645 l 1,3,-1
 159 645 l 1,4,-1
 347 292 l 1,5,-1
 526 645 l 1,6,-1
 465 645 l 1,7,-1
 465 700 l 1,8,-1
 661 700 l 1,9,-1
 661 645 l 1,10,-1
 594 645 l 1,11,-1
 379 236 l 1,12,-1
 379 55 l 1,13,-1
 451 55 l 1,14,-1
 451 0 l 1,15,-1
 251 0 l 1,16,-1
 251 55 l 1,17,-1
 316 55 l 1,18,-1
 316 236 l 1,19,-1
 88 645 l 1,20,-1
 20 645 l 1,0,-1
EndSplineSet
EndChar

StartChar: Z
Encoding: 90 90 61
Width: 577
GlyphClass: 2
Flags: W
LayerCount: 2
Fore
SplineSet
35 0 m 1,0,-1
 25 55 l 1,1,-1
 418 645 l 1,2,-1
 100 645 l 1,3,-1
 88 548 l 1,4,-1
 38 556 l 1,5,-1
 51 700 l 1,6,-1
 486 700 l 1,7,-1
 496 645 l 1,8,-1
 103 55 l 1,9,-1
 488 55 l 1,10,-1
 503 180 l 1,11,-1
 552 175 l 1,12,-1
 537 0 l 1,13,-1
 35 0 l 1,0,-1
EndSplineSet
PairPos2: "'kern' Horizontal Kerning in Latin lookup 0 per glyph data 1" Ydieresis dx=0 dy=0 dh=-22 dv=0 dx=0 dy=0 dh=0 dv=0
PairPos2: "'kern' Horizontal Kerning in Latin lookup 0 per glyph data 1" oe dx=0 dy=0 dh=-49 dv=0 dx=0 dy=0 dh=0 dv=0
PairPos2: "'kern' Horizontal Kerning in Latin lookup 0 per glyph data 1" OE dx=0 dy=0 dh=-36 dv=0 dx=0 dy=0 dh=0 dv=0
PairPos2: "'kern' Horizontal Kerning in Latin lookup 0 per glyph data 1" dotlessi dx=0 dy=0 dh=-10 dv=0 dx=0 dy=0 dh=0 dv=0
PairPos2: "'kern' Horizontal Kerning in Latin lookup 0 per glyph data 1" ydieresis dx=0 dy=0 dh=-42 dv=0 dx=0 dy=0 dh=0 dv=0
PairPos2: "'kern' Horizontal Kerning in Latin lookup 0 per glyph data 1" thorn dx=0 dy=0 dh=-10 dv=0 dx=0 dy=0 dh=0 dv=0
PairPos2: "'kern' Horizontal Kerning in Latin lookup 0 per glyph data 1" yacute dx=0 dy=0 dh=-42 dv=0 dx=0 dy=0 dh=0 dv=0
PairPos2: "'kern' Horizontal Kerning in Latin lookup 0 per glyph data 1" udieresis dx=0 dy=0 dh=-20 dv=0 dx=0 dy=0 dh=0 dv=0
PairPos2: "'kern' Horizontal Kerning in Latin lookup 0 per glyph data 1" ucircumflex dx=0 dy=0 dh=-20 dv=0 dx=0 dy=0 dh=0 dv=0
PairPos2: "'kern' Horizontal Kerning in Latin lookup 0 per glyph data 1" uacute dx=0 dy=0 dh=-20 dv=0 dx=0 dy=0 dh=0 dv=0
PairPos2: "'kern' Horizontal Kerning in Latin lookup 0 per glyph data 1" ugrave dx=0 dy=0 dh=-20 dv=0 dx=0 dy=0 dh=0 dv=0
PairPos2: "'kern' Horizontal Kerning in Latin lookup 0 per glyph data 1" odieresis dx=0 dy=0 dh=-49 dv=0 dx=0 dy=0 dh=0 dv=0
PairPos2: "'kern' Horizontal Kerning in Latin lookup 0 per glyph data 1" otilde dx=0 dy=0 dh=-49 dv=0 dx=0 dy=0 dh=0 dv=0
PairPos2: "'kern' Horizontal Kerning in Latin lookup 0 per glyph data 1" ocircumflex dx=0 dy=0 dh=-49 dv=0 dx=0 dy=0 dh=0 dv=0
PairPos2: "'kern' Horizontal Kerning in Latin lookup 0 per glyph data 1" oacute dx=0 dy=0 dh=-49 dv=0 dx=0 dy=0 dh=0 dv=0
PairPos2: "'kern' Horizontal Kerning in Latin lookup 0 per glyph data 1" ograve dx=0 dy=0 dh=-49 dv=0 dx=0 dy=0 dh=0 dv=0
PairPos2: "'kern' Horizontal Kerning in Latin lookup 0 per glyph data 1" ntilde dx=0 dy=0 dh=-10 dv=0 dx=0 dy=0 dh=0 dv=0
PairPos2: "'kern' Horizontal Kerning in Latin lookup 0 per glyph data 1" eth dx=0 dy=0 dh=-49 dv=0 dx=0 dy=0 dh=0 dv=0
PairPos2: "'kern' Horizontal Kerning in Latin lookup 0 per glyph data 1" idieresis dx=0 dy=0 dh=-10 dv=0 dx=0 dy=0 dh=0 dv=0
PairPos2: "'kern' Horizontal Kerning in Latin lookup 0 per glyph data 1" icircumflex dx=0 dy=0 dh=-10 dv=0 dx=0 dy=0 dh=0 dv=0
PairPos2: "'kern' Horizontal Kerning in Latin lookup 0 per glyph data 1" iacute dx=0 dy=0 dh=-10 dv=0 dx=0 dy=0 dh=0 dv=0
PairPos2: "'kern' Horizontal Kerning in Latin lookup 0 per glyph data 1" igrave dx=0 dy=0 dh=-10 dv=0 dx=0 dy=0 dh=0 dv=0
PairPos2: "'kern' Horizontal Kerning in Latin lookup 0 per glyph data 1" edieresis dx=0 dy=0 dh=-48 dv=0 dx=0 dy=0 dh=0 dv=0
PairPos2: "'kern' Horizontal Kerning in Latin lookup 0 per glyph data 1" ecircumflex dx=0 dy=0 dh=-48 dv=0 dx=0 dy=0 dh=0 dv=0
PairPos2: "'kern' Horizontal Kerning in Latin lookup 0 per glyph data 1" eacute dx=0 dy=0 dh=-48 dv=0 dx=0 dy=0 dh=0 dv=0
PairPos2: "'kern' Horizontal Kerning in Latin lookup 0 per glyph data 1" egrave dx=0 dy=0 dh=-48 dv=0 dx=0 dy=0 dh=0 dv=0
PairPos2: "'kern' Horizontal Kerning in Latin lookup 0 per glyph data 1" ccedilla dx=0 dy=0 dh=-48 dv=0 dx=0 dy=0 dh=0 dv=0
PairPos2: "'kern' Horizontal Kerning in Latin lookup 0 per glyph data 1" aring dx=0 dy=0 dh=-8 dv=0 dx=0 dy=0 dh=0 dv=0
PairPos2: "'kern' Horizontal Kerning in Latin lookup 0 per glyph data 1" adieresis dx=0 dy=0 dh=-8 dv=0 dx=0 dy=0 dh=0 dv=0
PairPos2: "'kern' Horizontal Kerning in Latin lookup 0 per glyph data 1" atilde dx=0 dy=0 dh=-8 dv=0 dx=0 dy=0 dh=0 dv=0
PairPos2: "'kern' Horizontal Kerning in Latin lookup 0 per glyph data 1" acircumflex dx=0 dy=0 dh=-8 dv=0 dx=0 dy=0 dh=0 dv=0
PairPos2: "'kern' Horizontal Kerning in Latin lookup 0 per glyph data 1" aacute dx=0 dy=0 dh=-8 dv=0 dx=0 dy=0 dh=0 dv=0
PairPos2: "'kern' Horizontal Kerning in Latin lookup 0 per glyph data 1" agrave dx=0 dy=0 dh=-8 dv=0 dx=0 dy=0 dh=0 dv=0
PairPos2: "'kern' Horizontal Kerning in Latin lookup 0 per glyph data 1" germandbls dx=0 dy=0 dh=-10 dv=0 dx=0 dy=0 dh=0 dv=0
PairPos2: "'kern' Horizontal Kerning in Latin lookup 0 per glyph data 1" Thorn dx=0 dy=0 dh=-15 dv=0 dx=0 dy=0 dh=0 dv=0
PairPos2: "'kern' Horizontal Kerning in Latin lookup 0 per glyph data 1" Yacute dx=0 dy=0 dh=-22 dv=0 dx=0 dy=0 dh=0 dv=0
PairPos2: "'kern' Horizontal Kerning in Latin lookup 0 per glyph data 1" Udieresis dx=0 dy=0 dh=-29 dv=0 dx=0 dy=0 dh=0 dv=0
PairPos2: "'kern' Horizontal Kerning in Latin lookup 0 per glyph data 1" Ucircumflex dx=0 dy=0 dh=-29 dv=0 dx=0 dy=0 dh=0 dv=0
PairPos2: "'kern' Horizontal Kerning in Latin lookup 0 per glyph data 1" Uacute dx=0 dy=0 dh=-29 dv=0 dx=0 dy=0 dh=0 dv=0
PairPos2: "'kern' Horizontal Kerning in Latin lookup 0 per glyph data 1" Ugrave dx=0 dy=0 dh=-29 dv=0 dx=0 dy=0 dh=0 dv=0
PairPos2: "'kern' Horizontal Kerning in Latin lookup 0 per glyph data 1" Odieresis dx=0 dy=0 dh=-36 dv=0 dx=0 dy=0 dh=0 dv=0
PairPos2: "'kern' Horizontal Kerning in Latin lookup 0 per glyph data 1" Otilde dx=0 dy=0 dh=-36 dv=0 dx=0 dy=0 dh=0 dv=0
PairPos2: "'kern' Horizontal Kerning in Latin lookup 0 per glyph data 1" Ocircumflex dx=0 dy=0 dh=-36 dv=0 dx=0 dy=0 dh=0 dv=0
PairPos2: "'kern' Horizontal Kerning in Latin lookup 0 per glyph data 1" Oacute dx=0 dy=0 dh=-36 dv=0 dx=0 dy=0 dh=0 dv=0
PairPos2: "'kern' Horizontal Kerning in Latin lookup 0 per glyph data 1" Ograve dx=0 dy=0 dh=-36 dv=0 dx=0 dy=0 dh=0 dv=0
PairPos2: "'kern' Horizontal Kerning in Latin lookup 0 per glyph data 1" Ntilde dx=0 dy=0 dh=-15 dv=0 dx=0 dy=0 dh=0 dv=0
PairPos2: "'kern' Horizontal Kerning in Latin lookup 0 per glyph data 1" Idieresis dx=0 dy=0 dh=-15 dv=0 dx=0 dy=0 dh=0 dv=0
PairPos2: "'kern' Horizontal Kerning in Latin lookup 0 per glyph data 1" Icircumflex dx=0 dy=0 dh=-15 dv=0 dx=0 dy=0 dh=0 dv=0
PairPos2: "'kern' Horizontal Kerning in Latin lookup 0 per glyph data 1" Iacute dx=0 dy=0 dh=-15 dv=0 dx=0 dy=0 dh=0 dv=0
PairPos2: "'kern' Horizontal Kerning in Latin lookup 0 per glyph data 1" Igrave dx=0 dy=0 dh=-15 dv=0 dx=0 dy=0 dh=0 dv=0
PairPos2: "'kern' Horizontal Kerning in Latin lookup 0 per glyph data 1" Edieresis dx=0 dy=0 dh=-15 dv=0 dx=0 dy=0 dh=0 dv=0
PairPos2: "'kern' Horizontal Kerning in Latin lookup 0 per glyph data 1" Ecircumflex dx=0 dy=0 dh=-15 dv=0 dx=0 dy=0 dh=0 dv=0
PairPos2: "'kern' Horizontal Kerning in Latin lookup 0 per glyph data 1" Eacute dx=0 dy=0 dh=-15 dv=0 dx=0 dy=0 dh=0 dv=0
PairPos2: "'kern' Horizontal Kerning in Latin lookup 0 per glyph data 1" Egrave dx=0 dy=0 dh=-15 dv=0 dx=0 dy=0 dh=0 dv=0
PairPos2: "'kern' Horizontal Kerning in Latin lookup 0 per glyph data 1" Ccedilla dx=0 dy=0 dh=-36 dv=0 dx=0 dy=0 dh=0 dv=0
PairPos2: "'kern' Horizontal Kerning in Latin lookup 0 per glyph data 1" AE dx=0 dy=0 dh=-5 dv=0 dx=0 dy=0 dh=0 dv=0
PairPos2: "'kern' Horizontal Kerning in Latin lookup 0 per glyph data 1" Aring dx=0 dy=0 dh=-5 dv=0 dx=0 dy=0 dh=0 dv=0
PairPos2: "'kern' Horizontal Kerning in Latin lookup 0 per glyph data 1" Adieresis dx=0 dy=0 dh=-5 dv=0 dx=0 dy=0 dh=0 dv=0
PairPos2: "'kern' Horizontal Kerning in Latin lookup 0 per glyph data 1" Atilde dx=0 dy=0 dh=-5 dv=0 dx=0 dy=0 dh=0 dv=0
PairPos2: "'kern' Horizontal Kerning in Latin lookup 0 per glyph data 1" Acircumflex dx=0 dy=0 dh=-5 dv=0 dx=0 dy=0 dh=0 dv=0
PairPos2: "'kern' Horizontal Kerning in Latin lookup 0 per glyph data 1" Aacute dx=0 dy=0 dh=-5 dv=0 dx=0 dy=0 dh=0 dv=0
PairPos2: "'kern' Horizontal Kerning in Latin lookup 0 per glyph data 1" Agrave dx=0 dy=0 dh=-5 dv=0 dx=0 dy=0 dh=0 dv=0
PairPos2: "'kern' Horizontal Kerning in Latin lookup 0 per glyph data 1" mu dx=0 dy=0 dh=-10 dv=0 dx=0 dy=0 dh=0 dv=0
PairPos2: "'kern' Horizontal Kerning in Latin lookup 0 per glyph data 1" brokenbar dx=0 dy=0 dh=-10 dv=0 dx=0 dy=0 dh=0 dv=0
PairPos2: "'kern' Horizontal Kerning in Latin lookup 0 per glyph data 1" cent dx=0 dy=0 dh=-48 dv=0 dx=0 dy=0 dh=0 dv=0
PairPos2: "'kern' Horizontal Kerning in Latin lookup 0 per glyph data 1" exclamdown dx=0 dy=0 dh=-10 dv=0 dx=0 dy=0 dh=0 dv=0
PairPos2: "'kern' Horizontal Kerning in Latin lookup 0 per glyph data 1" bar dx=0 dy=0 dh=-10 dv=0 dx=0 dy=0 dh=0 dv=0
PairPos2: "'kern' Horizontal Kerning in Latin lookup 0 per glyph data 1" y dx=0 dy=0 dh=-42 dv=0 dx=0 dy=0 dh=0 dv=0
PairPos2: "'kern' Horizontal Kerning in Latin lookup 0 per glyph data 1" w dx=0 dy=0 dh=-52 dv=0 dx=0 dy=0 dh=0 dv=0
PairPos2: "'kern' Horizontal Kerning in Latin lookup 0 per glyph data 1" u dx=0 dy=0 dh=-20 dv=0 dx=0 dy=0 dh=0 dv=0
PairPos2: "'kern' Horizontal Kerning in Latin lookup 0 per glyph data 1" t dx=0 dy=0 dh=-20 dv=0 dx=0 dy=0 dh=0 dv=0
PairPos2: "'kern' Horizontal Kerning in Latin lookup 0 per glyph data 1" r dx=0 dy=0 dh=-10 dv=0 dx=0 dy=0 dh=0 dv=0
PairPos2: "'kern' Horizontal Kerning in Latin lookup 0 per glyph data 1" q dx=0 dy=0 dh=-48 dv=0 dx=0 dy=0 dh=0 dv=0
PairPos2: "'kern' Horizontal Kerning in Latin lookup 0 per glyph data 1" p dx=0 dy=0 dh=-10 dv=0 dx=0 dy=0 dh=0 dv=0
PairPos2: "'kern' Horizontal Kerning in Latin lookup 0 per glyph data 1" o dx=0 dy=0 dh=-49 dv=0 dx=0 dy=0 dh=0 dv=0
PairPos2: "'kern' Horizontal Kerning in Latin lookup 0 per glyph data 1" n dx=0 dy=0 dh=-10 dv=0 dx=0 dy=0 dh=0 dv=0
PairPos2: "'kern' Horizontal Kerning in Latin lookup 0 per glyph data 1" m dx=0 dy=0 dh=-10 dv=0 dx=0 dy=0 dh=0 dv=0
PairPos2: "'kern' Horizontal Kerning in Latin lookup 0 per glyph data 1" l dx=0 dy=0 dh=-10 dv=0 dx=0 dy=0 dh=0 dv=0
PairPos2: "'kern' Horizontal Kerning in Latin lookup 0 per glyph data 1" k dx=0 dy=0 dh=-10 dv=0 dx=0 dy=0 dh=0 dv=0
PairPos2: "'kern' Horizontal Kerning in Latin lookup 0 per glyph data 1" j dx=0 dy=0 dh=-10 dv=0 dx=0 dy=0 dh=0 dv=0
PairPos2: "'kern' Horizontal Kerning in Latin lookup 0 per glyph data 1" i dx=0 dy=0 dh=-10 dv=0 dx=0 dy=0 dh=0 dv=0
PairPos2: "'kern' Horizontal Kerning in Latin lookup 0 per glyph data 1" h dx=0 dy=0 dh=-10 dv=0 dx=0 dy=0 dh=0 dv=0
PairPos2: "'kern' Horizontal Kerning in Latin lookup 0 per glyph data 1" f dx=0 dy=0 dh=-10 dv=0 dx=0 dy=0 dh=0 dv=0
PairPos2: "'kern' Horizontal Kerning in Latin lookup 0 per glyph data 1" e dx=0 dy=0 dh=-48 dv=0 dx=0 dy=0 dh=0 dv=0
PairPos2: "'kern' Horizontal Kerning in Latin lookup 0 per glyph data 1" d dx=0 dy=0 dh=-48 dv=0 dx=0 dy=0 dh=0 dv=0
PairPos2: "'kern' Horizontal Kerning in Latin lookup 0 per glyph data 1" c dx=0 dy=0 dh=-48 dv=0 dx=0 dy=0 dh=0 dv=0
PairPos2: "'kern' Horizontal Kerning in Latin lookup 0 per glyph data 1" b dx=0 dy=0 dh=-10 dv=0 dx=0 dy=0 dh=0 dv=0
PairPos2: "'kern' Horizontal Kerning in Latin lookup 0 per glyph data 1" a dx=0 dy=0 dh=-8 dv=0 dx=0 dy=0 dh=0 dv=0
PairPos2: "'kern' Horizontal Kerning in Latin lookup 0 per glyph data 1" bracketright dx=0 dy=0 dh=-10 dv=0 dx=0 dy=0 dh=0 dv=0
PairPos2: "'kern' Horizontal Kerning in Latin lookup 0 per glyph data 1" bracketleft dx=0 dy=0 dh=-10 dv=0 dx=0 dy=0 dh=0 dv=0
PairPos2: "'kern' Horizontal Kerning in Latin lookup 0 per glyph data 1" Y dx=0 dy=0 dh=-22 dv=0 dx=0 dy=0 dh=0 dv=0
PairPos2: "'kern' Horizontal Kerning in Latin lookup 0 per glyph data 1" W dx=0 dy=0 dh=-20 dv=0 dx=0 dy=0 dh=0 dv=0
PairPos2: "'kern' Horizontal Kerning in Latin lookup 0 per glyph data 1" U dx=0 dy=0 dh=-29 dv=0 dx=0 dy=0 dh=0 dv=0
PairPos2: "'kern' Horizontal Kerning in Latin lookup 0 per glyph data 1" T dx=0 dy=0 dh=-15 dv=0 dx=0 dy=0 dh=0 dv=0
PairPos2: "'kern' Horizontal Kerning in Latin lookup 0 per glyph data 1" R dx=0 dy=0 dh=-15 dv=0 dx=0 dy=0 dh=0 dv=0
PairPos2: "'kern' Horizontal Kerning in Latin lookup 0 per glyph data 1" Q dx=0 dy=0 dh=-36 dv=0 dx=0 dy=0 dh=0 dv=0
PairPos2: "'kern' Horizontal Kerning in Latin lookup 0 per glyph data 1" P dx=0 dy=0 dh=-15 dv=0 dx=0 dy=0 dh=0 dv=0
PairPos2: "'kern' Horizontal Kerning in Latin lookup 0 per glyph data 1" O dx=0 dy=0 dh=-36 dv=0 dx=0 dy=0 dh=0 dv=0
PairPos2: "'kern' Horizontal Kerning in Latin lookup 0 per glyph data 1" N dx=0 dy=0 dh=-15 dv=0 dx=0 dy=0 dh=0 dv=0
PairPos2: "'kern' Horizontal Kerning in Latin lookup 0 per glyph data 1" M dx=0 dy=0 dh=-15 dv=0 dx=0 dy=0 dh=0 dv=0
PairPos2: "'kern' Horizontal Kerning in Latin lookup 0 per glyph data 1" L dx=0 dy=0 dh=-15 dv=0 dx=0 dy=0 dh=0 dv=0
PairPos2: "'kern' Horizontal Kerning in Latin lookup 0 per glyph data 1" K dx=0 dy=0 dh=-15 dv=0 dx=0 dy=0 dh=0 dv=0
PairPos2: "'kern' Horizontal Kerning in Latin lookup 0 per glyph data 1" J dx=0 dy=0 dh=-15 dv=0 dx=0 dy=0 dh=0 dv=0
PairPos2: "'kern' Horizontal Kerning in Latin lookup 0 per glyph data 1" I dx=0 dy=0 dh=-15 dv=0 dx=0 dy=0 dh=0 dv=0
PairPos2: "'kern' Horizontal Kerning in Latin lookup 0 per glyph data 1" H dx=0 dy=0 dh=-15 dv=0 dx=0 dy=0 dh=0 dv=0
PairPos2: "'kern' Horizontal Kerning in Latin lookup 0 per glyph data 1" G dx=0 dy=0 dh=-36 dv=0 dx=0 dy=0 dh=0 dv=0
PairPos2: "'kern' Horizontal Kerning in Latin lookup 0 per glyph data 1" F dx=0 dy=0 dh=-15 dv=0 dx=0 dy=0 dh=0 dv=0
PairPos2: "'kern' Horizontal Kerning in Latin lookup 0 per glyph data 1" E dx=0 dy=0 dh=-15 dv=0 dx=0 dy=0 dh=0 dv=0
PairPos2: "'kern' Horizontal Kerning in Latin lookup 0 per glyph data 1" D dx=0 dy=0 dh=-15 dv=0 dx=0 dy=0 dh=0 dv=0
PairPos2: "'kern' Horizontal Kerning in Latin lookup 0 per glyph data 1" C dx=0 dy=0 dh=-36 dv=0 dx=0 dy=0 dh=0 dv=0
PairPos2: "'kern' Horizontal Kerning in Latin lookup 0 per glyph data 1" B dx=0 dy=0 dh=-15 dv=0 dx=0 dy=0 dh=0 dv=0
PairPos2: "'kern' Horizontal Kerning in Latin lookup 0 per glyph data 1" A dx=0 dy=0 dh=-5 dv=0 dx=0 dy=0 dh=0 dv=0
PairPos2: "'kern' Horizontal Kerning in Latin lookup 0 per glyph data 1" one dx=0 dy=0 dh=-10 dv=0 dx=0 dy=0 dh=0 dv=0
PairPos2: "'kern' Horizontal Kerning in Latin lookup 0 per glyph data 1" parenright dx=0 dy=0 dh=-10 dv=0 dx=0 dy=0 dh=0 dv=0
PairPos2: "'kern' Horizontal Kerning in Latin lookup 0 per glyph data 1" parenleft dx=0 dy=0 dh=-10 dv=0 dx=0 dy=0 dh=0 dv=0
PairPos2: "'kern' Horizontal Kerning in Latin lookup 0 per glyph data 1" exclam dx=0 dy=0 dh=-10 dv=0 dx=0 dy=0 dh=0 dv=0
EndChar

StartChar: bracketleft
Encoding: 91 91 62
Width: 430
GlyphClass: 2
Flags: W
LayerCount: 2
Fore
SplineSet
138 -201 m 1,0,-1
 138 -200 l 1,1,-1
 107 -200 l 1,2,-1
 107 750 l 1,3,-1
 172 750 l 1,4,-1
 172 749 l 1,5,-1
 300 749 l 1,6,-1
 300 691 l 1,7,-1
 172 691 l 1,8,-1
 172 -143 l 1,9,-1
 300 -143 l 1,10,-1
 300 -201 l 1,11,-1
 138 -201 l 1,0,-1
EndSplineSet
EndChar

StartChar: backslash
Encoding: 92 92 63
Width: 600
GlyphClass: 2
Flags: W
LayerCount: 2
Fore
SplineSet
495 -200 m 1,0,-1
 425 -200 l 1,1,-1
 107 749 l 1,2,-1
 177 749 l 1,3,-1
 495 -200 l 1,0,-1
EndSplineSet
EndChar

StartChar: bracketright
Encoding: 93 93 64
Width: 430
GlyphClass: 2
Flags: W
LayerCount: 2
Fore
SplineSet
269 -200 m 1,0,-1
 269 -201 l 1,1,-1
 107 -201 l 1,2,-1
 107 -143 l 1,3,-1
 235 -143 l 1,4,-1
 235 691 l 1,5,-1
 107 691 l 1,6,-1
 107 749 l 1,7,-1
 235 749 l 1,8,-1
 235 750 l 1,9,-1
 300 750 l 1,10,-1
 300 -200 l 1,11,-1
 269 -200 l 1,0,-1
EndSplineSet
EndChar

StartChar: asciicircum
Encoding: 94 94 65
Width: 560
GlyphClass: 2
Flags: W
LayerCount: 2
Fore
SplineSet
406 305 m 1,0,-1
 374 300 l 1,1,2
 366 311 366 311 324 362 c 128,-1,3
 282 413 282 413 270 429 c 1,4,5
 260 416 260 416 236 386 c 0,6,7
 180 318 180 318 168 300 c 1,8,-1
 136 305 l 1,9,10
 147 319 147 319 203 384 c 128,-1,11
 259 449 259 449 270 463 c 1,12,13
 281 449 281 449 338 384 c 128,-1,14
 395 319 395 319 406 305 c 1,0,-1
EndSplineSet
EndChar

StartChar: underscore
Encoding: 95 95 66
Width: 500
GlyphClass: 2
Flags: W
LayerCount: 2
Fore
SplineSet
79 58 m 1,0,-1
 433 58 l 1,1,-1
 433 0 l 1,2,-1
 79 0 l 1,3,-1
 79 58 l 1,0,-1
EndSplineSet
EndChar

StartChar: grave
Encoding: 96 96 67
Width: 299
GlyphClass: 2
Flags: W
LayerCount: 2
Fore
SplineSet
235 603 m 1,0,-1
 189 595 l 1,1,-1
 71 743 l 1,2,-1
 131 750 l 1,3,-1
 235 603 l 1,0,-1
EndSplineSet
EndChar

StartChar: a
Encoding: 97 97 68
Width: 539
GlyphClass: 2
Flags: W
LayerCount: 2
Fore
SplineSet
182 -4 m 0,0,1
 49 -4 49 -4 41 101 c 0,2,3
 40 108 40 108 40 115 c 0,4,5
 40 199 40 199 141 227 c 1,6,7
 197 241 197 241 357 259 c 1,8,-1
 357 336 l 2,9,10
 357 445 357 445 243 445 c 1,11,12
 161 444 161 444 69 407 c 1,13,-1
 52 450 l 1,14,-1
 62 454 l 1,15,16
 140 488 140 488 181 495 c 128,-1,17
 222 502 222 502 241 502.5 c 128,-1,18
 260 503 260 503 277.5 502 c 128,-1,19
 295 501 295 501 323 493 c 128,-1,20
 351 485 351 485 371.5 470.5 c 128,-1,21
 392 456 392 456 407 427 c 128,-1,22
 422 398 422 398 422 358 c 2,23,-1
 422 50 l 1,24,-1
 499 50 l 1,25,-1
 499 0 l 1,26,-1
 367 0 l 1,27,-1
 357 38 l 1,28,29
 267 -4 267 -4 182 -4 c 0,0,1
200 42 m 0,30,31
 276 42 276 42 357 76 c 1,32,-1
 357 219 l 1,33,34
 207 214 207 214 163 199 c 1,35,36
 129 190 129 190 115 166.5 c 128,-1,37
 101 143 101 143 101 129 c 128,-1,38
 101 115 101 115 101 110 c 0,39,40
 104 74 104 74 132 58 c 128,-1,41
 160 42 160 42 200 42 c 0,30,31
EndSplineSet
EndChar

StartChar: b
Encoding: 98 98 69
Width: 560
GlyphClass: 2
Flags: W
LayerCount: 2
Fore
SplineSet
50 700 m 1,0,-1
 50 750 l 1,1,-1
 182 750 l 1,2,-1
 182 460 l 1,3,4
 242 509 242 509 316 509 c 0,5,6
 384 509 384 509 444 467 c 0,7,8
 476 444 476 444 495.5 395 c 128,-1,9
 515 346 515 346 515 276 c 0,10,11
 515 143 515 143 449 76 c 0,12,13
 374 0 374 0 259 0 c 0,14,15
 216 0 216 0 173.5 7 c 128,-1,16
 131 14 131 14 117 23 c 1,17,-1
 117 700 l 1,18,-1
 50 700 l 1,0,-1
182 425 m 1,19,-1
 182 56 l 1,20,21
 211 49 211 49 245 49 c 0,22,23
 344 49 344 49 397 107 c 128,-1,24
 450 165 450 165 450 271 c 0,25,26
 450 394 450 394 378 432 c 0,27,28
 343 451 343 451 293.5 451 c 128,-1,29
 244 451 244 451 182 425 c 1,19,-1
EndSplineSet
EndChar

StartChar: c
Encoding: 99 99 70
Width: 478
GlyphClass: 2
Flags: W
LayerCount: 2
Fore
SplineSet
300 446 m 0,0,1
 215 446 215 446 162.5 389.5 c 128,-1,2
 110 333 110 333 110 231 c 0,3,4
 110 54 110 54 275 54 c 0,5,6
 339 54 339 54 382 64.5 c 128,-1,7
 425 75 425 75 429 78 c 1,8,-1
 443 31 l 1,9,10
 420 16 420 16 367 6 c 128,-1,11
 314 -4 314 -4 271 -4 c 128,-1,12
 228 -4 228 -4 193 5 c 128,-1,13
 158 14 158 14 122.5 37 c 128,-1,14
 87 60 87 60 66 109.5 c 128,-1,15
 45 159 45 159 45 230 c 0,16,17
 45 361 45 361 112 428 c 1,18,19
 187 505 187 505 301 505 c 0,20,21
 337 505 337 505 377.5 495.5 c 128,-1,22
 418 486 418 486 440 466 c 1,23,-1
 440 335 l 1,24,-1
 391 328 l 1,25,-1
 386 433 l 1,26,27
 345 446 345 446 300 446 c 0,0,1
EndSplineSet
EndChar

StartChar: d
Encoding: 100 100 71
Width: 579
GlyphClass: 2
Flags: W
LayerCount: 2
Fore
SplineSet
123 37 m 0,0,1
 88 60 88 60 66.5 109.5 c 128,-1,2
 45 159 45 159 45 230 c 0,3,4
 45 361 45 361 112 430 c 0,5,6
 183 504 183 504 274 504 c 0,7,8
 330 504 330 504 388 475 c 1,9,-1
 388 700 l 1,10,-1
 321 700 l 1,11,-1
 321 750 l 1,12,-1
 453 750 l 1,13,-1
 453 50 l 1,14,-1
 530 50 l 1,15,-1
 530 0 l 1,16,-1
 398 0 l 1,17,-1
 390 32 l 1,18,19
 333 -4 333 -4 259 -4 c 128,-1,20
 185 -4 185 -4 123 37 c 0,0,1
388 81 m 1,21,-1
 388 432 l 1,22,23
 342 446 342 446 301 446 c 0,24,25
 215 446 215 446 162.5 389.5 c 128,-1,26
 110 333 110 333 110 231 c 0,27,28
 110 177 110 177 125.5 139.5 c 128,-1,29
 141 102 141 102 167 84 c 0,30,31
 212 54 212 54 272 54 c 128,-1,32
 332 54 332 54 388 81 c 1,21,-1
EndSplineSet
EndChar

StartChar: e
Encoding: 101 101 72
Width: 506
GlyphClass: 2
Flags: W
LayerCount: 2
Fore
SplineSet
108 224 m 0,0,1
 108 135 108 135 159 94.5 c 128,-1,2
 210 54 210 54 278 54 c 0,3,4
 322 54 322 54 368.5 62.5 c 128,-1,5
 415 71 415 71 430 78 c 1,6,-1
 443 31 l 1,7,8
 420 16 420 16 367.5 6 c 128,-1,9
 315 -4 315 -4 271.5 -4 c 128,-1,10
 228 -4 228 -4 193.5 5 c 128,-1,11
 159 14 159 14 123 37 c 128,-1,12
 87 60 87 60 66 109 c 128,-1,13
 45 158 45 158 45 229 c 0,14,15
 45 361 45 361 113 431 c 0,16,17
 184 504 184 504 278 504 c 128,-1,18
 372 504 372 504 421.5 452 c 128,-1,19
 471 400 471 400 471 306 c 0,20,21
 471 286 471 286 468 263 c 1,22,-1
 111 263 l 1,23,24
 108 242 108 242 108 224 c 0,0,1
411 313 m 0,25,26
 411 375 411 375 374 408.5 c 128,-1,27
 337 442 337 442 288 442 c 0,28,29
 221 442 221 442 177 401.5 c 128,-1,30
 133 361 133 361 118 302 c 1,31,-1
 411 302 l 1,32,33
 411 308 411 308 411 313 c 0,25,26
EndSplineSet
EndChar

StartChar: f
Encoding: 102 102 73
Width: 360
GlyphClass: 2
Flags: W
LayerCount: 2
Fore
SplineSet
147 720.5 m 128,-1,1
 192 751 192 751 242 751 c 128,-1,2
 292 751 292 751 320 740 c 1,3,-1
 317 693 l 1,4,5
 293 696 293 696 275.5 696 c 128,-1,6
 258 696 258 696 241.5 692.5 c 128,-1,7
 225 689 225 689 207 680 c 0,8,9
 167 658 167 658 167 598 c 2,10,-1
 167 500 l 1,11,-1
 288 500 l 1,12,-1
 288 442 l 1,13,-1
 167 442 l 1,14,-1
 167 50 l 1,15,-1
 252 50 l 1,16,-1
 252 0 l 1,17,-1
 40 0 l 1,18,-1
 40 50 l 1,19,-1
 102 50 l 1,20,-1
 102 442 l 1,21,-1
 51 442 l 1,22,-1
 59 490 l 1,23,-1
 102 499 l 1,24,-1
 102 621 l 2,25,0
 102 690 102 690 147 720.5 c 128,-1,1
EndSplineSet
EndChar

StartChar: g
Encoding: 103 103 74
Width: 561
GlyphClass: 2
Flags: W
LayerCount: 2
Fore
SplineSet
41 -104 m 0,0,1
 41 -14 41 -14 148 54 c 1,2,3
 106 84 106 84 106 125.5 c 128,-1,4
 106 167 106 167 142 193 c 1,5,6
 68 229 68 229 68 339 c 0,7,8
 68 416 68 416 126 460 c 128,-1,9
 184 504 184 504 274 504 c 0,10,11
 303 504 303 504 333 499 c 1,12,-1
 521 504 l 1,13,-1
 519 466 l 1,14,-1
 410 466 l 1,15,16
 465 425 465 425 465 343 c 128,-1,17
 465 261 465 261 410 216 c 128,-1,18
 355 171 355 171 268 171 c 0,19,20
 212 171 212 171 175 181 c 1,21,22
 156 163 156 163 156 135 c 128,-1,23
 156 107 156 107 190.5 91.5 c 128,-1,24
 225 76 225 76 279.5 68.5 c 128,-1,25
 334 61 334 61 359 55.5 c 128,-1,26
 384 50 384 50 417 38 c 128,-1,27
 450 26 450 26 470 10 c 0,28,29
 517 -29 517 -29 517 -94 c 0,30,31
 517 -139 517 -139 496 -171 c 128,-1,32
 475 -203 475 -203 438 -220 c 0,33,34
 370 -250 370 -250 276 -250 c 0,35,36
 151 -250 151 -250 96 -207 c 128,-1,37
 41 -164 41 -164 41 -104 c 0,0,1
106 -97 m 0,38,39
 106 -138 106 -138 146 -165 c 128,-1,40
 186 -192 186 -192 268 -192 c 0,41,42
 452 -192 452 -192 452 -94 c 0,43,44
 452 -45 452 -45 408 -24 c 0,45,46
 370 -5 370 -5 324 4 c 1,47,48
 226 18 226 18 183 35 c 1,49,50
 106 -28 106 -28 106 -97 c 0,38,39
171 422.5 m 128,-1,52
 133 394 133 394 133 337.5 c 128,-1,53
 133 281 133 281 162.5 252.5 c 128,-1,54
 192 224 192 224 257 224 c 128,-1,55
 322 224 322 224 359.5 256.5 c 128,-1,56
 397 289 397 289 397 345 c 0,57,58
 397 451 397 451 271 451 c 0,59,51
 209 451 209 451 171 422.5 c 128,-1,52
EndSplineSet
EndChar

StartChar: h
Encoding: 104 104 75
Width: 628
GlyphClass: 2
Flags: W
LayerCount: 2
Fore
SplineSet
387 0 m 1,0,-1
 387 50 l 1,1,-1
 448 50 l 1,2,-1
 448 342 l 2,3,4
 448 377 448 377 433.5 399 c 128,-1,5
 419 421 419 421 396 428 c 0,6,7
 358 441 358 441 334 439 c 1,8,9
 269 437 269 437 191 393 c 1,10,-1
 191 50 l 1,11,-1
 267 50 l 1,12,-1
 267 0 l 1,13,-1
 65 0 l 1,14,-1
 65 50 l 1,15,-1
 126 50 l 1,16,-1
 126 700 l 1,17,-1
 59 700 l 1,18,-1
 59 750 l 1,19,-1
 191 750 l 1,20,-1
 191 438 l 1,21,22
 322 528 322 528 428 494 c 0,23,24
 452 487 452 487 469.5 473.5 c 128,-1,25
 487 460 487 460 500 433 c 128,-1,26
 513 406 513 406 513 368 c 2,27,-1
 513 50 l 1,28,-1
 589 50 l 1,29,-1
 589 0 l 1,30,-1
 387 0 l 1,0,-1
EndSplineSet
EndChar

StartChar: i
Encoding: 105 105 76
Width: 316
GlyphClass: 2
Flags: W
LayerCount: 2
Fore
SplineSet
59 450 m 1,0,-1
 59 500 l 1,1,-1
 191 500 l 1,2,-1
 191 50 l 1,3,-1
 266 50 l 1,4,-1
 266 0 l 1,5,-1
 64 0 l 1,6,-1
 64 50 l 1,7,-1
 126 50 l 1,8,-1
 126 450 l 1,9,-1
 59 450 l 1,0,-1
126 646.5 m 128,-1,11
 115 659 115 659 115 679.5 c 128,-1,12
 115 700 115 700 126.5 712.5 c 128,-1,13
 138 725 138 725 158 725 c 128,-1,14
 178 725 178 725 190.5 712.5 c 128,-1,15
 203 700 203 700 203 678.5 c 128,-1,16
 203 657 203 657 190 645.5 c 128,-1,17
 177 634 177 634 157 634 c 128,-1,10
 137 634 137 634 126 646.5 c 128,-1,11
EndSplineSet
EndChar

StartChar: j
Encoding: 106 106 77
Width: 285
GlyphClass: 2
Flags: W
LayerCount: 2
Fore
SplineSet
159 450 m 1,0,-1
 92 450 l 1,1,-1
 92 500 l 1,2,-1
 224 500 l 1,3,-1
 224 0 l 2,4,5
 224 -3 224 -3 224 -5 c 0,6,7
 224 -45 224 -45 209.5 -84.5 c 128,-1,8
 195 -124 195 -124 174 -152 c 0,9,10
 131 -210 131 -210 95 -237 c 2,11,-1
 80 -248 l 1,12,-1
 50 -209 l 1,13,14
 160 -104 160 -104 159 0 c 1,15,-1
 159 450 l 1,0,-1
158.5 646.5 m 128,-1,17
 147 659 147 659 147 679.5 c 128,-1,18
 147 700 147 700 159 712.5 c 128,-1,19
 171 725 171 725 191 725 c 128,-1,20
 211 725 211 725 223 712.5 c 128,-1,21
 235 700 235 700 235 678.5 c 128,-1,22
 235 657 235 657 222.5 645.5 c 128,-1,23
 210 634 210 634 190 634 c 128,-1,16
 170 634 170 634 158.5 646.5 c 128,-1,17
EndSplineSet
EndChar

StartChar: k
Encoding: 107 107 78
Width: 582
GlyphClass: 2
Flags: W
LayerCount: 2
Fore
SplineSet
309 450 m 1,0,-1
 309 500 l 1,1,-1
 519 500 l 1,2,-1
 519 450 l 1,3,-1
 425 450 l 1,4,-1
 257 266 l 1,5,-1
 447 50 l 1,6,-1
 542 50 l 1,7,-1
 542 0 l 1,8,-1
 415 0 l 1,9,-1
 192 266 l 1,10,-1
 192 50 l 1,11,-1
 267 50 l 1,12,-1
 267 0 l 1,13,-1
 65 0 l 1,14,-1
 65 50 l 1,15,-1
 127 50 l 1,16,-1
 127 700 l 1,17,-1
 60 700 l 1,18,-1
 60 750 l 1,19,-1
 192 750 l 1,20,-1
 192 266 l 1,21,-1
 350 450 l 1,22,-1
 309 450 l 1,0,-1
EndSplineSet
EndChar

StartChar: l
Encoding: 108 108 79
Width: 307
GlyphClass: 2
Flags: W
LayerCount: 2
Fore
SplineSet
60 700 m 1,0,-1
 60 750 l 1,1,-1
 192 750 l 1,2,-1
 192 50 l 1,3,-1
 267 50 l 1,4,-1
 267 0 l 1,5,-1
 65 0 l 1,6,-1
 65 50 l 1,7,-1
 127 50 l 1,8,-1
 127 700 l 1,9,-1
 60 700 l 1,0,-1
EndSplineSet
EndChar

StartChar: m
Encoding: 109 109 80
Width: 909
GlyphClass: 2
Flags: W
LayerCount: 2
Fore
SplineSet
355 0 m 1,0,-1
 355 50 l 1,1,-1
 417 50 l 1,2,-1
 417 344 l 2,3,4
 417 441 417 441 309 441 c 1,5,6
 252 440 252 440 181 403 c 1,7,-1
 181 50 l 1,8,-1
 257 50 l 1,9,-1
 257 0 l 1,10,-1
 55 0 l 1,11,-1
 55 50 l 1,12,-1
 116 50 l 1,13,-1
 116 450 l 1,14,-1
 50 450 l 1,15,-1
 50 500 l 1,16,-1
 182 500 l 1,17,-1
 182 450 l 1,18,-1
 181 450 l 1,19,-1
 181 447 l 1,20,21
 264 499 264 499 333 503 c 1,22,23
 428 503 428 503 462 449 c 1,24,25
 549 499 549 499 626 503 c 1,26,27
 696 503 696 503 732 474 c 0,28,29
 749 461 749 461 761.5 433.5 c 128,-1,30
 774 406 774 406 774 368 c 2,31,-1
 774 50 l 1,32,-1
 848 50 l 1,33,-1
 848 0 l 1,34,-1
 646 0 l 1,35,-1
 646 50 l 1,36,-1
 709 50 l 1,37,-1
 709 343 l 2,38,39
 709 441 709 441 602 441 c 1,40,41
 544 440 544 440 479 405 c 1,42,43
 482 388 482 388 482 368 c 2,44,-1
 482 50 l 1,45,-1
 557 50 l 1,46,-1
 557 0 l 1,47,-1
 355 0 l 1,0,-1
EndSplineSet
EndChar

StartChar: n
Encoding: 110 110 81
Width: 630
GlyphClass: 2
Flags: W
LayerCount: 2
Fore
SplineSet
50 450 m 1,0,-1
 50 500 l 1,1,-1
 182 500 l 1,2,-1
 182 444 l 1,3,4
 264 500 264 500 339 503 c 1,5,6
 412 503 412 503 450 474 c 0,7,8
 467 461 467 461 480.5 433.5 c 128,-1,9
 494 406 494 406 494 368 c 2,10,-1
 494 50 l 1,11,-1
 571 50 l 1,12,-1
 571 0 l 1,13,-1
 369 0 l 1,14,-1
 369 50 l 1,15,-1
 429 50 l 1,16,-1
 429 343 l 2,17,18
 429 440 429 440 315 440 c 1,19,20
 253 438 253 438 182 399 c 1,21,-1
 182 50 l 1,22,-1
 257 50 l 1,23,-1
 257 0 l 1,24,-1
 55 0 l 1,25,-1
 55 50 l 1,26,-1
 117 50 l 1,27,-1
 117 450 l 1,28,-1
 50 450 l 1,0,-1
EndSplineSet
EndChar

StartChar: o
Encoding: 111 111 82
Width: 565
GlyphClass: 2
Flags: W
LayerCount: 2
Fore
SplineSet
109.5 56 m 128,-1,1
 45 116 45 116 45 239.5 c 128,-1,2
 45 363 45 363 113.5 433.5 c 128,-1,3
 182 504 182 504 286 504 c 128,-1,4
 390 504 390 504 455 444 c 128,-1,5
 520 384 520 384 520 260.5 c 128,-1,6
 520 137 520 137 451.5 66.5 c 128,-1,7
 383 -4 383 -4 278.5 -4 c 128,-1,0
 174 -4 174 -4 109.5 56 c 128,-1,1
160 392 m 128,-1,9
 110 338 110 338 110 245.5 c 128,-1,10
 110 153 110 153 157.5 103.5 c 128,-1,11
 205 54 205 54 280 54 c 128,-1,12
 355 54 355 54 405 107.5 c 128,-1,13
 455 161 455 161 455 253.5 c 128,-1,14
 455 346 455 346 407 396 c 128,-1,15
 359 446 359 446 284.5 446 c 128,-1,8
 210 446 210 446 160 392 c 128,-1,9
EndSplineSet
EndChar

StartChar: p
Encoding: 112 112 83
Width: 570
GlyphClass: 2
Flags: W
LayerCount: 2
Fore
SplineSet
60 450 m 1,0,-1
 60 500 l 1,1,-1
 192 500 l 1,2,-1
 192 463 l 1,3,4
 255 509 255 509 326 509 c 0,5,6
 394 509 394 509 454 467 c 0,7,8
 486 444 486 444 505.5 395 c 128,-1,9
 525 346 525 346 525 276 c 0,10,11
 525 143 525 143 459 76 c 0,12,13
 384 0 384 0 265 0 c 0,14,15
 230 0 230 0 192 5 c 1,16,-1
 192 -200 l 1,17,-1
 277 -200 l 1,18,-1
 277 -250 l 1,19,-1
 65 -250 l 1,20,-1
 65 -200 l 1,21,-1
 127 -200 l 1,22,-1
 127 450 l 1,23,-1
 60 450 l 1,0,-1
192 422 m 1,24,-1
 192 56 l 1,25,26
 221 49 221 49 255 49 c 0,27,28
 354 49 354 49 407 107 c 128,-1,29
 460 165 460 165 460 271 c 0,30,31
 460 394 460 394 388 432 c 0,32,33
 353 451 353 451 307 451 c 128,-1,34
 261 451 261 451 192 422 c 1,24,-1
EndSplineSet
EndChar

StartChar: q
Encoding: 113 113 84
Width: 588
GlyphClass: 2
Flags: W
LayerCount: 2
Fore
SplineSet
326 -250 m 1,0,-1
 326 -200 l 1,1,-1
 388 -200 l 1,2,-1
 388 31 l 1,3,4
 332 -4 332 -4 258 -4 c 0,5,6
 185 -4 185 -4 123 37 c 0,7,8
 88 60 88 60 66.5 109.5 c 128,-1,9
 45 159 45 159 45 230 c 0,10,11
 45 361 45 361 112 430 c 0,12,13
 183 504 183 504 274 504 c 0,14,15
 330 504 330 504 388 475 c 1,16,-1
 388 495 l 1,17,-1
 453 500 l 1,18,-1
 453 -200 l 1,19,-1
 538 -200 l 1,20,-1
 538 -250 l 1,21,-1
 326 -250 l 1,0,-1
388 81 m 1,23,-1
 388 432 l 1,24,25
 342 446 342 446 301 446 c 0,26,27
 215 446 215 446 162.5 389.5 c 128,-1,28
 110 333 110 333 110 231 c 0,29,30
 110 177 110 177 125.5 139.5 c 128,-1,31
 141 102 141 102 167 84 c 0,32,33
 212 54 212 54 272 54 c 128,-1,22
 332 54 332 54 388 81 c 1,23,-1
EndSplineSet
EndChar

StartChar: r
Encoding: 114 114 85
Width: 444
GlyphClass: 2
Flags: W
LayerCount: 2
Fore
SplineSet
181 50 m 1,0,-1
 264 50 l 1,1,-1
 264 0 l 1,2,-1
 54 0 l 1,3,-1
 54 50 l 1,4,-1
 116 50 l 1,5,-1
 116 450 l 1,6,-1
 49 450 l 1,7,-1
 49 500 l 1,8,-1
 181 500 l 1,9,-1
 181 379 l 1,10,11
 260 495 260 495 336 497 c 0,12,13
 342 497 342 497 348 497 c 2,14,-1
 404 490 l 1,15,-1
 378 430 l 1,16,17
 359 439 359 439 329 439 c 0,18,19
 257 438 257 438 181 335 c 1,20,-1
 181 50 l 1,0,-1
EndSplineSet
EndChar

StartChar: s
Encoding: 115 115 86
Width: 421
GlyphClass: 2
Flags: W
LayerCount: 2
Fore
SplineSet
93 65 m 1,0,1
 135 52 135 52 160.5 52 c 128,-1,2
 186 52 186 52 194 53 c 0,3,4
 246 54 246 54 281 75 c 128,-1,5
 316 96 316 96 316 134 c 128,-1,6
 316 172 316 172 288.5 193 c 128,-1,7
 261 214 261 214 222 225 c 128,-1,8
 183 236 183 236 144 249 c 128,-1,9
 105 262 105 262 77.5 290 c 128,-1,10
 50 318 50 318 50 363 c 0,11,12
 50 427 50 427 99 465.5 c 128,-1,13
 148 504 148 504 223 504 c 0,14,15
 279 504 279 504 336 484 c 1,16,-1
 354 477 l 1,17,-1
 354 362 l 1,18,-1
 305 355 l 1,19,-1
 301 440 l 1,20,21
 261 446 261 446 234 446 c 0,22,23
 179 446 179 446 147 424.5 c 128,-1,24
 115 403 115 403 115 369.5 c 128,-1,25
 115 336 115 336 142.5 317 c 128,-1,26
 170 298 170 298 209 287 c 128,-1,27
 248 276 248 276 287 262.5 c 128,-1,28
 326 249 326 249 353.5 218.5 c 128,-1,29
 381 188 381 188 381 139 c 0,30,31
 381 73 381 73 331.5 34.5 c 128,-1,32
 282 -4 282 -4 191 -4 c 128,-1,33
 100 -4 100 -4 40 39 c 1,34,-1
 40 154 l 1,35,-1
 88 161 l 1,36,-1
 93 65 l 1,0,1
EndSplineSet
EndChar

StartChar: t
Encoding: 116 116 87
Width: 350
GlyphClass: 2
Flags: W
LayerCount: 2
Fore
SplineSet
268 49 m 1,0,-1
 307 51 l 1,1,-1
 310 11 l 2,2,3
 309 11 309 11 296 8 c 0,4,5
 266 1 266 1 229 1 c 1,6,7
 195 3 195 3 167 12.5 c 128,-1,8
 139 22 139 22 115 52.5 c 128,-1,9
 91 83 91 83 91 131 c 2,10,-1
 91 442 l 1,11,-1
 40 442 l 1,12,-1
 48 490 l 1,13,-1
 92 499 l 1,14,-1
 100 595 l 1,15,-1
 156 600 l 1,16,-1
 156 500 l 1,17,-1
 277 500 l 1,18,-1
 277 442 l 1,19,-1
 156 442 l 1,20,-1
 156 148 l 2,21,22
 156 49 156 49 268 49 c 1,0,-1
EndSplineSet
EndChar

StartChar: u
Encoding: 117 117 88
Width: 649
GlyphClass: 2
Flags: W
LayerCount: 2
Fore
SplineSet
448 58 m 1,0,1
 357 -3 357 -3 276 -3 c 0,2,3
 242 -3 242 -3 196 14 c 0,4,5
 166 25 166 25 148 55.5 c 128,-1,6
 130 86 130 86 130 132 c 2,7,-1
 130 450 l 1,8,-1
 60 450 l 1,9,-1
 60 500 l 1,10,-1
 195 500 l 1,11,-1
 195 152 l 2,12,13
 195 117 195 117 210 94.5 c 128,-1,14
 225 72 225 72 248 65 c 0,15,16
 286 53 286 53 309 55 c 1,17,18
 369 56 369 56 448 98 c 1,19,-1
 448 450 l 1,20,-1
 378 450 l 1,21,-1
 378 500 l 1,22,-1
 513 500 l 1,23,-1
 513 50 l 1,24,-1
 590 50 l 1,25,-1
 590 0 l 1,26,-1
 458 0 l 1,27,-1
 448 58 l 1,0,1
EndSplineSet
EndChar

StartChar: v
Encoding: 118 118 89
Width: 616
GlyphClass: 2
Flags: W
LayerCount: 2
Fore
SplineSet
391 450 m 1,0,-1
 391 500 l 1,1,-1
 575 500 l 1,2,-1
 575 450 l 1,3,-1
 516 450 l 1,4,-1
 335 0 l 1,5,-1
 275 0 l 1,6,-1
 108 450 l 1,7,-1
 40 450 l 1,8,-1
 40 500 l 1,9,-1
 251 500 l 1,10,-1
 251 450 l 1,11,-1
 181 450 l 1,12,-1
 308 77 l 1,13,-1
 447 450 l 1,14,-1
 391 450 l 1,0,-1
EndSplineSet
EndChar

StartChar: w
Encoding: 119 119 90
Width: 901
GlyphClass: 2
Flags: W
LayerCount: 2
Fore
SplineSet
40 450 m 1,0,-1
 40 500 l 1,1,-1
 250 500 l 1,2,-1
 250 450 l 1,3,-1
 183 450 l 1,4,-1
 294 81 l 1,5,-1
 425 495 l 1,6,-1
 489 500 l 1,7,-1
 599 81 l 1,8,-1
 728 450 l 1,9,-1
 660 450 l 1,10,-1
 660 500 l 1,11,-1
 860 500 l 1,12,-1
 860 450 l 1,13,-1
 802 450 l 1,14,-1
 631 0 l 1,15,-1
 571 0 l 1,16,-1
 454 397 l 1,17,-1
 319 0 l 1,18,-1
 259 0 l 1,19,-1
 109 450 l 1,20,-1
 40 450 l 1,0,-1
EndSplineSet
EndChar

StartChar: x
Encoding: 120 120 91
Width: 582
GlyphClass: 2
Flags: W
LayerCount: 2
Fore
SplineSet
326 0 m 1,0,-1
 326 50 l 1,1,-1
 388 50 l 1,2,-1
 278 220 l 1,3,-1
 137 0 l 1,4,-1
 40 0 l 1,5,-1
 40 50 l 1,6,-1
 105 50 l 1,7,-1
 247 267 l 1,8,-1
 125 450 l 1,9,-1
 60 450 l 1,10,-1
 60 500 l 1,11,-1
 269 500 l 1,12,-1
 269 450 l 1,13,-1
 203 450 l 1,14,-1
 299 298 l 1,15,-1
 426 499 l 1,16,-1
 428 499 l 1,17,-1
 428 500 l 1,18,-1
 523 500 l 1,19,-1
 523 450 l 1,20,-1
 460 450 l 1,21,-1
 329 250 l 1,22,-1
 466 50 l 1,23,-1
 541 50 l 1,24,-1
 541 0 l 1,25,-1
 326 0 l 1,0,-1
EndSplineSet
EndChar

StartChar: y
Encoding: 121 121 92
Width: 653
GlyphClass: 2
Flags: W
LayerCount: 2
Fore
SplineSet
429 450 m 1,0,-1
 429 500 l 1,1,-1
 613 500 l 1,2,-1
 613 450 l 1,3,-1
 553 450 l 1,4,-1
 354 0 l 1,5,-1
 321 -199 l 1,6,-1
 405 -199 l 1,7,-1
 405 -249 l 1,8,-1
 194 -249 l 1,9,-1
 194 -199 l 1,10,-1
 256 -199 l 1,11,-1
 287 0 l 1,12,-1
 270 0 l 1,13,-1
 108 450 l 1,14,-1
 40 450 l 1,15,-1
 40 500 l 1,16,-1
 251 500 l 1,17,-1
 251 450 l 1,18,-1
 182 450 l 1,19,-1
 314 47 l 1,20,-1
 484 450 l 1,21,-1
 429 450 l 1,0,-1
EndSplineSet
EndChar

StartChar: z
Encoding: 122 122 93
Width: 500
GlyphClass: 2
Flags: W
LayerCount: 2
Fore
SplineSet
58 500 m 1,0,-1
 430 500 l 1,1,-1
 439 442 l 1,2,-1
 127 58 l 1,3,-1
 406 58 l 1,4,-1
 410 154 l 1,5,-1
 459 161 l 1,6,-1
 459 7 l 1,7,-1
 460 0 l 1,8,-1
 49 0 l 1,9,-1
 40 58 l 1,10,-1
 356 442 l 1,11,-1
 111 442 l 1,12,-1
 107 362 l 1,13,-1
 58 355 l 1,14,-1
 58 500 l 1,0,-1
EndSplineSet
PairPos2: "'kern' Horizontal Kerning in Latin lookup 0 per glyph data 1" oe dx=0 dy=0 dh=-29 dv=0 dx=0 dy=0 dh=0 dv=0
PairPos2: "'kern' Horizontal Kerning in Latin lookup 0 per glyph data 1" dotlessi dx=0 dy=0 dh=-24 dv=0 dx=0 dy=0 dh=0 dv=0
PairPos2: "'kern' Horizontal Kerning in Latin lookup 0 per glyph data 1" ydieresis dx=0 dy=0 dh=-29 dv=0 dx=0 dy=0 dh=0 dv=0
PairPos2: "'kern' Horizontal Kerning in Latin lookup 0 per glyph data 1" thorn dx=0 dy=0 dh=-24 dv=0 dx=0 dy=0 dh=0 dv=0
PairPos2: "'kern' Horizontal Kerning in Latin lookup 0 per glyph data 1" yacute dx=0 dy=0 dh=-29 dv=0 dx=0 dy=0 dh=0 dv=0
PairPos2: "'kern' Horizontal Kerning in Latin lookup 0 per glyph data 1" udieresis dx=0 dy=0 dh=-24 dv=0 dx=0 dy=0 dh=0 dv=0
PairPos2: "'kern' Horizontal Kerning in Latin lookup 0 per glyph data 1" ucircumflex dx=0 dy=0 dh=-24 dv=0 dx=0 dy=0 dh=0 dv=0
PairPos2: "'kern' Horizontal Kerning in Latin lookup 0 per glyph data 1" uacute dx=0 dy=0 dh=-24 dv=0 dx=0 dy=0 dh=0 dv=0
PairPos2: "'kern' Horizontal Kerning in Latin lookup 0 per glyph data 1" ugrave dx=0 dy=0 dh=-24 dv=0 dx=0 dy=0 dh=0 dv=0
PairPos2: "'kern' Horizontal Kerning in Latin lookup 0 per glyph data 1" odieresis dx=0 dy=0 dh=-29 dv=0 dx=0 dy=0 dh=0 dv=0
PairPos2: "'kern' Horizontal Kerning in Latin lookup 0 per glyph data 1" otilde dx=0 dy=0 dh=-29 dv=0 dx=0 dy=0 dh=0 dv=0
PairPos2: "'kern' Horizontal Kerning in Latin lookup 0 per glyph data 1" ocircumflex dx=0 dy=0 dh=-29 dv=0 dx=0 dy=0 dh=0 dv=0
PairPos2: "'kern' Horizontal Kerning in Latin lookup 0 per glyph data 1" oacute dx=0 dy=0 dh=-29 dv=0 dx=0 dy=0 dh=0 dv=0
PairPos2: "'kern' Horizontal Kerning in Latin lookup 0 per glyph data 1" ograve dx=0 dy=0 dh=-29 dv=0 dx=0 dy=0 dh=0 dv=0
PairPos2: "'kern' Horizontal Kerning in Latin lookup 0 per glyph data 1" ntilde dx=0 dy=0 dh=-24 dv=0 dx=0 dy=0 dh=0 dv=0
PairPos2: "'kern' Horizontal Kerning in Latin lookup 0 per glyph data 1" eth dx=0 dy=0 dh=-29 dv=0 dx=0 dy=0 dh=0 dv=0
PairPos2: "'kern' Horizontal Kerning in Latin lookup 0 per glyph data 1" idieresis dx=0 dy=0 dh=-24 dv=0 dx=0 dy=0 dh=0 dv=0
PairPos2: "'kern' Horizontal Kerning in Latin lookup 0 per glyph data 1" icircumflex dx=0 dy=0 dh=-24 dv=0 dx=0 dy=0 dh=0 dv=0
PairPos2: "'kern' Horizontal Kerning in Latin lookup 0 per glyph data 1" iacute dx=0 dy=0 dh=-24 dv=0 dx=0 dy=0 dh=0 dv=0
PairPos2: "'kern' Horizontal Kerning in Latin lookup 0 per glyph data 1" igrave dx=0 dy=0 dh=-24 dv=0 dx=0 dy=0 dh=0 dv=0
PairPos2: "'kern' Horizontal Kerning in Latin lookup 0 per glyph data 1" edieresis dx=0 dy=0 dh=-15 dv=0 dx=0 dy=0 dh=0 dv=0
PairPos2: "'kern' Horizontal Kerning in Latin lookup 0 per glyph data 1" ecircumflex dx=0 dy=0 dh=-15 dv=0 dx=0 dy=0 dh=0 dv=0
PairPos2: "'kern' Horizontal Kerning in Latin lookup 0 per glyph data 1" eacute dx=0 dy=0 dh=-15 dv=0 dx=0 dy=0 dh=0 dv=0
PairPos2: "'kern' Horizontal Kerning in Latin lookup 0 per glyph data 1" egrave dx=0 dy=0 dh=-15 dv=0 dx=0 dy=0 dh=0 dv=0
PairPos2: "'kern' Horizontal Kerning in Latin lookup 0 per glyph data 1" ccedilla dx=0 dy=0 dh=-15 dv=0 dx=0 dy=0 dh=0 dv=0
PairPos2: "'kern' Horizontal Kerning in Latin lookup 0 per glyph data 1" aring dx=0 dy=0 dh=-14 dv=0 dx=0 dy=0 dh=0 dv=0
PairPos2: "'kern' Horizontal Kerning in Latin lookup 0 per glyph data 1" adieresis dx=0 dy=0 dh=-14 dv=0 dx=0 dy=0 dh=0 dv=0
PairPos2: "'kern' Horizontal Kerning in Latin lookup 0 per glyph data 1" atilde dx=0 dy=0 dh=-14 dv=0 dx=0 dy=0 dh=0 dv=0
PairPos2: "'kern' Horizontal Kerning in Latin lookup 0 per glyph data 1" acircumflex dx=0 dy=0 dh=-14 dv=0 dx=0 dy=0 dh=0 dv=0
PairPos2: "'kern' Horizontal Kerning in Latin lookup 0 per glyph data 1" aacute dx=0 dy=0 dh=-14 dv=0 dx=0 dy=0 dh=0 dv=0
PairPos2: "'kern' Horizontal Kerning in Latin lookup 0 per glyph data 1" agrave dx=0 dy=0 dh=-14 dv=0 dx=0 dy=0 dh=0 dv=0
PairPos2: "'kern' Horizontal Kerning in Latin lookup 0 per glyph data 1" germandbls dx=0 dy=0 dh=-24 dv=0 dx=0 dy=0 dh=0 dv=0
PairPos2: "'kern' Horizontal Kerning in Latin lookup 0 per glyph data 1" mu dx=0 dy=0 dh=-24 dv=0 dx=0 dy=0 dh=0 dv=0
PairPos2: "'kern' Horizontal Kerning in Latin lookup 0 per glyph data 1" brokenbar dx=0 dy=0 dh=-24 dv=0 dx=0 dy=0 dh=0 dv=0
PairPos2: "'kern' Horizontal Kerning in Latin lookup 0 per glyph data 1" cent dx=0 dy=0 dh=-15 dv=0 dx=0 dy=0 dh=0 dv=0
PairPos2: "'kern' Horizontal Kerning in Latin lookup 0 per glyph data 1" exclamdown dx=0 dy=0 dh=-24 dv=0 dx=0 dy=0 dh=0 dv=0
PairPos2: "'kern' Horizontal Kerning in Latin lookup 0 per glyph data 1" bar dx=0 dy=0 dh=-24 dv=0 dx=0 dy=0 dh=0 dv=0
PairPos2: "'kern' Horizontal Kerning in Latin lookup 0 per glyph data 1" z dx=0 dy=0 dh=-7 dv=0 dx=0 dy=0 dh=0 dv=0
PairPos2: "'kern' Horizontal Kerning in Latin lookup 0 per glyph data 1" y dx=0 dy=0 dh=-29 dv=0 dx=0 dy=0 dh=0 dv=0
PairPos2: "'kern' Horizontal Kerning in Latin lookup 0 per glyph data 1" w dx=0 dy=0 dh=-15 dv=0 dx=0 dy=0 dh=0 dv=0
PairPos2: "'kern' Horizontal Kerning in Latin lookup 0 per glyph data 1" u dx=0 dy=0 dh=-24 dv=0 dx=0 dy=0 dh=0 dv=0
PairPos2: "'kern' Horizontal Kerning in Latin lookup 0 per glyph data 1" t dx=0 dy=0 dh=-24 dv=0 dx=0 dy=0 dh=0 dv=0
PairPos2: "'kern' Horizontal Kerning in Latin lookup 0 per glyph data 1" r dx=0 dy=0 dh=-24 dv=0 dx=0 dy=0 dh=0 dv=0
PairPos2: "'kern' Horizontal Kerning in Latin lookup 0 per glyph data 1" q dx=0 dy=0 dh=-15 dv=0 dx=0 dy=0 dh=0 dv=0
PairPos2: "'kern' Horizontal Kerning in Latin lookup 0 per glyph data 1" p dx=0 dy=0 dh=-24 dv=0 dx=0 dy=0 dh=0 dv=0
PairPos2: "'kern' Horizontal Kerning in Latin lookup 0 per glyph data 1" o dx=0 dy=0 dh=-29 dv=0 dx=0 dy=0 dh=0 dv=0
PairPos2: "'kern' Horizontal Kerning in Latin lookup 0 per glyph data 1" n dx=0 dy=0 dh=-24 dv=0 dx=0 dy=0 dh=0 dv=0
PairPos2: "'kern' Horizontal Kerning in Latin lookup 0 per glyph data 1" m dx=0 dy=0 dh=-24 dv=0 dx=0 dy=0 dh=0 dv=0
PairPos2: "'kern' Horizontal Kerning in Latin lookup 0 per glyph data 1" l dx=0 dy=0 dh=-24 dv=0 dx=0 dy=0 dh=0 dv=0
PairPos2: "'kern' Horizontal Kerning in Latin lookup 0 per glyph data 1" k dx=0 dy=0 dh=-24 dv=0 dx=0 dy=0 dh=0 dv=0
PairPos2: "'kern' Horizontal Kerning in Latin lookup 0 per glyph data 1" j dx=0 dy=0 dh=-24 dv=0 dx=0 dy=0 dh=0 dv=0
PairPos2: "'kern' Horizontal Kerning in Latin lookup 0 per glyph data 1" i dx=0 dy=0 dh=-24 dv=0 dx=0 dy=0 dh=0 dv=0
PairPos2: "'kern' Horizontal Kerning in Latin lookup 0 per glyph data 1" h dx=0 dy=0 dh=-24 dv=0 dx=0 dy=0 dh=0 dv=0
PairPos2: "'kern' Horizontal Kerning in Latin lookup 0 per glyph data 1" f dx=0 dy=0 dh=-24 dv=0 dx=0 dy=0 dh=0 dv=0
PairPos2: "'kern' Horizontal Kerning in Latin lookup 0 per glyph data 1" e dx=0 dy=0 dh=-15 dv=0 dx=0 dy=0 dh=0 dv=0
PairPos2: "'kern' Horizontal Kerning in Latin lookup 0 per glyph data 1" d dx=0 dy=0 dh=-15 dv=0 dx=0 dy=0 dh=0 dv=0
PairPos2: "'kern' Horizontal Kerning in Latin lookup 0 per glyph data 1" c dx=0 dy=0 dh=-15 dv=0 dx=0 dy=0 dh=0 dv=0
PairPos2: "'kern' Horizontal Kerning in Latin lookup 0 per glyph data 1" b dx=0 dy=0 dh=-24 dv=0 dx=0 dy=0 dh=0 dv=0
PairPos2: "'kern' Horizontal Kerning in Latin lookup 0 per glyph data 1" a dx=0 dy=0 dh=-14 dv=0 dx=0 dy=0 dh=0 dv=0
PairPos2: "'kern' Horizontal Kerning in Latin lookup 0 per glyph data 1" bracketright dx=0 dy=0 dh=-24 dv=0 dx=0 dy=0 dh=0 dv=0
PairPos2: "'kern' Horizontal Kerning in Latin lookup 0 per glyph data 1" bracketleft dx=0 dy=0 dh=-24 dv=0 dx=0 dy=0 dh=0 dv=0
PairPos2: "'kern' Horizontal Kerning in Latin lookup 0 per glyph data 1" W dx=0 dy=0 dh=-36 dv=0 dx=0 dy=0 dh=0 dv=0
PairPos2: "'kern' Horizontal Kerning in Latin lookup 0 per glyph data 1" one dx=0 dy=0 dh=-24 dv=0 dx=0 dy=0 dh=0 dv=0
PairPos2: "'kern' Horizontal Kerning in Latin lookup 0 per glyph data 1" parenright dx=0 dy=0 dh=-24 dv=0 dx=0 dy=0 dh=0 dv=0
PairPos2: "'kern' Horizontal Kerning in Latin lookup 0 per glyph data 1" parenleft dx=0 dy=0 dh=-24 dv=0 dx=0 dy=0 dh=0 dv=0
PairPos2: "'kern' Horizontal Kerning in Latin lookup 0 per glyph data 1" exclam dx=0 dy=0 dh=-24 dv=0 dx=0 dy=0 dh=0 dv=0
EndChar

StartChar: braceleft
Encoding: 123 123 94
Width: 453
GlyphClass: 2
Flags: W
LayerCount: 2
Fore
SplineSet
61 221 m 1,0,-1
 61 278 l 1,1,2
 177 278 177 278 177 378 c 2,3,-1
 177 613 l 2,4,5
 177 657 177 657 194 687 c 0,6,7
 229 749 229 749 333 749 c 0,8,9
 343 749 343 749 353 748 c 1,10,-1
 353 691 l 1,11,12
 349 691 349 691 345 691 c 0,13,14
 302 691 302 691 269.5 669.5 c 128,-1,15
 237 648 237 648 237 591 c 2,16,-1
 237 381 l 2,17,18
 237 289 237 289 180 249 c 1,19,20
 237 211 237 211 237 118 c 2,21,-1
 237 -92 l 2,22,23
 237 -150 237 -150 269.5 -171 c 128,-1,24
 302 -192 302 -192 345 -192 c 0,25,26
 349 -192 349 -192 353 -192 c 1,27,-1
 353 -249 l 1,28,29
 343 -250 343 -250 328 -250 c 128,-1,30
 313 -250 313 -250 290.5 -246.5 c 128,-1,31
 268 -243 268 -243 239.5 -230.5 c 128,-1,32
 211 -218 211 -218 194 -188 c 128,-1,33
 177 -158 177 -158 177 -114 c 2,34,-1
 177 96 l 2,35,36
 177 217 177 217 68 221 c 1,37,-1
 61 221 l 1,0,-1
EndSplineSet
EndChar

StartChar: bar
Encoding: 124 124 95
Width: 284
GlyphClass: 2
Flags: W
LayerCount: 2
Fore
SplineSet
112 749 m 1,0,-1
 172 749 l 1,1,-1
 172 -200 l 1,2,-1
 112 -200 l 1,3,-1
 112 749 l 1,0,-1
EndSplineSet
EndChar

StartChar: braceright
Encoding: 125 125 96
Width: 453
GlyphClass: 2
Flags: W
LayerCount: 2
Fore
SplineSet
353 221 m 1,0,-1
 346 221 l 1,1,2
 237 217 237 217 237 96 c 2,3,-1
 237 -114 l 2,4,5
 237 -158 237 -158 220 -188 c 0,6,7
 185 -250 185 -250 81 -250 c 0,8,9
 71 -250 71 -250 61 -249 c 1,10,-1
 61 -192 l 1,11,12
 65 -192 65 -192 69 -192 c 0,13,14
 112 -192 112 -192 144.5 -171 c 128,-1,15
 177 -150 177 -150 177 -92 c 2,16,-1
 177 118 l 2,17,18
 177 211 177 211 234 249 c 1,19,20
 177 289 177 289 177 381 c 2,21,-1
 177 591 l 2,22,23
 177 648 177 648 144.5 669.5 c 128,-1,24
 112 691 112 691 69 691 c 0,25,26
 65 691 65 691 61 691 c 1,27,-1
 61 748 l 1,28,29
 71 749 71 749 85.5 749 c 128,-1,30
 100 749 100 749 122.5 745.5 c 128,-1,31
 145 742 145 742 174 729.5 c 128,-1,32
 203 717 203 717 220 687 c 128,-1,33
 237 657 237 657 237 613 c 2,34,-1
 237 378 l 2,35,36
 237 278 237 278 353 278 c 1,37,-1
 353 221 l 1,0,-1
EndSplineSet
EndChar

StartChar: asciitilde
Encoding: 126 126 97
Width: 588
GlyphClass: 2
Flags: W
LayerCount: 2
Fore
SplineSet
210 380 m 0,0,1
 244 380 244 380 311.5 363.5 c 128,-1,2
 379 347 379 347 405 347 c 128,-1,3
 431 347 431 347 440 356 c 128,-1,4
 449 365 449 365 453 386 c 1,5,-1
 488 379 l 1,6,7
 479 340 479 340 462 324.5 c 128,-1,8
 445 309 445 309 418.5 309 c 128,-1,9
 392 309 392 309 318 328 c 1,10,11
 252 343 252 343 216 343 c 0,12,13
 163 343 163 343 156 308 c 1,14,-1
 122 315 l 1,15,16
 135 380 135 380 210 380 c 0,0,1
EndSplineSet
EndChar

StartChar: exclamdown
Encoding: 161 161 98
Width: 282
GlyphClass: 2
Flags: W
LayerCount: 2
Fore
SplineSet
170 371 m 1,0,-1
 170 -200 l 1,1,-1
 110 -195 l 1,2,-1
 110 371 l 1,3,-1
 170 371 l 1,0,-1
104 465 m 128,-1,5
 104 479 104 479 114.5 489.5 c 128,-1,6
 125 500 125 500 139 500 c 128,-1,7
 153 500 153 500 163.5 489.5 c 128,-1,8
 174 479 174 479 174 465 c 128,-1,9
 174 451 174 451 163.5 440.5 c 128,-1,10
 153 430 153 430 139 430 c 128,-1,11
 125 430 125 430 114.5 440.5 c 128,-1,4
 104 451 104 451 104 465 c 128,-1,5
EndSplineSet
EndChar

StartChar: cent
Encoding: 162 162 99
Width: 479
GlyphClass: 2
Flags: W
LayerCount: 2
Fore
SplineSet
300 446 m 2,0,-1
 289 446 l 1,1,-1
 289 54 l 1,2,3
 347 56 347 56 385.5 67.5 c 128,-1,4
 424 79 424 79 428 82 c 1,5,-1
 444 28 l 1,6,7
 394 1 394 1 289 -3 c 1,8,-1
 289 -100 l 1,9,-1
 259 -100 l 1,10,-1
 259 -4 l 1,11,12
 177 -2 177 -2 118 40 c 0,13,14
 84 64 84 64 64.5 112.5 c 128,-1,15
 45 161 45 161 45 230 c 0,16,17
 45 356 45 356 106 422.5 c 128,-1,18
 167 489 167 489 259 502 c 1,19,-1
 259 600 l 1,20,-1
 289 600 l 1,21,-1
 289 505 l 1,22,23
 296 505 296 505 319 505 c 128,-1,24
 342 505 342 505 381 495 c 128,-1,25
 420 485 420 485 440 466 c 1,26,-1
 440 345 l 1,27,-1
 391 338 l 1,28,-1
 386 433 l 1,29,30
 345 446 345 446 300 446 c 2,0,-1
110 231 m 0,31,32
 110 63 110 63 259 54 c 1,33,-1
 259 442 l 1,34,35
 190 430 190 430 150 375 c 128,-1,36
 110 320 110 320 110 231 c 0,31,32
EndSplineSet
EndChar

StartChar: sterling
Encoding: 163 163 100
Width: 502
GlyphClass: 2
Flags: W
LayerCount: 2
Fore
SplineSet
101 412 m 0,0,1
 101 597 101 597 258 597 c 0,2,3
 332 597 332 597 379 557 c 1,4,-1
 356 515 l 1,5,6
 323 544 323 544 266 544 c 128,-1,7
 209 544 209 544 184.5 509.5 c 128,-1,8
 160 475 160 475 160 410 c 128,-1,9
 160 345 160 345 167 313 c 1,10,-1
 333 313 l 1,11,-1
 333 280 l 1,12,-1
 175 280 l 1,13,14
 178 270 178 270 192.5 223 c 128,-1,15
 207 176 207 176 207 139 c 0,16,17
 207 73 207 73 165 53 c 1,18,-1
 426 53 l 1,19,-1
 431 0 l 1,20,-1
 85 0 l 1,21,-1
 78 53 l 1,22,-1
 85 53 l 1,23,24
 110 54 110 54 128.5 75.5 c 128,-1,25
 147 97 147 97 147 138 c 128,-1,26
 147 179 147 179 134.5 217 c 128,-1,27
 122 255 122 255 116 280 c 1,28,-1
 51 280 l 1,29,-1
 51 313 l 1,30,-1
 110 313 l 1,31,32
 101 368 101 368 101 412 c 0,0,1
EndSplineSet
EndChar

StartChar: currency
Encoding: 164 164 101
Width: 600
GlyphClass: 2
Flags: W
LayerCount: 2
Fore
SplineSet
134 324 m 1,0,1
 100 372 100 372 100 446 c 128,-1,2
 100 520 100 520 138 571 c 1,3,-1
 90 620 l 1,4,-1
 131 661 l 1,5,-1
 180 612 l 1,6,7
 232 650 232 650 303 650 c 128,-1,8
 374 650 374 650 425 615 c 1,9,-1
 473 663 l 1,10,-1
 515 621 l 1,11,-1
 466 572 l 1,12,13
 500 522 500 522 500 451.5 c 128,-1,14
 500 381 500 381 462 330 c 1,15,-1
 515 277 l 1,16,-1
 474 236 l 1,17,-1
 421 289 l 1,18,19
 368 250 368 250 298 250 c 128,-1,20
 228 250 228 250 177 283 c 1,21,-1
 131 237 l 1,22,-1
 89 279 l 1,23,-1
 134 324 l 1,0,1
201 550.5 m 128,-1,25
 160 509 160 509 160 447 c 128,-1,26
 160 385 160 385 200 346.5 c 128,-1,27
 240 308 240 308 299 308 c 128,-1,28
 358 308 358 308 399 349.5 c 128,-1,29
 440 391 440 391 440 453 c 128,-1,30
 440 515 440 515 400 553.5 c 128,-1,31
 360 592 360 592 301 592 c 128,-1,24
 242 592 242 592 201 550.5 c 128,-1,25
EndSplineSet
EndChar

StartChar: brokenbar
Encoding: 166 166 102
Width: 284
GlyphClass: 2
Flags: W
LayerCount: 2
Fore
SplineSet
112 200 m 1,0,-1
 172 200 l 1,1,-1
 172 -200 l 1,2,-1
 112 -200 l 1,3,-1
 112 200 l 1,0,-1
172 400 m 1,4,-1
 112 400 l 1,5,-1
 112 749 l 1,6,-1
 172 749 l 1,7,-1
 172 400 l 1,4,-1
EndSplineSet
EndChar

StartChar: section
Encoding: 167 167 103
Width: 500
GlyphClass: 2
Flags: W
LayerCount: 2
Fore
SplineSet
90 600 m 1,0,-1
 155 600 l 1,1,2
 157 524 157 524 206 491 c 0,3,4
 229 476 229 476 256.5 464 c 128,-1,5
 284 452 284 452 311 438 c 128,-1,6
 338 424 338 424 360 404 c 0,7,8
 410 360 410 360 410 262 c 1,9,-1
 345 262 l 1,10,11
 345 340 345 340 294 376 c 0,12,13
 272 392 272 392 245 404.5 c 128,-1,14
 218 417 218 417 190.5 431 c 128,-1,15
 163 445 163 445 140 464 c 0,16,17
 90 507 90 507 90 600 c 1,0,-1
90 361 m 1,18,-1
 155 361 l 1,19,20
 157 284 157 284 206 251 c 0,21,22
 229 236 229 236 256.5 223.5 c 128,-1,23
 284 211 284 211 311 197 c 128,-1,24
 338 183 338 183 360 164 c 0,25,26
 410 119 410 119 410 23 c 1,27,-1
 345 23 l 1,28,29
 345 101 345 101 294 137 c 0,30,31
 272 153 272 153 245 165 c 128,-1,32
 218 177 218 177 190.5 191 c 128,-1,33
 163 205 163 205 140 224 c 0,34,35
 90 267 90 267 90 361 c 1,18,-1
EndSplineSet
EndChar

StartChar: dieresis
Encoding: 168 168 104
Width: 500
GlyphClass: 2
Flags: W
LayerCount: 2
Fore
SplineSet
119.5 581.5 m 128,-1,1
 109 593 109 593 109 611 c 128,-1,2
 109 629 109 629 119.5 639.5 c 128,-1,3
 130 650 130 650 147.5 650 c 128,-1,4
 165 650 165 650 175.5 639.5 c 128,-1,5
 186 629 186 629 186 610 c 128,-1,6
 186 591 186 591 175 580.5 c 128,-1,7
 164 570 164 570 147 570 c 128,-1,0
 130 570 130 570 119.5 581.5 c 128,-1,1
335 581.5 m 128,-1,9
 325 593 325 593 325 611 c 128,-1,10
 325 629 325 629 335 639.5 c 128,-1,11
 345 650 345 650 362 650 c 0,12,13
 402 650 402 650 402 610 c 0,14,15
 402 591 402 591 391 580.5 c 128,-1,16
 380 570 380 570 362.5 570 c 128,-1,8
 345 570 345 570 335 581.5 c 128,-1,9
EndSplineSet
EndChar

StartChar: copyright
Encoding: 169 169 105
Width: 833
GlyphClass: 2
Flags: W
LayerCount: 2
Fore
SplineSet
172 76 m 128,-1,1
 85 157 85 157 85 303 c 128,-1,2
 85 449 85 449 174 537 c 128,-1,3
 263 625 263 625 396 625 c 128,-1,4
 529 625 529 625 616 543.5 c 128,-1,5
 703 462 703 462 703 316.5 c 128,-1,6
 703 171 703 171 614 83 c 128,-1,7
 525 -5 525 -5 392 -5 c 128,-1,0
 259 -5 259 -5 172 76 c 128,-1,1
195.5 516.5 m 128,-1,9
 115 436 115 436 115 307 c 128,-1,10
 115 178 115 178 194.5 100.5 c 128,-1,11
 274 23 274 23 393 23 c 128,-1,12
 512 23 512 23 592.5 103.5 c 128,-1,13
 673 184 673 184 673 313 c 128,-1,14
 673 442 673 442 593.5 519.5 c 128,-1,15
 514 597 514 597 395 597 c 128,-1,8
 276 597 276 597 195.5 516.5 c 128,-1,9
387 477 m 0,16,17
 325 477 325 477 289 431 c 128,-1,18
 253 385 253 385 253 299 c 0,19,20
 253 152 253 152 368 152 c 0,21,22
 416 152 416 152 476 164 c 1,23,-1
 483 135 l 1,24,25
 435 122 435 122 364 122 c 0,26,27
 216 122 216 122 216 299 c 0,28,29
 216 396 216 396 260 450 c 1,30,31
 307 506 307 506 385 506 c 0,32,33
 411 506 411 506 440.5 501 c 128,-1,34
 470 496 470 496 480 492 c 1,35,-1
 487 414 l 1,36,-1
 460 410 l 1,37,-1
 453 469 l 1,38,39
 417 477 417 477 387 477 c 0,16,17
EndSplineSet
EndChar

StartChar: ordfeminine
Encoding: 170 170 106
Width: 300
GlyphClass: 2
Flags: W
LayerCount: 2
Fore
SplineSet
76 663 m 1,0,1
 123 682 123 682 145 682 c 0,2,3
 210 682 210 682 210 629 c 2,4,-1
 210 518 l 1,5,-1
 238 518 l 1,6,-1
 238 500 l 1,7,-1
 190 500 l 1,8,-1
 186 514 l 1,9,10
 154 499 154 499 123 499 c 0,11,12
 75 499 75 499 72 537 c 0,13,14
 72 540 72 540 72 543 c 0,15,16
 72 572 72 572 108 582 c 0,17,18
 126 587 126 587 186 594 c 1,19,-1
 186 621 l 2,20,21
 186 661 186 661 145 661 c 0,22,23
 110 661 110 661 82 647 c 1,24,-1
 76 663 l 1,0,1
94 540 m 0,25,26
 95 515 95 515 125.5 515 c 128,-1,27
 156 515 156 515 186 527 c 1,28,-1
 186 579 l 1,29,30
 127 576 127 576 116 572 c 0,31,32
 93 565 93 565 93 546 c 0,33,34
 93 543 93 543 94 540 c 0,25,26
EndSplineSet
EndChar

StartChar: guillemotleft
Encoding: 171 171 107
Width: 694
GlyphClass: 2
Flags: W
LayerCount: 2
Fore
SplineSet
344 136 m 1,0,-1
 344 88 l 1,1,-1
 75 259 l 1,2,-1
 344 430 l 1,3,-1
 344 382 l 1,4,-1
 140 259 l 1,5,-1
 344 136 l 1,0,-1
600 136 m 1,6,-1
 600 88 l 1,7,-1
 331 259 l 1,8,-1
 600 430 l 1,9,-1
 600 382 l 1,10,-1
 396 259 l 1,11,-1
 600 136 l 1,6,-1
EndSplineSet
EndChar

StartChar: logicalnot
Encoding: 172 172 108
Width: 600
GlyphClass: 2
Flags: W
LayerCount: 2
Fore
SplineSet
100 290 m 1,0,-1
 522 290 l 1,1,-1
 522 152 l 1,2,-1
 462 152 l 1,3,-1
 462 232 l 1,4,-1
 100 232 l 1,5,-1
 100 290 l 1,0,-1
EndSplineSet
EndChar

StartChar: registered
Encoding: 174 174 109
Width: 599
GlyphClass: 2
Flags: W
LayerCount: 2
Fore
SplineSet
148 343 m 128,-1,1
 90 397 90 397 90 494.5 c 128,-1,2
 90 592 90 592 149.5 651 c 128,-1,3
 209 710 209 710 298 710 c 128,-1,4
 387 710 387 710 445 655.5 c 128,-1,5
 503 601 503 601 503 503.5 c 128,-1,6
 503 406 503 406 443.5 347.5 c 128,-1,7
 384 289 384 289 295 289 c 128,-1,0
 206 289 206 289 148 343 c 128,-1,1
167 635.5 m 128,-1,9
 115 584 115 584 115 496.5 c 128,-1,10
 115 409 115 409 166 360.5 c 128,-1,11
 217 312 217 312 295 312 c 128,-1,12
 373 312 373 312 425.5 363 c 128,-1,13
 478 414 478 414 478 501 c 128,-1,14
 478 588 478 588 426.5 637.5 c 128,-1,15
 375 687 375 687 297 687 c 128,-1,8
 219 687 219 687 167 635.5 c 128,-1,9
223 595 m 1,16,-1
 223 613 l 1,17,-1
 303 613 l 2,18,19
 374 613 374 613 374 553 c 0,20,21
 374 534 374 534 360 513 c 128,-1,22
 346 492 346 492 333 484 c 1,23,-1
 386 398 l 1,24,-1
 410 398 l 1,25,-1
 410 380 l 1,26,-1
 373 380 l 1,27,-1
 314 476 l 1,28,-1
 266 476 l 1,29,-1
 266 398 l 1,30,-1
 290 398 l 1,31,-1
 290 380 l 1,32,-1
 223 380 l 1,33,-1
 223 398 l 1,34,-1
 243 398 l 1,35,-1
 243 595 l 1,36,-1
 223 595 l 1,16,-1
301 595 m 2,37,-1
 266 595 l 1,38,-1
 266 494 l 1,39,-1
 320 494 l 1,40,41
 352 522 352 522 352 551 c 0,42,43
 352 595 352 595 301 595 c 2,37,-1
EndSplineSet
EndChar

StartChar: macron
Encoding: 175 175 110
Width: 500
GlyphClass: 2
Flags: W
LayerCount: 2
Fore
SplineSet
100 648 m 1,0,-1
 400 648 l 1,1,-1
 400 590 l 1,2,-1
 100 590 l 1,3,-1
 100 648 l 1,0,-1
EndSplineSet
EndChar

StartChar: degree
Encoding: 176 176 111
Width: 378
GlyphClass: 2
Flags: W
LayerCount: 2
Fore
SplineSet
117.5 538 m 128,-1,1
 90 563 90 563 90 608.5 c 128,-1,2
 90 654 90 654 118.5 682 c 128,-1,3
 147 710 147 710 189.5 710 c 128,-1,4
 232 710 232 710 259.5 685 c 128,-1,5
 287 660 287 660 287 614 c 128,-1,6
 287 568 287 568 258.5 540.5 c 128,-1,7
 230 513 230 513 187.5 513 c 128,-1,0
 145 513 145 513 117.5 538 c 128,-1,1
140 661 m 128,-1,9
 120 640 120 640 120 609 c 128,-1,10
 120 578 120 578 139 559.5 c 128,-1,11
 158 541 158 541 187.5 541 c 128,-1,12
 217 541 217 541 237 561.5 c 128,-1,13
 257 582 257 582 257 613 c 128,-1,14
 257 644 257 644 237.5 663 c 128,-1,15
 218 682 218 682 189 682 c 128,-1,8
 160 682 160 682 140 661 c 128,-1,9
EndSplineSet
EndChar

StartChar: plusminus
Encoding: 177 177 112
Width: 833
GlyphClass: 2
Flags: W
LayerCount: 2
Fore
SplineSet
146 490 m 1,0,-1
 366 490 l 1,1,-1
 366 700 l 1,2,-1
 426 700 l 1,3,-1
 426 490 l 1,4,-1
 646 490 l 1,5,-1
 646 432 l 1,6,-1
 426 432 l 1,7,-1
 426 200 l 1,8,-1
 366 200 l 1,9,-1
 366 432 l 1,10,-1
 146 432 l 1,11,-1
 146 490 l 1,0,-1
146 123 m 1,12,-1
 646 123 l 1,13,-1
 646 65 l 1,14,-1
 146 65 l 1,15,-1
 146 123 l 1,12,-1
EndSplineSet
EndChar

StartChar: twosuperior
Encoding: 178 178 113
Width: 236
GlyphClass: 2
Flags: W
LayerCount: 2
Fore
SplineSet
145.5 712.5 m 128,-1,1
 135 727 135 727 109 727 c 128,-1,2
 83 727 83 727 49 711 c 1,3,-1
 39 729 l 1,4,5
 75 748 75 748 108 748 c 0,6,7
 181 748 181 748 181 681 c 0,8,9
 181 632 181 632 118 570 c 0,10,11
 112 563 112 563 90 542.5 c 128,-1,12
 68 522 68 522 65 519 c 1,13,-1
 171 519 l 1,14,-1
 177 566 l 1,15,-1
 195 564 l 1,16,-1
 189 498 l 1,17,-1
 36 498 l 1,18,-1
 32 519 l 1,19,20
 39 526 39 526 55.5 541.5 c 128,-1,21
 72 557 72 557 78 563 c 2,22,-1
 97 582 l 2,23,24
 110 595 110 595 114.5 601 c 128,-1,25
 119 607 119 607 128 617.5 c 128,-1,26
 137 628 137 628 140.5 634.5 c 128,-1,27
 144 641 144 641 148 650 c 0,28,29
 156 665 156 665 156 681.5 c 128,-1,0
 156 698 156 698 145.5 712.5 c 128,-1,1
EndSplineSet
EndChar

StartChar: threesuperior
Encoding: 179 179 114
Width: 300
GlyphClass: 2
Flags: W
LayerCount: 2
Fore
SplineSet
167 723 m 0,0,1
 142 723 142 723 108 707 c 1,2,-1
 102 725 l 1,3,4
 133 744 133 744 165 744 c 128,-1,5
 197 744 197 744 215 730 c 128,-1,6
 233 716 233 716 233 691 c 0,7,8
 233 650 233 650 190 631 c 1,9,10
 235 620 235 620 235 574 c 0,11,12
 235 499 235 499 136 499 c 0,13,14
 111 499 111 499 91 505 c 1,15,-1
 97 524 l 1,16,17
 111 519 111 519 134 519 c 0,18,19
 210 519 210 519 210 572 c 0,20,21
 210 605 210 605 182 613 c 0,22,23
 160 619 160 619 128 619 c 1,24,-1
 128 635 l 1,25,-1
 159 635 l 1,26,27
 181 638 181 638 194.5 653.5 c 128,-1,28
 208 669 208 669 208 688 c 0,29,30
 208 723 208 723 167 723 c 0,0,1
EndSplineSet
EndChar

StartChar: acute
Encoding: 180 180 115
Width: 300
GlyphClass: 2
Flags: W
LayerCount: 2
Fore
SplineSet
180 750 m 1,0,-1
 240 743 l 1,1,-1
 121 595 l 1,2,-1
 76 603 l 1,3,-1
 180 750 l 1,0,-1
EndSplineSet
EndChar

StartChar: mu
Encoding: 181 181 116
Width: 649
GlyphClass: 2
Flags: W
LayerCount: 2
Fore
SplineSet
195 -250 m 1,0,-1
 130 -250 l 1,1,-1
 130 250 l 1,2,-1
 195 250 l 1,3,-1
 195 -250 l 1,0,-1
448 58 m 1,4,5
 357 -3 357 -3 276 -3 c 0,6,7
 242 -3 242 -3 196 14 c 0,8,9
 166 25 166 25 148 55.5 c 128,-1,10
 130 86 130 86 130 132 c 2,11,-1
 130 450 l 1,12,-1
 60 450 l 1,13,-1
 60 500 l 1,14,-1
 195 500 l 1,15,-1
 195 152 l 2,16,17
 195 117 195 117 210 94.5 c 128,-1,18
 225 72 225 72 248 65 c 0,19,20
 286 53 286 53 309 55 c 1,21,22
 369 56 369 56 448 98 c 1,23,-1
 448 450 l 1,24,-1
 378 450 l 1,25,-1
 378 500 l 1,26,-1
 513 500 l 1,27,-1
 513 50 l 1,28,-1
 590 50 l 1,29,-1
 590 0 l 1,30,-1
 458 0 l 1,31,-1
 448 58 l 1,4,5
EndSplineSet
EndChar

StartChar: paragraph
Encoding: 182 182 117
Width: 611
GlyphClass: 2
Flags: W
LayerCount: 2
Fore
SplineSet
162 403 m 128,-1,1
 115 447 115 447 115 524 c 128,-1,2
 115 601 115 601 163.5 650.5 c 128,-1,3
 212 700 212 700 281 700 c 2,4,-1
 341 700 l 1,5,-1
 341 200 l 1,6,-1
 281 200 l 1,7,-1
 281 359 l 1,8,0
 209 359 209 359 162 403 c 128,-1,1
498 700 m 1,9,-1
 498 0 l 1,10,-1
 448 0 l 1,11,-1
 448 700 l 1,12,-1
 498 700 l 1,9,-1
EndSplineSet
EndChar

StartChar: periodcentered
Encoding: 183 183 118
Width: 136
GlyphClass: 2
Flags: W
LayerCount: 2
Fore
SplineSet
34 382 m 0,0,1
 34 399 34 399 43 409.5 c 128,-1,2
 52 420 52 420 66 420 c 0,3,4
 99 420 99 420 99 382 c 0,5,6
 99 367 99 367 89.5 357.5 c 128,-1,7
 80 348 80 348 66 348 c 0,8,9
 34 348 34 348 34 382 c 0,0,1
EndSplineSet
EndChar

StartChar: cedilla
Encoding: 184 184 119
Width: 260
GlyphClass: 2
Flags: W
LayerCount: 2
Fore
SplineSet
58 -118 m 1,0,1
 133 -92 133 -92 133 -46 c 0,2,3
 133 -21 133 -21 126 0 c 1,4,-1
 161 6 l 1,5,6
 169 -15 169 -15 169 -32 c 0,7,8
 169 -70 169 -70 139.5 -99.5 c 128,-1,9
 110 -129 110 -129 68 -139 c 1,10,-1
 58 -118 l 1,0,1
EndSplineSet
EndChar

StartChar: onesuperior
Encoding: 185 185 120
Width: 275
GlyphClass: 2
Flags: W
LayerCount: 2
Fore
SplineSet
170 749 m 1,0,-1
 170 500 l 1,1,-1
 146 500 l 1,2,-1
 146 731 l 1,3,-1
 87 717 l 1,4,-1
 87 735 l 1,5,-1
 146 749 l 1,6,-1
 170 749 l 1,0,-1
EndSplineSet
EndChar

StartChar: ordmasculine
Encoding: 186 186 121
Width: 300
GlyphClass: 2
Flags: W
LayerCount: 2
Fore
SplineSet
83 524.5 m 128,-1,1
 58 548 58 548 58 596 c 128,-1,2
 58 644 58 644 84.5 671.5 c 128,-1,3
 111 699 111 699 151.5 699 c 128,-1,4
 192 699 192 699 217 676 c 128,-1,5
 242 653 242 653 242 605 c 128,-1,6
 242 557 242 557 215.5 529 c 128,-1,7
 189 501 189 501 148.5 501 c 128,-1,0
 108 501 108 501 83 524.5 c 128,-1,1
102.5 656 m 128,-1,9
 83 635 83 635 83 599 c 128,-1,10
 83 563 83 563 101.5 543.5 c 128,-1,11
 120 524 120 524 149 524 c 128,-1,12
 178 524 178 524 197.5 545 c 128,-1,13
 217 566 217 566 217 602 c 128,-1,14
 217 638 217 638 198.5 657.5 c 128,-1,15
 180 677 180 677 151 677 c 128,-1,8
 122 677 122 677 102.5 656 c 128,-1,9
EndSplineSet
EndChar

StartChar: guillemotright
Encoding: 187 187 122
Width: 694
GlyphClass: 2
Flags: W
LayerCount: 2
Fore
SplineSet
331 88 m 1,0,-1
 331 136 l 1,1,-1
 535 259 l 1,2,-1
 331 382 l 1,3,-1
 331 430 l 1,4,-1
 600 259 l 1,5,-1
 331 88 l 1,0,-1
75 88 m 1,6,-1
 75 136 l 1,7,-1
 279 259 l 1,8,-1
 75 382 l 1,9,-1
 75 430 l 1,10,-1
 344 259 l 1,11,-1
 75 88 l 1,6,-1
EndSplineSet
EndChar

StartChar: onequarter
Encoding: 188 188 123
Width: 840
GlyphClass: 2
Flags: W
LayerCount: 2
Fore
SplineSet
509 750 m 1,0,-1
 556 750 l 1,1,-1
 305 0 l 1,2,-1
 257 0 l 1,3,-1
 509 750 l 1,0,-1
675 98 m 1,4,-1
 465 98 l 1,5,-1
 453 136 l 1,6,-1
 675 463 l 1,7,-1
 723 463 l 1,8,-1
 723 136 l 1,9,-1
 755 136 l 1,10,-1
 756 98 l 1,11,-1
 723 98 l 1,12,-1
 723 34 l 1,13,-1
 770 31 l 1,14,15
 769 1 769 1 769 0 c 2,16,-1
 630 -1 l 1,17,-1
 630 30 l 1,18,-1
 667 35 l 2,19,20
 672 36 672 36 675 44 c 1,21,-1
 675 98 l 1,4,-1
675 136 m 1,22,-1
 675 393 l 1,23,-1
 500 136 l 1,24,-1
 675 136 l 1,22,-1
80 692 m 1,25,26
 80 692 80 692 79 725 c 1,27,-1
 188 749 l 1,28,-1
 230 749 l 1,29,-1
 230 300 l 1,30,-1
 188 300 l 1,31,-1
 188 716 l 1,32,-1
 80 692 l 1,25,26
EndSplineSet
EndChar

StartChar: onehalf
Encoding: 189 189 124
Width: 862
GlyphClass: 2
Flags: W
LayerCount: 2
Fore
SplineSet
82 691 m 1,0,1
 82 691 82 691 81 725 c 1,2,-1
 190 749 l 1,3,-1
 233 749 l 1,4,-1
 233 300 l 1,5,-1
 190 300 l 1,6,-1
 190 716 l 1,7,-1
 82 691 l 1,0,1
537 413 m 1,8,9
 600 448 600 448 658 448 c 128,-1,10
 716 448 716 448 753 420 c 128,-1,11
 790 392 790 392 790 328 c 0,12,13
 790 237 790 237 678 128 c 0,14,15
 662 113 662 113 627.5 81 c 128,-1,16
 593 49 593 49 582 38 c 1,17,-1
 772 38 l 1,18,-1
 782 122 l 1,19,-1
 815 119 l 1,20,-1
 805 1 l 1,21,-1
 531 1 l 1,22,-1
 523 38 l 1,23,24
 649 160 649 160 676 191 c 0,25,26
 745 270 745 270 745 330 c 0,27,28
 745 359 745 359 726 385 c 128,-1,29
 707 411 707 411 659 411 c 0,30,31
 614 411 614 411 569 388 c 1,32,-1
 554 381 l 1,33,-1
 537 413 l 1,8,9
509 750 m 1,34,-1
 556 750 l 1,35,-1
 305 0 l 1,36,-1
 257 0 l 1,37,-1
 509 750 l 1,34,-1
EndSplineSet
EndChar

StartChar: threequarters
Encoding: 190 190 125
Width: 799
GlyphClass: 2
Flags: W
LayerCount: 2
Fore
SplineSet
672 98 m 1,0,-1
 462 98 l 1,1,-1
 450 137 l 1,2,-1
 672 464 l 1,3,-1
 720 464 l 1,4,-1
 720 137 l 1,5,-1
 752 137 l 1,6,-1
 753 98 l 1,7,-1
 720 98 l 1,8,-1
 720 34 l 1,9,-1
 768 32 l 1,10,-1
 767 0 l 1,11,-1
 626 -1 l 1,12,13
 626 27 626 27 627 30 c 1,14,-1
 664 35 l 2,15,16
 669 36 669 36 672 44 c 1,17,-1
 672 98 l 1,0,-1
672 137 m 1,18,-1
 672 394 l 1,19,-1
 497 137 l 1,20,-1
 672 137 l 1,18,-1
115 519 m 1,21,-1
 115 550 l 1,22,23
 151 550 151 550 170 549 c 1,24,25
 204 553 204 553 234 580 c 0,26,27
 261 603 261 603 261 647 c 0,28,29
 261 673 261 673 243.5 692 c 128,-1,30
 226 711 226 711 194 711 c 0,31,32
 140 711 140 711 93 689 c 2,33,-1
 78 682 l 1,34,-1
 66 715 l 1,35,36
 123 749 123 749 182 749 c 128,-1,37
 241 749 241 749 274 724 c 128,-1,38
 307 699 307 699 307 652 c 0,39,40
 307 576 307 576 227 542 c 1,41,42
 310 523 310 523 310 437 c 0,43,44
 310 300 310 300 129 300 c 0,45,46
 85 300 85 300 45 311 c 1,47,-1
 56 346 l 1,48,49
 83 337 83 337 125 337 c 0,50,51
 264 337 264 337 264 435 c 0,52,53
 264 459 264 459 254 476 c 128,-1,54
 244 493 244 493 231 501 c 128,-1,55
 218 509 218 509 194 514 c 0,56,57
 165 519 165 519 115 519 c 1,21,-1
509 750 m 1,58,-1
 556 750 l 1,59,-1
 305 0 l 1,60,-1
 257 0 l 1,61,-1
 509 750 l 1,58,-1
EndSplineSet
EndChar

StartChar: questiondown
Encoding: 191 191 126
Width: 500
GlyphClass: 2
Flags: W
LayerCount: 2
Fore
SplineSet
261 -200 m 0,0,1
 182 -200 182 -200 133.5 -158 c 128,-1,2
 85 -116 85 -116 84 -52 c 0,3,4
 84 -9 84 -9 113 31 c 128,-1,5
 142 71 142 71 216 145 c 1,6,7
 313 240 313 240 313 372 c 1,8,-1
 358 372 l 1,9,10
 358 222 358 222 275.5 135.5 c 128,-1,11
 193 49 193 49 171 16.5 c 128,-1,12
 149 -16 149 -16 149.5 -54.5 c 128,-1,13
 150 -93 150 -93 180 -120 c 0,14,15
 212 -148 212 -148 267 -148 c 0,16,17
 300 -148 300 -148 337.5 -136.5 c 128,-1,18
 375 -125 375 -125 396 -112 c 2,19,-1
 417 -99 l 1,20,-1
 440 -138 l 1,21,22
 432 -145 432 -145 417 -155.5 c 128,-1,23
 402 -166 402 -166 355 -183 c 128,-1,24
 308 -200 308 -200 261 -200 c 0,0,1
371 494 m 0,25,26
 371 474 371 474 360.5 462.5 c 128,-1,27
 350 451 350 451 333 451 c 0,28,29
 295 451 295 451 295 494 c 0,30,31
 295 512 295 512 305.5 523 c 128,-1,32
 316 534 316 534 333 534 c 0,33,34
 371 534 371 534 371 494 c 0,25,26
EndSplineSet
EndChar

StartChar: Agrave
Encoding: 192 192 127
Width: 711
GlyphClass: 2
Flags: W
LayerCount: 2
Fore
SplineSet
488 0 m 1,0,-1
 488 55 l 1,1,-1
 549 55 l 1,2,-1
 503 185 l 1,3,-1
 195 185 l 1,4,-1
 150 55 l 1,5,-1
 222 55 l 1,6,-1
 222 0 l 1,7,-1
 20 0 l 1,8,-1
 20 55 l 1,9,-1
 86 55 l 1,10,-1
 319 700 l 1,11,-1
 380 700 l 1,12,-1
 621 55 l 1,13,-1
 690 55 l 1,14,-1
 690 0 l 1,15,-1
 488 0 l 1,0,-1
346 624 m 1,16,-1
 212 235 l 1,17,-1
 485 235 l 1,18,-1
 346 624 l 1,16,-1
370 754 m 1,19,-1
 324 746 l 1,20,-1
 206 894 l 1,21,-1
 266 901 l 1,22,-1
 370 754 l 1,19,-1
EndSplineSet
EndChar

StartChar: Aacute
Encoding: 193 193 128
Width: 711
GlyphClass: 2
Flags: W
LayerCount: 2
Fore
SplineSet
488 0 m 1,0,-1
 488 55 l 1,1,-1
 549 55 l 1,2,-1
 503 185 l 1,3,-1
 195 185 l 1,4,-1
 150 55 l 1,5,-1
 222 55 l 1,6,-1
 222 0 l 1,7,-1
 20 0 l 1,8,-1
 20 55 l 1,9,-1
 86 55 l 1,10,-1
 319 700 l 1,11,-1
 380 700 l 1,12,-1
 621 55 l 1,13,-1
 690 55 l 1,14,-1
 690 0 l 1,15,-1
 488 0 l 1,0,-1
346 624 m 1,16,-1
 212 235 l 1,17,-1
 485 235 l 1,18,-1
 346 624 l 1,16,-1
429 901 m 1,19,-1
 489 894 l 1,20,-1
 370 746 l 1,21,-1
 325 754 l 1,22,-1
 429 901 l 1,19,-1
EndSplineSet
EndChar

StartChar: Acircumflex
Encoding: 194 194 129
Width: 711
GlyphClass: 2
Flags: W
LayerCount: 2
Fore
SplineSet
488 0 m 1,0,-1
 488 55 l 1,1,-1
 549 55 l 1,2,-1
 503 185 l 1,3,-1
 195 185 l 1,4,-1
 150 55 l 1,5,-1
 222 55 l 1,6,-1
 222 0 l 1,7,-1
 20 0 l 1,8,-1
 20 55 l 1,9,-1
 86 55 l 1,10,-1
 319 700 l 1,11,-1
 380 700 l 1,12,-1
 621 55 l 1,13,-1
 690 55 l 1,14,-1
 690 0 l 1,15,-1
 488 0 l 1,0,-1
346 624 m 1,16,-1
 212 235 l 1,17,-1
 485 235 l 1,18,-1
 346 624 l 1,16,-1
177 779 m 1,19,-1
 344 940 l 1,20,21
 502 786 502 786 510 779 c 1,22,-1
 477 750 l 1,23,-1
 343 883 l 1,24,-1
 211 750 l 1,25,-1
 177 779 l 1,19,-1
EndSplineSet
EndChar

StartChar: Atilde
Encoding: 195 195 130
Width: 711
GlyphClass: 2
Flags: W
LayerCount: 2
Fore
SplineSet
488 0 m 1,0,-1
 488 55 l 1,1,-1
 549 55 l 1,2,-1
 503 185 l 1,3,-1
 195 185 l 1,4,-1
 150 55 l 1,5,-1
 222 55 l 1,6,-1
 222 0 l 1,7,-1
 20 0 l 1,8,-1
 20 55 l 1,9,-1
 86 55 l 1,10,-1
 319 700 l 1,11,-1
 380 700 l 1,12,-1
 621 55 l 1,13,-1
 690 55 l 1,14,-1
 690 0 l 1,15,-1
 488 0 l 1,0,-1
346 624 m 1,16,-1
 212 235 l 1,17,-1
 485 235 l 1,18,-1
 346 624 l 1,16,-1
259 821 m 0,19,20
 293 821 293 821 360.5 804.5 c 128,-1,21
 428 788 428 788 454 788 c 128,-1,22
 480 788 480 788 489 797 c 128,-1,23
 498 806 498 806 502 827 c 1,24,-1
 537 820 l 1,25,26
 528 781 528 781 511 765.5 c 128,-1,27
 494 750 494 750 467.5 750 c 128,-1,28
 441 750 441 750 367 769 c 1,29,30
 301 784 301 784 265 784 c 0,31,32
 212 784 212 784 205 749 c 1,33,-1
 171 756 l 1,34,35
 184 821 184 821 259 821 c 0,19,20
EndSplineSet
EndChar

StartChar: Adieresis
Encoding: 196 196 131
Width: 711
GlyphClass: 2
Flags: W
LayerCount: 2
Fore
SplineSet
488 0 m 1,0,-1
 488 55 l 1,1,-1
 549 55 l 1,2,-1
 503 185 l 1,3,-1
 195 185 l 1,4,-1
 150 55 l 1,5,-1
 222 55 l 1,6,-1
 222 0 l 1,7,-1
 20 0 l 1,8,-1
 20 55 l 1,9,-1
 86 55 l 1,10,-1
 319 700 l 1,11,-1
 380 700 l 1,12,-1
 621 55 l 1,13,-1
 690 55 l 1,14,-1
 690 0 l 1,15,-1
 488 0 l 1,0,-1
346 624 m 1,16,-1
 212 235 l 1,17,-1
 485 235 l 1,18,-1
 346 624 l 1,16,-1
210.5 761.5 m 128,-1,20
 200 773 200 773 200 791 c 128,-1,21
 200 809 200 809 210.5 819.5 c 128,-1,22
 221 830 221 830 238.5 830 c 128,-1,23
 256 830 256 830 266.5 819.5 c 128,-1,24
 277 809 277 809 277 790 c 128,-1,25
 277 771 277 771 266 760.5 c 128,-1,26
 255 750 255 750 238 750 c 128,-1,19
 221 750 221 750 210.5 761.5 c 128,-1,20
426 761.5 m 128,-1,28
 416 773 416 773 416 791 c 128,-1,29
 416 809 416 809 426 819.5 c 128,-1,30
 436 830 436 830 453 830 c 0,31,32
 493 830 493 830 493 790 c 0,33,34
 493 771 493 771 482 760.5 c 128,-1,35
 471 750 471 750 453.5 750 c 128,-1,27
 436 750 436 750 426 761.5 c 128,-1,28
EndSplineSet
EndChar

StartChar: Aring
Encoding: 197 197 132
Width: 711
GlyphClass: 2
Flags: W
LayerCount: 2
Fore
SplineSet
488 0 m 1,0,-1
 488 55 l 1,1,-1
 549 55 l 1,2,-1
 503 185 l 1,3,-1
 195 185 l 1,4,-1
 150 55 l 1,5,-1
 222 55 l 1,6,-1
 222 0 l 1,7,-1
 20 0 l 1,8,-1
 20 55 l 1,9,-1
 86 55 l 1,10,-1
 319 700 l 1,11,-1
 380 700 l 1,12,-1
 621 55 l 1,13,-1
 690 55 l 1,14,-1
 690 0 l 1,15,-1
 488 0 l 1,0,-1
346 624 m 1,16,-1
 212 235 l 1,17,-1
 485 235 l 1,18,-1
 346 624 l 1,16,-1
286.5 769 m 128,-1,20
 263 788 263 788 263 825 c 128,-1,21
 263 862 263 862 288 885.5 c 128,-1,22
 313 909 313 909 347 909 c 0,23,24
 432 909 432 909 432 829 c 0,25,26
 432 796 432 796 407.5 773 c 128,-1,27
 383 750 383 750 346.5 750 c 128,-1,19
 310 750 310 750 286.5 769 c 128,-1,20
312.5 865.5 m 128,-1,29
 298 850 298 850 298 827 c 128,-1,30
 298 804 298 804 311.5 791 c 128,-1,31
 325 778 325 778 346.5 778 c 128,-1,32
 368 778 368 778 382.5 793 c 128,-1,33
 397 808 397 808 397 831 c 128,-1,34
 397 854 397 854 383 867.5 c 128,-1,35
 369 881 369 881 348 881 c 128,-1,28
 327 881 327 881 312.5 865.5 c 128,-1,29
EndSplineSet
EndChar

StartChar: AE
Encoding: 198 198 133
Width: 728
GlyphClass: 2
Flags: W
LayerCount: 2
Fore
SplineSet
20 -1 m 1,0,-1
 21 33 l 1,1,-1
 73 40 l 2,2,3
 80 40 80 40 84 52 c 1,4,-1
 85 53 l 1,5,-1
 328 700 l 1,6,-1
 654 700 l 1,7,-1
 667 556 l 1,8,-1
 617 548 l 1,9,-1
 605 640 l 1,10,-1
 426 640 l 1,11,-1
 426 377 l 1,12,-1
 571 377 l 1,13,14
 581 379 581 379 581 389 c 2,15,-1
 585 438 l 1,16,-1
 631 440 l 1,17,-1
 631 269 l 1,18,19
 630 269 630 269 608 268 c 1,20,-1
 586 268 l 1,21,-1
 582 317 l 1,22,-1
 426 317 l 1,23,-1
 426 60 l 1,24,-1
 632 60 l 1,25,-1
 647 180 l 1,26,-1
 696 175 l 1,27,-1
 681 0 l 1,28,-1
 358 0 l 1,29,-1
 358 185 l 1,30,-1
 196 185 l 1,31,-1
 144 40 l 1,32,-1
 222 35 l 2,33,34
 222 34 222 34 222 17 c 2,35,-1
 221 0 l 1,36,-1
 20 -1 l 1,0,-1
358 235 m 1,37,-1
 358 636 l 1,38,-1
 214 235 l 1,39,-1
 358 235 l 1,37,-1
EndSplineSet
EndChar

